M48
;DRILL file {KiCad 4.0.6} date 02/07/18 20:23:56
;FORMAT={3:3/ absolute / metric / suppress leading zeros}
FMAT,2
METRIC,TZ
T1C0.600
T2C0.800
T3C0.900
T4C1.000
T5C1.800
T6C3.000
T7C3.250
%
G90
G05
M71
T1
X81026Y-113792
X81788Y-114808
X82550Y-115824
X83312Y-113792
X83566Y-116840
X84328Y-117856
X85090Y-118872
X85852Y-119888
X86360Y-114808
X89916Y-115824
X99822Y-116840
X100584Y-117856
X101346Y-118872
X102108Y-119888
X106172Y-113792
X108712Y-114808
X112014Y-115824
X120142Y-113792
X121666Y-116840
X122682Y-114808
X122682Y-117856
X123444Y-118872
X124206Y-119888
X125222Y-115824
X131318Y-119888
X132588Y-118872
X133350Y-116840
X135890Y-117856
X138430Y-118872
X140970Y-119888
T2
X72390Y-100330
X72390Y-110490
X74930Y-100330
X74930Y-110490
X106680Y-100330
X106680Y-105410
X109180Y-100330
X109180Y-105410
T3
X70130Y-131240
X72420Y-131240
X73420Y-136050
X74440Y-137830
X75460Y-136050
X76480Y-137830
X77500Y-136050
X78520Y-137830
X79540Y-136050
X80560Y-137830
X81560Y-131240
X83850Y-131240
X90130Y-131240
X92420Y-131240
X93420Y-136050
X94440Y-137830
X95460Y-136050
X96480Y-137830
X97500Y-136050
X98520Y-137830
X99540Y-136050
X100560Y-137830
X101560Y-131240
X103850Y-131240
X112630Y-131240
X114920Y-131240
X115920Y-136050
X116940Y-137830
X117960Y-136050
X118980Y-137830
X120000Y-136050
X121020Y-137830
X122040Y-136050
X123060Y-137830
X124060Y-131240
X126350Y-131240
X132630Y-131240
X134920Y-131240
X135920Y-136050
X136940Y-137830
X137960Y-136050
X138980Y-137830
X140000Y-136050
X141020Y-137830
X142040Y-136050
X143060Y-137830
X144060Y-131240
X146350Y-131240
T4
X63500Y-113030
X63500Y-115570
X63500Y-118110
X63500Y-120650
X66040Y-113030
X66040Y-115570
X66040Y-118110
X66040Y-120650
X81280Y-100330
X86360Y-100330
X91440Y-100330
X96520Y-100330
X121920Y-100330
X125730Y-109220
X125730Y-111760
X127000Y-100330
X128270Y-109220
X128270Y-111760
X130810Y-109220
X130810Y-111760
X132080Y-100330
X133350Y-109220
X133350Y-111760
X137160Y-100330
X149860Y-113030
X149860Y-115570
X149860Y-118110
X149860Y-120650
X152400Y-113030
X152400Y-115570
X152400Y-118110
X152400Y-120650
T5
X68860Y-136810
X85120Y-136810
X88860Y-136810
X105120Y-136810
X111360Y-136810
X127620Y-136810
X131360Y-136810
X147620Y-136810
T6
X63420Y-101050
X63420Y-141050
X153420Y-101050
X153420Y-141050
T7
X70640Y-140370
X83340Y-140370
X90640Y-140370
X103340Y-140370
X113140Y-140370
X125840Y-140370
X133140Y-140370
X145840Y-140370
T0
M30
