G04 #@! TF.FileFunction,Copper,L2,Bot,Signal*
%FSLAX46Y46*%
G04 Gerber Fmt 4.6, Leading zero omitted, Abs format (unit mm)*
G04 Created by KiCad (PCBNEW 4.0.6) date 01/22/18 09:57:44*
%MOMM*%
%LPD*%
G01*
G04 APERTURE LIST*
%ADD10C,0.100000*%
%ADD11C,1.800000*%
%ADD12C,2.000000*%
%ADD13C,1.600000*%
%ADD14O,1.600000X1.600000*%
%ADD15R,1.700000X1.700000*%
%ADD16O,1.700000X1.700000*%
%ADD17R,1.600000X1.600000*%
%ADD18C,1.000000*%
%ADD19C,0.400000*%
%ADD20C,0.254000*%
G04 APERTURE END LIST*
D10*
D11*
X73440000Y-138830000D03*
X72420000Y-137050000D03*
X75480000Y-138830000D03*
X74460000Y-137050000D03*
X77520000Y-138830000D03*
X76500000Y-137050000D03*
X79560000Y-138830000D03*
X78540000Y-137050000D03*
X71420000Y-132240000D03*
X69130000Y-132240000D03*
X82850000Y-132240000D03*
X80560000Y-132240000D03*
X93440000Y-138830000D03*
X92420000Y-137050000D03*
X95480000Y-138830000D03*
X94460000Y-137050000D03*
X97520000Y-138830000D03*
X96500000Y-137050000D03*
X99560000Y-138830000D03*
X98540000Y-137050000D03*
X91420000Y-132240000D03*
X89130000Y-132240000D03*
X102850000Y-132240000D03*
X100560000Y-132240000D03*
X115940000Y-138830000D03*
X114920000Y-137050000D03*
X117980000Y-138830000D03*
X116960000Y-137050000D03*
X120020000Y-138830000D03*
X119000000Y-137050000D03*
X122060000Y-138830000D03*
X121040000Y-137050000D03*
X113920000Y-132240000D03*
X111630000Y-132240000D03*
X125350000Y-132240000D03*
X123060000Y-132240000D03*
X135940000Y-138830000D03*
X134920000Y-137050000D03*
X137980000Y-138830000D03*
X136960000Y-137050000D03*
X140020000Y-138830000D03*
X139000000Y-137050000D03*
X142060000Y-138830000D03*
X141040000Y-137050000D03*
X133920000Y-132240000D03*
X131630000Y-132240000D03*
X145350000Y-132240000D03*
X143060000Y-132240000D03*
D12*
X124730000Y-112760000D03*
X124730000Y-110220000D03*
X127270000Y-112760000D03*
X127270000Y-110220000D03*
X129810000Y-112760000D03*
X129810000Y-110220000D03*
X132350000Y-112760000D03*
X132350000Y-110220000D03*
D13*
X71390000Y-101330000D03*
D14*
X71390000Y-111490000D03*
D13*
X73930000Y-101330000D03*
D14*
X73930000Y-111490000D03*
D12*
X80280000Y-101330000D03*
X85360000Y-101330000D03*
X90440000Y-101330000D03*
X95520000Y-101330000D03*
X120920000Y-101330000D03*
X126000000Y-101330000D03*
X131080000Y-101330000D03*
X136160000Y-101330000D03*
D15*
X62500000Y-114030000D03*
D16*
X65040000Y-114030000D03*
X62500000Y-116570000D03*
X65040000Y-116570000D03*
X62500000Y-119110000D03*
X65040000Y-119110000D03*
X62500000Y-121650000D03*
X65040000Y-121650000D03*
D17*
X105680000Y-101330000D03*
D13*
X108180000Y-101330000D03*
X105680000Y-106410000D03*
X108180000Y-106410000D03*
D15*
X151400000Y-121650000D03*
D16*
X148860000Y-121650000D03*
X151400000Y-119110000D03*
X148860000Y-119110000D03*
X151400000Y-116570000D03*
X148860000Y-116570000D03*
X151400000Y-114030000D03*
X148860000Y-114030000D03*
D11*
X73440000Y-88830000D03*
X72420000Y-87050000D03*
X75480000Y-88830000D03*
X74460000Y-87050000D03*
X77520000Y-88830000D03*
X76500000Y-87050000D03*
X79560000Y-88830000D03*
X78540000Y-87050000D03*
X71420000Y-82240000D03*
X69130000Y-82240000D03*
X82850000Y-82240000D03*
X80560000Y-82240000D03*
X93440000Y-88830000D03*
X92420000Y-87050000D03*
X95480000Y-88830000D03*
X94460000Y-87050000D03*
X97520000Y-88830000D03*
X96500000Y-87050000D03*
X99560000Y-88830000D03*
X98540000Y-87050000D03*
X91420000Y-82240000D03*
X89130000Y-82240000D03*
X102850000Y-82240000D03*
X100560000Y-82240000D03*
X115940000Y-88830000D03*
X114920000Y-87050000D03*
X117980000Y-88830000D03*
X116960000Y-87050000D03*
X120020000Y-88830000D03*
X119000000Y-87050000D03*
X122060000Y-88830000D03*
X121040000Y-87050000D03*
X113920000Y-82240000D03*
X111630000Y-82240000D03*
X125350000Y-82240000D03*
X123060000Y-82240000D03*
X135940000Y-88830000D03*
X134920000Y-87050000D03*
X137980000Y-88830000D03*
X136960000Y-87050000D03*
X140020000Y-88830000D03*
X139000000Y-87050000D03*
X142060000Y-88830000D03*
X141040000Y-87050000D03*
X133920000Y-82240000D03*
X131630000Y-82240000D03*
X145350000Y-82240000D03*
X143060000Y-82240000D03*
D12*
X124730000Y-62760000D03*
X124730000Y-60220000D03*
X127270000Y-62760000D03*
X127270000Y-60220000D03*
X129810000Y-62760000D03*
X129810000Y-60220000D03*
X132350000Y-62760000D03*
X132350000Y-60220000D03*
D13*
X71390000Y-51330000D03*
D14*
X71390000Y-61490000D03*
D13*
X73930000Y-51330000D03*
D14*
X73930000Y-61490000D03*
D12*
X80280000Y-51330000D03*
X85360000Y-51330000D03*
X90440000Y-51330000D03*
X95520000Y-51330000D03*
X120920000Y-51330000D03*
X126000000Y-51330000D03*
X131080000Y-51330000D03*
X136160000Y-51330000D03*
D15*
X62500000Y-64030000D03*
D16*
X65040000Y-64030000D03*
X62500000Y-66570000D03*
X65040000Y-66570000D03*
X62500000Y-69110000D03*
X65040000Y-69110000D03*
X62500000Y-71650000D03*
X65040000Y-71650000D03*
D17*
X105680000Y-51330000D03*
D13*
X108180000Y-51330000D03*
X105680000Y-56410000D03*
X108180000Y-56410000D03*
D15*
X151400000Y-71650000D03*
D16*
X148860000Y-71650000D03*
X151400000Y-69110000D03*
X148860000Y-69110000D03*
X151400000Y-66570000D03*
X148860000Y-66570000D03*
X151400000Y-64030000D03*
X148860000Y-64030000D03*
D18*
X81550000Y-116824000D03*
X124222000Y-116824000D03*
X111014000Y-116824000D03*
X88916000Y-116824000D03*
X81550000Y-66824000D03*
X124222000Y-66824000D03*
X111014000Y-66824000D03*
X88916000Y-66824000D03*
X82566000Y-117840000D03*
X132350000Y-117840000D03*
X120666000Y-117840000D03*
X98822000Y-117840000D03*
X82566000Y-67840000D03*
X132350000Y-67840000D03*
X120666000Y-67840000D03*
X98822000Y-67840000D03*
X80788000Y-115808000D03*
X121682000Y-115808000D03*
X107712000Y-115808000D03*
X85360000Y-115808000D03*
X80788000Y-65808000D03*
X121682000Y-65808000D03*
X107712000Y-65808000D03*
X85360000Y-65808000D03*
X83328000Y-118856000D03*
X134890000Y-118856000D03*
X121682000Y-118856000D03*
X99584000Y-118856000D03*
X83328000Y-68856000D03*
X134890000Y-68856000D03*
X121682000Y-68856000D03*
X99584000Y-68856000D03*
X80026000Y-114792000D03*
X119142000Y-114792000D03*
X105172000Y-114792000D03*
X82312000Y-114792000D03*
X80026000Y-64792000D03*
X119142000Y-64792000D03*
X105172000Y-64792000D03*
X82312000Y-64792000D03*
X84090000Y-119872000D03*
X131588000Y-119872000D03*
X137430000Y-119872000D03*
X122444000Y-119872000D03*
X100346000Y-119872000D03*
X84090000Y-69872000D03*
X131588000Y-69872000D03*
X137430000Y-69872000D03*
X122444000Y-69872000D03*
X100346000Y-69872000D03*
X84852000Y-120888000D03*
X130318000Y-120888000D03*
X139970000Y-120888000D03*
X123206000Y-120888000D03*
X101108000Y-120888000D03*
X84852000Y-70888000D03*
X130318000Y-70888000D03*
X139970000Y-70888000D03*
X123206000Y-70888000D03*
X101108000Y-70888000D03*
D19*
X90440000Y-111490000D02*
X90440000Y-115300000D01*
X90440000Y-115300000D02*
X88916000Y-116824000D01*
X73930000Y-111490000D02*
X90440000Y-111490000D01*
X95520000Y-106410000D02*
X95520000Y-101330000D01*
X90440000Y-111490000D02*
X95520000Y-106410000D01*
X67326000Y-131048000D02*
X81550000Y-116824000D01*
X73440000Y-138830000D02*
X71806000Y-138830000D01*
X67326000Y-132826000D02*
X67326000Y-131048000D01*
X70628000Y-136128000D02*
X67326000Y-132826000D01*
X70628000Y-137652000D02*
X70628000Y-136128000D01*
X71806000Y-138830000D02*
X70628000Y-137652000D01*
X129810000Y-131175000D02*
X129810000Y-122412000D01*
X135924000Y-138957000D02*
X134290000Y-138957000D01*
X129810000Y-132953000D02*
X129810000Y-131175000D01*
X133112000Y-136255000D02*
X129810000Y-132953000D01*
X133112000Y-137779000D02*
X133112000Y-136255000D01*
X134290000Y-138957000D02*
X133112000Y-137779000D01*
X129810000Y-122412000D02*
X124222000Y-116824000D01*
X109744000Y-131048000D02*
X109744000Y-118094000D01*
X114224000Y-138830000D02*
X113046000Y-137652000D01*
X113046000Y-137652000D02*
X113046000Y-136128000D01*
X113046000Y-136128000D02*
X109744000Y-132826000D01*
X109744000Y-132826000D02*
X109744000Y-131048000D01*
X115858000Y-138830000D02*
X114224000Y-138830000D01*
X109744000Y-118094000D02*
X111014000Y-116824000D01*
X87265000Y-131048000D02*
X87265000Y-118475000D01*
X87265000Y-118475000D02*
X88916000Y-116824000D01*
X91745000Y-138830000D02*
X90567000Y-137652000D01*
X90567000Y-137652000D02*
X90567000Y-136128000D01*
X90567000Y-136128000D02*
X87265000Y-132826000D01*
X87265000Y-132826000D02*
X87265000Y-131048000D01*
X87265000Y-131048000D02*
X87265000Y-131048000D01*
X93379000Y-138830000D02*
X91745000Y-138830000D01*
X90440000Y-61490000D02*
X90440000Y-65300000D01*
X90440000Y-65300000D02*
X88916000Y-66824000D01*
X73930000Y-61490000D02*
X90440000Y-61490000D01*
X95520000Y-56410000D02*
X95520000Y-51330000D01*
X90440000Y-61490000D02*
X95520000Y-56410000D01*
X67326000Y-81048000D02*
X81550000Y-66824000D01*
X73440000Y-88830000D02*
X71806000Y-88830000D01*
X67326000Y-82826000D02*
X67326000Y-81048000D01*
X70628000Y-86128000D02*
X67326000Y-82826000D01*
X70628000Y-87652000D02*
X70628000Y-86128000D01*
X71806000Y-88830000D02*
X70628000Y-87652000D01*
X129810000Y-81175000D02*
X129810000Y-72412000D01*
X135924000Y-88957000D02*
X134290000Y-88957000D01*
X129810000Y-82953000D02*
X129810000Y-81175000D01*
X133112000Y-86255000D02*
X129810000Y-82953000D01*
X133112000Y-87779000D02*
X133112000Y-86255000D01*
X134290000Y-88957000D02*
X133112000Y-87779000D01*
X129810000Y-72412000D02*
X124222000Y-66824000D01*
X109744000Y-81048000D02*
X109744000Y-68094000D01*
X114224000Y-88830000D02*
X113046000Y-87652000D01*
X113046000Y-87652000D02*
X113046000Y-86128000D01*
X113046000Y-86128000D02*
X109744000Y-82826000D01*
X109744000Y-82826000D02*
X109744000Y-81048000D01*
X115858000Y-88830000D02*
X114224000Y-88830000D01*
X109744000Y-68094000D02*
X111014000Y-66824000D01*
X87265000Y-81048000D02*
X87265000Y-68475000D01*
X87265000Y-68475000D02*
X88916000Y-66824000D01*
X91745000Y-88830000D02*
X90567000Y-87652000D01*
X90567000Y-87652000D02*
X90567000Y-86128000D01*
X90567000Y-86128000D02*
X87265000Y-82826000D01*
X87265000Y-82826000D02*
X87265000Y-81048000D01*
X87265000Y-81048000D02*
X87265000Y-81048000D01*
X93379000Y-88830000D02*
X91745000Y-88830000D01*
X148860000Y-114030000D02*
X151400000Y-114030000D01*
X132350000Y-112760000D02*
X147590000Y-112760000D01*
X147590000Y-112760000D02*
X148860000Y-114030000D01*
X73295000Y-131048000D02*
X73295000Y-127111000D01*
X73295000Y-127111000D02*
X82566000Y-117840000D01*
X132350000Y-112760000D02*
X132350000Y-117840000D01*
X135525000Y-131810000D02*
X135525000Y-121015000D01*
X135525000Y-121015000D02*
X132350000Y-117840000D01*
X134920000Y-137050000D02*
X134920000Y-133745000D01*
X135525000Y-133140000D02*
X135525000Y-131810000D01*
X134920000Y-133745000D02*
X135525000Y-133140000D01*
X115840000Y-131175000D02*
X115840000Y-122666000D01*
X114920000Y-134000000D02*
X115840000Y-133080000D01*
X115840000Y-133080000D02*
X115840000Y-131175000D01*
X114920000Y-137050000D02*
X114920000Y-134000000D01*
X115840000Y-122666000D02*
X120666000Y-117840000D01*
X92980000Y-131175000D02*
X92980000Y-123682000D01*
X92980000Y-123682000D02*
X98822000Y-117840000D01*
X92420000Y-133790000D02*
X92980000Y-133230000D01*
X92980000Y-133230000D02*
X92980000Y-131175000D01*
X92420000Y-137050000D02*
X92420000Y-133790000D01*
X132350000Y-112760000D02*
X132350000Y-110220000D01*
X136160000Y-101330000D02*
X136160000Y-106410000D01*
X136160000Y-106410000D02*
X132350000Y-110220000D01*
X72420000Y-137050000D02*
X72420000Y-133955000D01*
X73295000Y-133080000D02*
X73295000Y-131048000D01*
X73295000Y-131048000D02*
X73295000Y-131175000D01*
X72420000Y-133955000D02*
X73295000Y-133080000D01*
X148860000Y-64030000D02*
X151400000Y-64030000D01*
X132350000Y-62760000D02*
X147590000Y-62760000D01*
X147590000Y-62760000D02*
X148860000Y-64030000D01*
X73295000Y-81048000D02*
X73295000Y-77111000D01*
X73295000Y-77111000D02*
X82566000Y-67840000D01*
X132350000Y-62760000D02*
X132350000Y-67840000D01*
X135525000Y-81810000D02*
X135525000Y-71015000D01*
X135525000Y-71015000D02*
X132350000Y-67840000D01*
X134920000Y-87050000D02*
X134920000Y-83745000D01*
X135525000Y-83140000D02*
X135525000Y-81810000D01*
X134920000Y-83745000D02*
X135525000Y-83140000D01*
X115840000Y-81175000D02*
X115840000Y-72666000D01*
X114920000Y-84000000D02*
X115840000Y-83080000D01*
X115840000Y-83080000D02*
X115840000Y-81175000D01*
X114920000Y-87050000D02*
X114920000Y-84000000D01*
X115840000Y-72666000D02*
X120666000Y-67840000D01*
X92980000Y-81175000D02*
X92980000Y-73682000D01*
X92980000Y-73682000D02*
X98822000Y-67840000D01*
X92420000Y-83790000D02*
X92980000Y-83230000D01*
X92980000Y-83230000D02*
X92980000Y-81175000D01*
X92420000Y-87050000D02*
X92420000Y-83790000D01*
X132350000Y-62760000D02*
X132350000Y-60220000D01*
X136160000Y-51330000D02*
X136160000Y-56410000D01*
X136160000Y-56410000D02*
X132350000Y-60220000D01*
X72420000Y-87050000D02*
X72420000Y-83955000D01*
X73295000Y-83080000D02*
X73295000Y-81048000D01*
X73295000Y-81048000D02*
X73295000Y-81175000D01*
X72420000Y-83955000D02*
X73295000Y-83080000D01*
X73930000Y-101330000D02*
X77740000Y-105140000D01*
X77740000Y-105140000D02*
X89170000Y-105140000D01*
X71390000Y-101330000D02*
X73930000Y-101330000D01*
X90440000Y-101330000D02*
X92218000Y-99552000D01*
X101108000Y-101330000D02*
X105680000Y-101330000D01*
X99330000Y-99552000D02*
X101108000Y-101330000D01*
X92218000Y-99552000D02*
X99330000Y-99552000D01*
X105680000Y-106410000D02*
X105680000Y-110728000D01*
X107712000Y-112760000D02*
X107712000Y-115808000D01*
X105680000Y-110728000D02*
X107712000Y-112760000D01*
X105680000Y-101330000D02*
X105680000Y-106410000D01*
X66564000Y-131048000D02*
X66564000Y-130032000D01*
X66564000Y-130032000D02*
X80788000Y-115808000D01*
X75480000Y-139912000D02*
X75200000Y-140192000D01*
X75200000Y-140192000D02*
X72152000Y-140192000D01*
X72152000Y-140192000D02*
X69866000Y-137906000D01*
X69866000Y-137906000D02*
X69866000Y-136382000D01*
X69866000Y-136382000D02*
X66564000Y-133080000D01*
X66564000Y-133080000D02*
X66564000Y-131048000D01*
X75480000Y-138830000D02*
X75480000Y-139912000D01*
X129048000Y-131175000D02*
X129048000Y-123174000D01*
X129048000Y-123174000D02*
X121682000Y-115808000D01*
X137964000Y-140039000D02*
X137684000Y-140319000D01*
X137684000Y-140319000D02*
X134636000Y-140319000D01*
X134636000Y-140319000D02*
X132350000Y-138033000D01*
X132350000Y-138033000D02*
X132350000Y-136509000D01*
X132350000Y-136509000D02*
X129048000Y-133207000D01*
X129048000Y-133207000D02*
X129048000Y-131175000D01*
X137964000Y-138957000D02*
X137964000Y-140039000D01*
X108982000Y-131048000D02*
X108982000Y-117078000D01*
X108982000Y-117078000D02*
X107712000Y-115808000D01*
X117898000Y-138830000D02*
X117898000Y-139912000D01*
X108982000Y-133080000D02*
X108982000Y-131048000D01*
X112284000Y-136382000D02*
X108982000Y-133080000D01*
X112284000Y-137906000D02*
X112284000Y-136382000D01*
X114570000Y-140192000D02*
X112284000Y-137906000D01*
X117618000Y-140192000D02*
X114570000Y-140192000D01*
X117898000Y-139912000D02*
X117618000Y-140192000D01*
X86503000Y-131048000D02*
X86503000Y-116951000D01*
X95419000Y-138830000D02*
X95419000Y-139912000D01*
X86503000Y-133080000D02*
X86503000Y-131048000D01*
X89805000Y-136382000D02*
X86503000Y-133080000D01*
X89805000Y-137906000D02*
X89805000Y-136382000D01*
X92091000Y-140192000D02*
X89805000Y-137906000D01*
X95139000Y-140192000D02*
X92091000Y-140192000D01*
X95419000Y-139912000D02*
X95139000Y-140192000D01*
X86503000Y-116951000D02*
X85360000Y-115808000D01*
X90440000Y-101330000D02*
X90440000Y-103870000D01*
X90440000Y-103870000D02*
X89170000Y-105140000D01*
X73930000Y-51330000D02*
X77740000Y-55140000D01*
X77740000Y-55140000D02*
X89170000Y-55140000D01*
X71390000Y-51330000D02*
X73930000Y-51330000D01*
X90440000Y-51330000D02*
X92218000Y-49552000D01*
X101108000Y-51330000D02*
X105680000Y-51330000D01*
X99330000Y-49552000D02*
X101108000Y-51330000D01*
X92218000Y-49552000D02*
X99330000Y-49552000D01*
X105680000Y-56410000D02*
X105680000Y-60728000D01*
X107712000Y-62760000D02*
X107712000Y-65808000D01*
X105680000Y-60728000D02*
X107712000Y-62760000D01*
X105680000Y-51330000D02*
X105680000Y-56410000D01*
X66564000Y-81048000D02*
X66564000Y-80032000D01*
X66564000Y-80032000D02*
X80788000Y-65808000D01*
X75480000Y-89912000D02*
X75200000Y-90192000D01*
X75200000Y-90192000D02*
X72152000Y-90192000D01*
X72152000Y-90192000D02*
X69866000Y-87906000D01*
X69866000Y-87906000D02*
X69866000Y-86382000D01*
X69866000Y-86382000D02*
X66564000Y-83080000D01*
X66564000Y-83080000D02*
X66564000Y-81048000D01*
X75480000Y-88830000D02*
X75480000Y-89912000D01*
X129048000Y-81175000D02*
X129048000Y-73174000D01*
X129048000Y-73174000D02*
X121682000Y-65808000D01*
X137964000Y-90039000D02*
X137684000Y-90319000D01*
X137684000Y-90319000D02*
X134636000Y-90319000D01*
X134636000Y-90319000D02*
X132350000Y-88033000D01*
X132350000Y-88033000D02*
X132350000Y-86509000D01*
X132350000Y-86509000D02*
X129048000Y-83207000D01*
X129048000Y-83207000D02*
X129048000Y-81175000D01*
X137964000Y-88957000D02*
X137964000Y-90039000D01*
X108982000Y-81048000D02*
X108982000Y-67078000D01*
X108982000Y-67078000D02*
X107712000Y-65808000D01*
X117898000Y-88830000D02*
X117898000Y-89912000D01*
X108982000Y-83080000D02*
X108982000Y-81048000D01*
X112284000Y-86382000D02*
X108982000Y-83080000D01*
X112284000Y-87906000D02*
X112284000Y-86382000D01*
X114570000Y-90192000D02*
X112284000Y-87906000D01*
X117618000Y-90192000D02*
X114570000Y-90192000D01*
X117898000Y-89912000D02*
X117618000Y-90192000D01*
X86503000Y-81048000D02*
X86503000Y-66951000D01*
X95419000Y-88830000D02*
X95419000Y-89912000D01*
X86503000Y-83080000D02*
X86503000Y-81048000D01*
X89805000Y-86382000D02*
X86503000Y-83080000D01*
X89805000Y-87906000D02*
X89805000Y-86382000D01*
X92091000Y-90192000D02*
X89805000Y-87906000D01*
X95139000Y-90192000D02*
X92091000Y-90192000D01*
X95419000Y-89912000D02*
X95139000Y-90192000D01*
X86503000Y-66951000D02*
X85360000Y-65808000D01*
X90440000Y-51330000D02*
X90440000Y-53870000D01*
X90440000Y-53870000D02*
X89170000Y-55140000D01*
X74460000Y-131302000D02*
X74460000Y-127724000D01*
X74460000Y-127724000D02*
X83328000Y-118856000D01*
X136960000Y-131645000D02*
X136960000Y-120926000D01*
X136960000Y-137050000D02*
X136960000Y-131645000D01*
X136960000Y-120926000D02*
X134890000Y-118856000D01*
X116960000Y-131325000D02*
X116960000Y-123578000D01*
X116960000Y-137050000D02*
X116960000Y-131325000D01*
X116960000Y-123578000D02*
X121682000Y-118856000D01*
X94460000Y-130965000D02*
X94460000Y-123980000D01*
X94460000Y-123980000D02*
X99584000Y-118856000D01*
X94460000Y-137050000D02*
X94460000Y-130965000D01*
X129810000Y-112760000D02*
X129810000Y-110220000D01*
X129810000Y-110220000D02*
X129810000Y-102600000D01*
X129810000Y-102600000D02*
X131080000Y-101330000D01*
X74460000Y-137050000D02*
X74460000Y-131302000D01*
X74460000Y-131302000D02*
X74460000Y-131280000D01*
X74460000Y-81302000D02*
X74460000Y-77724000D01*
X74460000Y-77724000D02*
X83328000Y-68856000D01*
X136960000Y-81645000D02*
X136960000Y-70926000D01*
X136960000Y-87050000D02*
X136960000Y-81645000D01*
X136960000Y-70926000D02*
X134890000Y-68856000D01*
X116960000Y-81325000D02*
X116960000Y-73578000D01*
X116960000Y-87050000D02*
X116960000Y-81325000D01*
X116960000Y-73578000D02*
X121682000Y-68856000D01*
X94460000Y-80965000D02*
X94460000Y-73980000D01*
X94460000Y-73980000D02*
X99584000Y-68856000D01*
X94460000Y-87050000D02*
X94460000Y-80965000D01*
X129810000Y-62760000D02*
X129810000Y-60220000D01*
X129810000Y-60220000D02*
X129810000Y-52600000D01*
X129810000Y-52600000D02*
X131080000Y-51330000D01*
X74460000Y-87050000D02*
X74460000Y-81302000D01*
X74460000Y-81302000D02*
X74460000Y-81280000D01*
X71390000Y-111490000D02*
X71390000Y-114030000D01*
X71390000Y-114030000D02*
X73930000Y-116570000D01*
X65040000Y-116570000D02*
X73930000Y-116570000D01*
X73930000Y-116570000D02*
X74184000Y-116570000D01*
X75962000Y-114792000D02*
X80026000Y-114792000D01*
X74184000Y-116570000D02*
X75962000Y-114792000D01*
X62500000Y-116570000D02*
X65040000Y-116570000D01*
X65963998Y-131048000D02*
X65963998Y-128854002D01*
X65963998Y-128854002D02*
X80026000Y-114792000D01*
X77520000Y-141682000D02*
X75708000Y-143494000D01*
X75708000Y-143494000D02*
X68850000Y-143494000D01*
X68850000Y-143494000D02*
X65963998Y-140607998D01*
X65963998Y-140607998D02*
X65963998Y-131048000D01*
X77520000Y-138830000D02*
X77520000Y-141682000D01*
X128447998Y-131175000D02*
X128447998Y-124097998D01*
X128447998Y-124097998D02*
X119142000Y-114792000D01*
X140004000Y-141809000D02*
X138192000Y-143621000D01*
X138192000Y-143621000D02*
X131334000Y-143621000D01*
X131334000Y-143621000D02*
X128447998Y-140734998D01*
X128447998Y-140734998D02*
X128447998Y-131175000D01*
X140004000Y-138957000D02*
X140004000Y-141809000D01*
X108381998Y-131048000D02*
X108381998Y-118001998D01*
X108381998Y-118001998D02*
X105172000Y-114792000D01*
X119938000Y-138830000D02*
X119938000Y-141682000D01*
X108381998Y-140607998D02*
X108381998Y-131048000D01*
X111268000Y-143494000D02*
X108381998Y-140607998D01*
X118126000Y-143494000D02*
X111268000Y-143494000D01*
X119938000Y-141682000D02*
X118126000Y-143494000D01*
X85902998Y-131048000D02*
X85902998Y-118382998D01*
X97459000Y-138830000D02*
X97459000Y-141682000D01*
X85902998Y-140607998D02*
X85902998Y-131048000D01*
X88789000Y-143494000D02*
X85902998Y-140607998D01*
X95647000Y-143494000D02*
X88789000Y-143494000D01*
X97459000Y-141682000D02*
X95647000Y-143494000D01*
X85902998Y-118382998D02*
X82312000Y-114792000D01*
X71390000Y-61490000D02*
X71390000Y-64030000D01*
X71390000Y-64030000D02*
X73930000Y-66570000D01*
X65040000Y-66570000D02*
X73930000Y-66570000D01*
X73930000Y-66570000D02*
X74184000Y-66570000D01*
X75962000Y-64792000D02*
X80026000Y-64792000D01*
X74184000Y-66570000D02*
X75962000Y-64792000D01*
X62500000Y-66570000D02*
X65040000Y-66570000D01*
X65963998Y-81048000D02*
X65963998Y-78854002D01*
X65963998Y-78854002D02*
X80026000Y-64792000D01*
X77520000Y-91682000D02*
X75708000Y-93494000D01*
X75708000Y-93494000D02*
X68850000Y-93494000D01*
X68850000Y-93494000D02*
X65963998Y-90607998D01*
X65963998Y-90607998D02*
X65963998Y-81048000D01*
X77520000Y-88830000D02*
X77520000Y-91682000D01*
X128447998Y-81175000D02*
X128447998Y-74097998D01*
X128447998Y-74097998D02*
X119142000Y-64792000D01*
X140004000Y-91809000D02*
X138192000Y-93621000D01*
X138192000Y-93621000D02*
X131334000Y-93621000D01*
X131334000Y-93621000D02*
X128447998Y-90734998D01*
X128447998Y-90734998D02*
X128447998Y-81175000D01*
X140004000Y-88957000D02*
X140004000Y-91809000D01*
X108381998Y-81048000D02*
X108381998Y-68001998D01*
X108381998Y-68001998D02*
X105172000Y-64792000D01*
X119938000Y-88830000D02*
X119938000Y-91682000D01*
X108381998Y-90607998D02*
X108381998Y-81048000D01*
X111268000Y-93494000D02*
X108381998Y-90607998D01*
X118126000Y-93494000D02*
X111268000Y-93494000D01*
X119938000Y-91682000D02*
X118126000Y-93494000D01*
X85902998Y-81048000D02*
X85902998Y-68382998D01*
X97459000Y-88830000D02*
X97459000Y-91682000D01*
X85902998Y-90607998D02*
X85902998Y-81048000D01*
X88789000Y-93494000D02*
X85902998Y-90607998D01*
X95647000Y-93494000D02*
X88789000Y-93494000D01*
X97459000Y-91682000D02*
X95647000Y-93494000D01*
X85902998Y-68382998D02*
X82312000Y-64792000D01*
X76500000Y-131145000D02*
X76500000Y-127462000D01*
X76500000Y-137050000D02*
X76500000Y-131145000D01*
X76500000Y-127462000D02*
X84090000Y-119872000D01*
X127270000Y-112760000D02*
X127270000Y-115554000D01*
X127270000Y-115554000D02*
X131588000Y-119872000D01*
X139000000Y-131510000D02*
X139000000Y-121442000D01*
X139000000Y-121442000D02*
X137430000Y-119872000D01*
X139000000Y-137050000D02*
X139000000Y-131510000D01*
X119000000Y-131190000D02*
X119000000Y-123316000D01*
X119000000Y-137050000D02*
X119000000Y-131190000D01*
X119000000Y-123316000D02*
X122444000Y-119872000D01*
X96500000Y-130830000D02*
X96500000Y-123718000D01*
X96500000Y-137050000D02*
X96500000Y-130830000D01*
X96500000Y-123718000D02*
X100346000Y-119872000D01*
X127270000Y-110220000D02*
X127270000Y-112760000D01*
X127270000Y-110220000D02*
X127270000Y-102600000D01*
X127270000Y-102600000D02*
X126000000Y-101330000D01*
X76500000Y-81145000D02*
X76500000Y-77462000D01*
X76500000Y-87050000D02*
X76500000Y-81145000D01*
X76500000Y-77462000D02*
X84090000Y-69872000D01*
X127270000Y-62760000D02*
X127270000Y-65554000D01*
X127270000Y-65554000D02*
X131588000Y-69872000D01*
X139000000Y-81510000D02*
X139000000Y-71442000D01*
X139000000Y-71442000D02*
X137430000Y-69872000D01*
X139000000Y-87050000D02*
X139000000Y-81510000D01*
X119000000Y-81190000D02*
X119000000Y-73316000D01*
X119000000Y-87050000D02*
X119000000Y-81190000D01*
X119000000Y-73316000D02*
X122444000Y-69872000D01*
X96500000Y-80830000D02*
X96500000Y-73718000D01*
X96500000Y-87050000D02*
X96500000Y-80830000D01*
X96500000Y-73718000D02*
X100346000Y-69872000D01*
X127270000Y-60220000D02*
X127270000Y-62760000D01*
X127270000Y-60220000D02*
X127270000Y-52600000D01*
X127270000Y-52600000D02*
X126000000Y-51330000D01*
X78540000Y-131175000D02*
X78540000Y-127200000D01*
X78540000Y-127200000D02*
X84852000Y-120888000D01*
X124730000Y-112760000D02*
X124730000Y-115300000D01*
X124730000Y-115300000D02*
X130318000Y-120888000D01*
X141040000Y-131375000D02*
X141040000Y-121958000D01*
X141040000Y-121958000D02*
X139970000Y-120888000D01*
X141040000Y-137050000D02*
X141040000Y-131375000D01*
X121040000Y-131055000D02*
X121040000Y-123054000D01*
X121040000Y-137050000D02*
X121040000Y-131055000D01*
X121040000Y-123054000D02*
X123206000Y-120888000D01*
X98540000Y-131330000D02*
X98540000Y-123456000D01*
X98540000Y-123456000D02*
X101108000Y-120888000D01*
X98540000Y-137050000D02*
X98540000Y-131330000D01*
X124730000Y-110220000D02*
X124730000Y-112760000D01*
X120920000Y-101330000D02*
X120920000Y-106410000D01*
X120920000Y-106410000D02*
X124730000Y-110220000D01*
X78540000Y-137050000D02*
X78540000Y-131175000D01*
X78540000Y-131175000D02*
X78540000Y-131048000D01*
X78540000Y-131048000D02*
X78540000Y-131010000D01*
X78540000Y-81175000D02*
X78540000Y-77200000D01*
X78540000Y-77200000D02*
X84852000Y-70888000D01*
X124730000Y-62760000D02*
X124730000Y-65300000D01*
X124730000Y-65300000D02*
X130318000Y-70888000D01*
X141040000Y-81375000D02*
X141040000Y-71958000D01*
X141040000Y-71958000D02*
X139970000Y-70888000D01*
X141040000Y-87050000D02*
X141040000Y-81375000D01*
X121040000Y-81055000D02*
X121040000Y-73054000D01*
X121040000Y-87050000D02*
X121040000Y-81055000D01*
X121040000Y-73054000D02*
X123206000Y-70888000D01*
X98540000Y-81330000D02*
X98540000Y-73456000D01*
X98540000Y-73456000D02*
X101108000Y-70888000D01*
X98540000Y-87050000D02*
X98540000Y-81330000D01*
X124730000Y-60220000D02*
X124730000Y-62760000D01*
X120920000Y-51330000D02*
X120920000Y-56410000D01*
X120920000Y-56410000D02*
X124730000Y-60220000D01*
X78540000Y-87050000D02*
X78540000Y-81175000D01*
X78540000Y-81175000D02*
X78540000Y-81048000D01*
X78540000Y-81048000D02*
X78540000Y-81010000D01*
D20*
G36*
X156710000Y-146340000D02*
X58130000Y-146340000D01*
X58130000Y-142050000D01*
X60243173Y-142050000D01*
X60405690Y-142867029D01*
X60868500Y-143559673D01*
X61561144Y-144022483D01*
X62378173Y-144185000D01*
X62461827Y-144185000D01*
X63278856Y-144022483D01*
X63971500Y-143559673D01*
X64434310Y-142867029D01*
X64596827Y-142050000D01*
X64434310Y-141232971D01*
X63971500Y-140540327D01*
X63278856Y-140077517D01*
X62461827Y-139915000D01*
X62378173Y-139915000D01*
X61561144Y-140077517D01*
X60868500Y-140540327D01*
X60405690Y-141232971D01*
X60243173Y-142050000D01*
X58130000Y-142050000D01*
X58130000Y-116570000D01*
X60985907Y-116570000D01*
X61098946Y-117138285D01*
X61420853Y-117620054D01*
X61750026Y-117840000D01*
X61420853Y-118059946D01*
X61098946Y-118541715D01*
X60985907Y-119110000D01*
X61098946Y-119678285D01*
X61420853Y-120160054D01*
X61750026Y-120380000D01*
X61420853Y-120599946D01*
X61098946Y-121081715D01*
X60985907Y-121650000D01*
X61098946Y-122218285D01*
X61420853Y-122700054D01*
X61902622Y-123021961D01*
X62470907Y-123135000D01*
X62529093Y-123135000D01*
X63097378Y-123021961D01*
X63579147Y-122700054D01*
X63770000Y-122414422D01*
X63960853Y-122700054D01*
X64442622Y-123021961D01*
X65010907Y-123135000D01*
X65069093Y-123135000D01*
X65637378Y-123021961D01*
X66119147Y-122700054D01*
X66441054Y-122218285D01*
X66554093Y-121650000D01*
X66441054Y-121081715D01*
X66119147Y-120599946D01*
X65789974Y-120380000D01*
X66119147Y-120160054D01*
X66441054Y-119678285D01*
X66554093Y-119110000D01*
X66441054Y-118541715D01*
X66119147Y-118059946D01*
X65789974Y-117840000D01*
X66119147Y-117620054D01*
X66262841Y-117405000D01*
X74184000Y-117405000D01*
X74503541Y-117341439D01*
X74774434Y-117160434D01*
X76307868Y-115627000D01*
X78010132Y-115627000D01*
X65373564Y-128263568D01*
X65192559Y-128534461D01*
X65128998Y-128854002D01*
X65128998Y-140607998D01*
X65192559Y-140927539D01*
X65373564Y-141198432D01*
X68259566Y-144084434D01*
X68530459Y-144265439D01*
X68850000Y-144329000D01*
X75708000Y-144329000D01*
X76027541Y-144265439D01*
X76298434Y-144084434D01*
X78110434Y-142272434D01*
X78206581Y-142128540D01*
X78291439Y-142001541D01*
X78355000Y-141682000D01*
X78355000Y-140145857D01*
X78388371Y-140132068D01*
X78520421Y-140000249D01*
X78544890Y-140024718D01*
X78659447Y-139910161D01*
X78745852Y-140166643D01*
X79319336Y-140376458D01*
X79929460Y-140350839D01*
X80374148Y-140166643D01*
X80460553Y-139910161D01*
X80531951Y-139981559D01*
X80425182Y-140088141D01*
X80080393Y-140918486D01*
X80079609Y-141817570D01*
X80422948Y-142648515D01*
X81058141Y-143284818D01*
X81888486Y-143629607D01*
X82787570Y-143630391D01*
X83618515Y-143287052D01*
X84254818Y-142651859D01*
X84599607Y-141821514D01*
X84600391Y-140922430D01*
X84257052Y-140091485D01*
X83621859Y-139455182D01*
X82791514Y-139110393D01*
X81892430Y-139109609D01*
X81061485Y-139452948D01*
X80912000Y-139602172D01*
X81106458Y-139070664D01*
X81080839Y-138460540D01*
X80896643Y-138015852D01*
X80640159Y-137929446D01*
X79739605Y-138830000D01*
X79753748Y-138844143D01*
X79574143Y-139023748D01*
X79560000Y-139009605D01*
X79545858Y-139023748D01*
X79366253Y-138844143D01*
X79380395Y-138830000D01*
X79366253Y-138815858D01*
X79545858Y-138636253D01*
X79560000Y-138650395D01*
X80460554Y-137749841D01*
X80374148Y-137493357D01*
X80064949Y-137380233D01*
X80074733Y-137356670D01*
X80075265Y-136746009D01*
X79842068Y-136181629D01*
X79410643Y-135749449D01*
X79375000Y-135734649D01*
X79375000Y-133225644D01*
X79689357Y-133540551D01*
X80253330Y-133774733D01*
X80863991Y-133775265D01*
X81428371Y-133542068D01*
X81705104Y-133265818D01*
X81979357Y-133540551D01*
X82543330Y-133774733D01*
X83153991Y-133775265D01*
X83718371Y-133542068D01*
X84150551Y-133110643D01*
X84384733Y-132546670D01*
X84385265Y-131936009D01*
X84152068Y-131371629D01*
X83720643Y-130939449D01*
X83156670Y-130705267D01*
X82546009Y-130704735D01*
X81981629Y-130937932D01*
X81704896Y-131214182D01*
X81430643Y-130939449D01*
X80866670Y-130705267D01*
X80256009Y-130704735D01*
X79691629Y-130937932D01*
X79375000Y-131254008D01*
X79375000Y-127545868D01*
X84897827Y-122023041D01*
X85067998Y-122023189D01*
X85067998Y-136586939D01*
X84990643Y-136509449D01*
X84426670Y-136275267D01*
X83816009Y-136274735D01*
X83251629Y-136507932D01*
X82819449Y-136939357D01*
X82585267Y-137503330D01*
X82584735Y-138113991D01*
X82817932Y-138678371D01*
X83249357Y-139110551D01*
X83813330Y-139344733D01*
X84423991Y-139345265D01*
X84988371Y-139112068D01*
X85067998Y-139032580D01*
X85067998Y-140607998D01*
X85131559Y-140927539D01*
X85312564Y-141198432D01*
X88198566Y-144084434D01*
X88469459Y-144265439D01*
X88789000Y-144329000D01*
X95647000Y-144329000D01*
X95966541Y-144265439D01*
X96237434Y-144084434D01*
X98049434Y-142272434D01*
X98145581Y-142128540D01*
X98230439Y-142001541D01*
X98294000Y-141682000D01*
X98294000Y-140171061D01*
X98388371Y-140132068D01*
X98520421Y-140000249D01*
X98544890Y-140024718D01*
X98659447Y-139910161D01*
X98745852Y-140166643D01*
X99319336Y-140376458D01*
X99929460Y-140350839D01*
X100374148Y-140166643D01*
X100460553Y-139910161D01*
X100531951Y-139981559D01*
X100425182Y-140088141D01*
X100080393Y-140918486D01*
X100079609Y-141817570D01*
X100422948Y-142648515D01*
X101058141Y-143284818D01*
X101888486Y-143629607D01*
X102787570Y-143630391D01*
X103618515Y-143287052D01*
X104254818Y-142651859D01*
X104599607Y-141821514D01*
X104600391Y-140922430D01*
X104257052Y-140091485D01*
X103621859Y-139455182D01*
X102791514Y-139110393D01*
X101892430Y-139109609D01*
X101061485Y-139452948D01*
X100912000Y-139602172D01*
X101106458Y-139070664D01*
X101080839Y-138460540D01*
X100937294Y-138113991D01*
X102584735Y-138113991D01*
X102817932Y-138678371D01*
X103249357Y-139110551D01*
X103813330Y-139344733D01*
X104423991Y-139345265D01*
X104988371Y-139112068D01*
X105420551Y-138680643D01*
X105654733Y-138116670D01*
X105655265Y-137506009D01*
X105422068Y-136941629D01*
X104990643Y-136509449D01*
X104426670Y-136275267D01*
X103816009Y-136274735D01*
X103251629Y-136507932D01*
X102819449Y-136939357D01*
X102585267Y-137503330D01*
X102584735Y-138113991D01*
X100937294Y-138113991D01*
X100896643Y-138015852D01*
X100640159Y-137929446D01*
X99739605Y-138830000D01*
X99753748Y-138844143D01*
X99574143Y-139023748D01*
X99560000Y-139009605D01*
X99545858Y-139023748D01*
X99366253Y-138844143D01*
X99380395Y-138830000D01*
X99366253Y-138815858D01*
X99545858Y-138636253D01*
X99560000Y-138650395D01*
X100460554Y-137749841D01*
X100374148Y-137493357D01*
X100064949Y-137380233D01*
X100074733Y-137356670D01*
X100075265Y-136746009D01*
X99842068Y-136181629D01*
X99410643Y-135749449D01*
X99375000Y-135734649D01*
X99375000Y-133225644D01*
X99689357Y-133540551D01*
X100253330Y-133774733D01*
X100863991Y-133775265D01*
X101428371Y-133542068D01*
X101705104Y-133265818D01*
X101979357Y-133540551D01*
X102543330Y-133774733D01*
X103153991Y-133775265D01*
X103718371Y-133542068D01*
X104150551Y-133110643D01*
X104384733Y-132546670D01*
X104385265Y-131936009D01*
X104152068Y-131371629D01*
X103720643Y-130939449D01*
X103156670Y-130705267D01*
X102546009Y-130704735D01*
X101981629Y-130937932D01*
X101704896Y-131214182D01*
X101430643Y-130939449D01*
X100866670Y-130705267D01*
X100256009Y-130704735D01*
X99691629Y-130937932D01*
X99375000Y-131254008D01*
X99375000Y-123801868D01*
X101153827Y-122023041D01*
X101332775Y-122023197D01*
X101750086Y-121850767D01*
X102069645Y-121531765D01*
X102242803Y-121114756D01*
X102243197Y-120663225D01*
X102070767Y-120245914D01*
X101751765Y-119926355D01*
X101481052Y-119813944D01*
X101481197Y-119647225D01*
X101308767Y-119229914D01*
X100989765Y-118910355D01*
X100719052Y-118797944D01*
X100719197Y-118631225D01*
X100546767Y-118213914D01*
X100227765Y-117894355D01*
X99957052Y-117781944D01*
X99957197Y-117615225D01*
X99784767Y-117197914D01*
X99465765Y-116878355D01*
X99048756Y-116705197D01*
X98597225Y-116704803D01*
X98179914Y-116877233D01*
X97860355Y-117196235D01*
X97687197Y-117613244D01*
X97687039Y-117794093D01*
X92389566Y-123091566D01*
X92208561Y-123362459D01*
X92145000Y-123682000D01*
X92145000Y-130878973D01*
X91726670Y-130705267D01*
X91116009Y-130704735D01*
X90551629Y-130937932D01*
X90274896Y-131214182D01*
X90000643Y-130939449D01*
X89436670Y-130705267D01*
X88826009Y-130704735D01*
X88261629Y-130937932D01*
X88100000Y-131099279D01*
X88100000Y-118820868D01*
X88961827Y-117959041D01*
X89140775Y-117959197D01*
X89558086Y-117786767D01*
X89877645Y-117467765D01*
X90050803Y-117050756D01*
X90050961Y-116869907D01*
X91030434Y-115890434D01*
X91049945Y-115861233D01*
X91211439Y-115619541D01*
X91275000Y-115300000D01*
X91275000Y-111835868D01*
X96110434Y-107000434D01*
X96291439Y-106729541D01*
X96355000Y-106410000D01*
X96355000Y-102754058D01*
X96444943Y-102716894D01*
X96905278Y-102257363D01*
X97154716Y-101656648D01*
X97155284Y-101006205D01*
X96906894Y-100405057D01*
X96888869Y-100387000D01*
X98984132Y-100387000D01*
X100517566Y-101920434D01*
X100788460Y-102101440D01*
X101108000Y-102165000D01*
X104239146Y-102165000D01*
X104276838Y-102365317D01*
X104415910Y-102581441D01*
X104628110Y-102726431D01*
X104845000Y-102770352D01*
X104845000Y-105215917D01*
X104464176Y-105596077D01*
X104245250Y-106123309D01*
X104244752Y-106694187D01*
X104462757Y-107221800D01*
X104845000Y-107604710D01*
X104845000Y-110728000D01*
X104908561Y-111047541D01*
X104990693Y-111170460D01*
X105089566Y-111318434D01*
X106877000Y-113105868D01*
X106877000Y-115037811D01*
X106750355Y-115164235D01*
X106742946Y-115182078D01*
X106307041Y-114746173D01*
X106307197Y-114567225D01*
X106134767Y-114149914D01*
X105815765Y-113830355D01*
X105398756Y-113657197D01*
X104947225Y-113656803D01*
X104529914Y-113829233D01*
X104210355Y-114148235D01*
X104037197Y-114565244D01*
X104036803Y-115016775D01*
X104209233Y-115434086D01*
X104528235Y-115753645D01*
X104945244Y-115926803D01*
X105126093Y-115926961D01*
X107546998Y-118347866D01*
X107546998Y-140607998D01*
X107610559Y-140927539D01*
X107791564Y-141198432D01*
X110677566Y-144084434D01*
X110948459Y-144265439D01*
X111268000Y-144329000D01*
X118126000Y-144329000D01*
X118445541Y-144265439D01*
X118716434Y-144084434D01*
X120528434Y-142272434D01*
X120624581Y-142128540D01*
X120709439Y-142001541D01*
X120773000Y-141682000D01*
X120773000Y-140179738D01*
X120888371Y-140132068D01*
X121020421Y-140000249D01*
X121044890Y-140024718D01*
X121159447Y-139910161D01*
X121245852Y-140166643D01*
X121819336Y-140376458D01*
X122429460Y-140350839D01*
X122874148Y-140166643D01*
X122960553Y-139910161D01*
X123031951Y-139981559D01*
X122925182Y-140088141D01*
X122580393Y-140918486D01*
X122579609Y-141817570D01*
X122922948Y-142648515D01*
X123558141Y-143284818D01*
X124388486Y-143629607D01*
X125287570Y-143630391D01*
X126118515Y-143287052D01*
X126754818Y-142651859D01*
X127099607Y-141821514D01*
X127100391Y-140922430D01*
X126757052Y-140091485D01*
X126121859Y-139455182D01*
X125291514Y-139110393D01*
X124392430Y-139109609D01*
X123561485Y-139452948D01*
X123412000Y-139602172D01*
X123606458Y-139070664D01*
X123580839Y-138460540D01*
X123396643Y-138015852D01*
X123140159Y-137929446D01*
X122239605Y-138830000D01*
X122253748Y-138844143D01*
X122074143Y-139023748D01*
X122060000Y-139009605D01*
X122045858Y-139023748D01*
X121866253Y-138844143D01*
X121880395Y-138830000D01*
X121866253Y-138815858D01*
X122045858Y-138636253D01*
X122060000Y-138650395D01*
X122960554Y-137749841D01*
X122874148Y-137493357D01*
X122564949Y-137380233D01*
X122574733Y-137356670D01*
X122575265Y-136746009D01*
X122342068Y-136181629D01*
X121910643Y-135749449D01*
X121875000Y-135734649D01*
X121875000Y-133225644D01*
X122189357Y-133540551D01*
X122753330Y-133774733D01*
X123363991Y-133775265D01*
X123928371Y-133542068D01*
X124205104Y-133265818D01*
X124479357Y-133540551D01*
X125043330Y-133774733D01*
X125653991Y-133775265D01*
X126218371Y-133542068D01*
X126650551Y-133110643D01*
X126884733Y-132546670D01*
X126885265Y-131936009D01*
X126652068Y-131371629D01*
X126220643Y-130939449D01*
X125656670Y-130705267D01*
X125046009Y-130704735D01*
X124481629Y-130937932D01*
X124204896Y-131214182D01*
X123930643Y-130939449D01*
X123366670Y-130705267D01*
X122756009Y-130704735D01*
X122191629Y-130937932D01*
X121875000Y-131254008D01*
X121875000Y-123399868D01*
X123251827Y-122023041D01*
X123430775Y-122023197D01*
X123848086Y-121850767D01*
X124167645Y-121531765D01*
X124324104Y-121154972D01*
X127612998Y-124443866D01*
X127612998Y-136632018D01*
X127490643Y-136509449D01*
X126926670Y-136275267D01*
X126316009Y-136274735D01*
X125751629Y-136507932D01*
X125319449Y-136939357D01*
X125085267Y-137503330D01*
X125084735Y-138113991D01*
X125317932Y-138678371D01*
X125749357Y-139110551D01*
X126313330Y-139344733D01*
X126923991Y-139345265D01*
X127488371Y-139112068D01*
X127612998Y-138987659D01*
X127612998Y-140734998D01*
X127676559Y-141054539D01*
X127795784Y-141232971D01*
X127857564Y-141325432D01*
X130743566Y-144211434D01*
X131014459Y-144392439D01*
X131334000Y-144456000D01*
X138192000Y-144456000D01*
X138511541Y-144392439D01*
X138782434Y-144211434D01*
X140594434Y-142399434D01*
X140775439Y-142128541D01*
X140839000Y-141809000D01*
X140839000Y-140152468D01*
X140888371Y-140132068D01*
X141020421Y-140000249D01*
X141044890Y-140024718D01*
X141159447Y-139910161D01*
X141245852Y-140166643D01*
X141819336Y-140376458D01*
X142429460Y-140350839D01*
X142874148Y-140166643D01*
X142960553Y-139910161D01*
X143031951Y-139981559D01*
X142925182Y-140088141D01*
X142580393Y-140918486D01*
X142579609Y-141817570D01*
X142922948Y-142648515D01*
X143558141Y-143284818D01*
X144388486Y-143629607D01*
X145287570Y-143630391D01*
X146118515Y-143287052D01*
X146754818Y-142651859D01*
X147004731Y-142050000D01*
X150243173Y-142050000D01*
X150405690Y-142867029D01*
X150868500Y-143559673D01*
X151561144Y-144022483D01*
X152378173Y-144185000D01*
X152461827Y-144185000D01*
X153278856Y-144022483D01*
X153971500Y-143559673D01*
X154434310Y-142867029D01*
X154596827Y-142050000D01*
X154434310Y-141232971D01*
X153971500Y-140540327D01*
X153278856Y-140077517D01*
X152461827Y-139915000D01*
X152378173Y-139915000D01*
X151561144Y-140077517D01*
X150868500Y-140540327D01*
X150405690Y-141232971D01*
X150243173Y-142050000D01*
X147004731Y-142050000D01*
X147099607Y-141821514D01*
X147100391Y-140922430D01*
X146757052Y-140091485D01*
X146121859Y-139455182D01*
X145291514Y-139110393D01*
X144392430Y-139109609D01*
X143561485Y-139452948D01*
X143412000Y-139602172D01*
X143606458Y-139070664D01*
X143580839Y-138460540D01*
X143437294Y-138113991D01*
X145084735Y-138113991D01*
X145317932Y-138678371D01*
X145749357Y-139110551D01*
X146313330Y-139344733D01*
X146923991Y-139345265D01*
X147488371Y-139112068D01*
X147920551Y-138680643D01*
X148154733Y-138116670D01*
X148155265Y-137506009D01*
X147922068Y-136941629D01*
X147490643Y-136509449D01*
X146926670Y-136275267D01*
X146316009Y-136274735D01*
X145751629Y-136507932D01*
X145319449Y-136939357D01*
X145085267Y-137503330D01*
X145084735Y-138113991D01*
X143437294Y-138113991D01*
X143396643Y-138015852D01*
X143140159Y-137929446D01*
X142239605Y-138830000D01*
X142253748Y-138844143D01*
X142074143Y-139023748D01*
X142060000Y-139009605D01*
X142045858Y-139023748D01*
X141866253Y-138844143D01*
X141880395Y-138830000D01*
X141866253Y-138815858D01*
X142045858Y-138636253D01*
X142060000Y-138650395D01*
X142960554Y-137749841D01*
X142874148Y-137493357D01*
X142564949Y-137380233D01*
X142574733Y-137356670D01*
X142575265Y-136746009D01*
X142342068Y-136181629D01*
X141910643Y-135749449D01*
X141875000Y-135734649D01*
X141875000Y-133225644D01*
X142189357Y-133540551D01*
X142753330Y-133774733D01*
X143363991Y-133775265D01*
X143928371Y-133542068D01*
X144205104Y-133265818D01*
X144479357Y-133540551D01*
X145043330Y-133774733D01*
X145653991Y-133775265D01*
X146218371Y-133542068D01*
X146650551Y-133110643D01*
X146884733Y-132546670D01*
X146885265Y-131936009D01*
X146652068Y-131371629D01*
X146220643Y-130939449D01*
X145656670Y-130705267D01*
X145046009Y-130704735D01*
X144481629Y-130937932D01*
X144204896Y-131214182D01*
X143930643Y-130939449D01*
X143366670Y-130705267D01*
X142756009Y-130704735D01*
X142191629Y-130937932D01*
X141875000Y-131254008D01*
X141875000Y-121958000D01*
X141853670Y-121850767D01*
X141811440Y-121638460D01*
X141630435Y-121367566D01*
X141105041Y-120842172D01*
X141105197Y-120663225D01*
X140932767Y-120245914D01*
X140613765Y-119926355D01*
X140196756Y-119753197D01*
X139745225Y-119752803D01*
X139327914Y-119925233D01*
X139008355Y-120244235D01*
X139000946Y-120262078D01*
X138565041Y-119826173D01*
X138565197Y-119647225D01*
X138392767Y-119229914D01*
X138073765Y-118910355D01*
X137656756Y-118737197D01*
X137205225Y-118736803D01*
X136787914Y-118909233D01*
X136468355Y-119228235D01*
X136460946Y-119246078D01*
X136025041Y-118810173D01*
X136025197Y-118631225D01*
X135852767Y-118213914D01*
X135533765Y-117894355D01*
X135116756Y-117721197D01*
X134665225Y-117720803D01*
X134247914Y-117893233D01*
X133928355Y-118212235D01*
X133920946Y-118230078D01*
X133485041Y-117794173D01*
X133485197Y-117615225D01*
X133312767Y-117197914D01*
X133185000Y-117069924D01*
X133185000Y-114184058D01*
X133274943Y-114146894D01*
X133735278Y-113687363D01*
X133773630Y-113595000D01*
X147244132Y-113595000D01*
X147401193Y-113752061D01*
X147345907Y-114030000D01*
X147458946Y-114598285D01*
X147780853Y-115080054D01*
X148110026Y-115300000D01*
X147780853Y-115519946D01*
X147458946Y-116001715D01*
X147345907Y-116570000D01*
X147458946Y-117138285D01*
X147780853Y-117620054D01*
X148110026Y-117840000D01*
X147780853Y-118059946D01*
X147458946Y-118541715D01*
X147345907Y-119110000D01*
X147458946Y-119678285D01*
X147780853Y-120160054D01*
X148110026Y-120380000D01*
X147780853Y-120599946D01*
X147458946Y-121081715D01*
X147345907Y-121650000D01*
X147458946Y-122218285D01*
X147780853Y-122700054D01*
X148262622Y-123021961D01*
X148830907Y-123135000D01*
X148889093Y-123135000D01*
X149457378Y-123021961D01*
X149939147Y-122700054D01*
X149939971Y-122698821D01*
X149946838Y-122735317D01*
X150085910Y-122951441D01*
X150298110Y-123096431D01*
X150550000Y-123147440D01*
X152250000Y-123147440D01*
X152485317Y-123103162D01*
X152701441Y-122964090D01*
X152846431Y-122751890D01*
X152897440Y-122500000D01*
X152897440Y-120800000D01*
X152853162Y-120564683D01*
X152714090Y-120348559D01*
X152501890Y-120203569D01*
X152434459Y-120189914D01*
X152479147Y-120160054D01*
X152801054Y-119678285D01*
X152914093Y-119110000D01*
X152801054Y-118541715D01*
X152479147Y-118059946D01*
X152149974Y-117840000D01*
X152479147Y-117620054D01*
X152801054Y-117138285D01*
X152914093Y-116570000D01*
X152801054Y-116001715D01*
X152479147Y-115519946D01*
X152149974Y-115300000D01*
X152479147Y-115080054D01*
X152801054Y-114598285D01*
X152914093Y-114030000D01*
X152801054Y-113461715D01*
X152479147Y-112979946D01*
X151997378Y-112658039D01*
X151429093Y-112545000D01*
X151370907Y-112545000D01*
X150802622Y-112658039D01*
X150320853Y-112979946D01*
X150177159Y-113195000D01*
X150082841Y-113195000D01*
X149939147Y-112979946D01*
X149457378Y-112658039D01*
X148889093Y-112545000D01*
X148830907Y-112545000D01*
X148601500Y-112590632D01*
X148180434Y-112169566D01*
X147909541Y-111988561D01*
X147590000Y-111925000D01*
X133774058Y-111925000D01*
X133736894Y-111835057D01*
X133392241Y-111489801D01*
X133735278Y-111147363D01*
X133984716Y-110546648D01*
X133985284Y-109896205D01*
X133947093Y-109803775D01*
X136750434Y-107000434D01*
X136931440Y-106729540D01*
X136995000Y-106410000D01*
X136995000Y-102754058D01*
X137084943Y-102716894D01*
X137545278Y-102257363D01*
X137631382Y-102050000D01*
X150243173Y-102050000D01*
X150405690Y-102867029D01*
X150868500Y-103559673D01*
X151561144Y-104022483D01*
X152378173Y-104185000D01*
X152461827Y-104185000D01*
X153278856Y-104022483D01*
X153971500Y-103559673D01*
X154434310Y-102867029D01*
X154596827Y-102050000D01*
X154434310Y-101232971D01*
X153971500Y-100540327D01*
X153278856Y-100077517D01*
X152461827Y-99915000D01*
X152378173Y-99915000D01*
X151561144Y-100077517D01*
X150868500Y-100540327D01*
X150405690Y-101232971D01*
X150243173Y-102050000D01*
X137631382Y-102050000D01*
X137794716Y-101656648D01*
X137795284Y-101006205D01*
X137546894Y-100405057D01*
X137087363Y-99944722D01*
X136486648Y-99695284D01*
X135836205Y-99694716D01*
X135235057Y-99943106D01*
X134774722Y-100402637D01*
X134525284Y-101003352D01*
X134524716Y-101653795D01*
X134773106Y-102254943D01*
X135232637Y-102715278D01*
X135325000Y-102753630D01*
X135325000Y-106064132D01*
X132766527Y-108622605D01*
X132676648Y-108585284D01*
X132026205Y-108584716D01*
X131425057Y-108833106D01*
X131079801Y-109177759D01*
X130737363Y-108834722D01*
X130645000Y-108796370D01*
X130645000Y-102945868D01*
X130663473Y-102927395D01*
X130753352Y-102964716D01*
X131403795Y-102965284D01*
X132004943Y-102716894D01*
X132465278Y-102257363D01*
X132714716Y-101656648D01*
X132715284Y-101006205D01*
X132466894Y-100405057D01*
X132007363Y-99944722D01*
X131406648Y-99695284D01*
X130756205Y-99694716D01*
X130155057Y-99943106D01*
X129694722Y-100402637D01*
X129445284Y-101003352D01*
X129444716Y-101653795D01*
X129482907Y-101746225D01*
X129219566Y-102009566D01*
X129038561Y-102280459D01*
X128975000Y-102600000D01*
X128975000Y-108795942D01*
X128885057Y-108833106D01*
X128539801Y-109177759D01*
X128197363Y-108834722D01*
X128105000Y-108796370D01*
X128105000Y-102600000D01*
X128041439Y-102280459D01*
X127860434Y-102009566D01*
X127597395Y-101746527D01*
X127634716Y-101656648D01*
X127635284Y-101006205D01*
X127386894Y-100405057D01*
X126927363Y-99944722D01*
X126326648Y-99695284D01*
X125676205Y-99694716D01*
X125075057Y-99943106D01*
X124614722Y-100402637D01*
X124365284Y-101003352D01*
X124364716Y-101653795D01*
X124613106Y-102254943D01*
X125072637Y-102715278D01*
X125673352Y-102964716D01*
X126323795Y-102965284D01*
X126416225Y-102927093D01*
X126435000Y-102945868D01*
X126435000Y-108795942D01*
X126345057Y-108833106D01*
X125999801Y-109177759D01*
X125657363Y-108834722D01*
X125056648Y-108585284D01*
X124406205Y-108584716D01*
X124313775Y-108622907D01*
X121755000Y-106064132D01*
X121755000Y-102754058D01*
X121844943Y-102716894D01*
X122305278Y-102257363D01*
X122554716Y-101656648D01*
X122555284Y-101006205D01*
X122306894Y-100405057D01*
X121847363Y-99944722D01*
X121246648Y-99695284D01*
X120596205Y-99694716D01*
X119995057Y-99943106D01*
X119534722Y-100402637D01*
X119285284Y-101003352D01*
X119284716Y-101653795D01*
X119533106Y-102254943D01*
X119992637Y-102715278D01*
X120085000Y-102753630D01*
X120085000Y-106410000D01*
X120148561Y-106729541D01*
X120329566Y-107000434D01*
X123132605Y-109803473D01*
X123095284Y-109893352D01*
X123094716Y-110543795D01*
X123343106Y-111144943D01*
X123687759Y-111490199D01*
X123344722Y-111832637D01*
X123095284Y-112433352D01*
X123094716Y-113083795D01*
X123343106Y-113684943D01*
X123802637Y-114145278D01*
X123895000Y-114183630D01*
X123895000Y-115300000D01*
X123958561Y-115619541D01*
X124004845Y-115688810D01*
X123997225Y-115688803D01*
X123579914Y-115861233D01*
X123260355Y-116180235D01*
X123252946Y-116198078D01*
X122817041Y-115762173D01*
X122817197Y-115583225D01*
X122644767Y-115165914D01*
X122325765Y-114846355D01*
X121908756Y-114673197D01*
X121457225Y-114672803D01*
X121039914Y-114845233D01*
X120720355Y-115164235D01*
X120712946Y-115182078D01*
X120277041Y-114746173D01*
X120277197Y-114567225D01*
X120104767Y-114149914D01*
X119785765Y-113830355D01*
X119368756Y-113657197D01*
X118917225Y-113656803D01*
X118499914Y-113829233D01*
X118180355Y-114148235D01*
X118007197Y-114565244D01*
X118006803Y-115016775D01*
X118179233Y-115434086D01*
X118498235Y-115753645D01*
X118915244Y-115926803D01*
X119096093Y-115926961D01*
X120039801Y-116870669D01*
X120023914Y-116877233D01*
X119704355Y-117196235D01*
X119531197Y-117613244D01*
X119531039Y-117794093D01*
X115249566Y-122075566D01*
X115068561Y-122346459D01*
X115005000Y-122666000D01*
X115005000Y-131154181D01*
X114790643Y-130939449D01*
X114226670Y-130705267D01*
X113616009Y-130704735D01*
X113051629Y-130937932D01*
X112774896Y-131214182D01*
X112500643Y-130939449D01*
X111936670Y-130705267D01*
X111326009Y-130704735D01*
X110761629Y-130937932D01*
X110579000Y-131120242D01*
X110579000Y-118439868D01*
X111059827Y-117959041D01*
X111238775Y-117959197D01*
X111656086Y-117786767D01*
X111975645Y-117467765D01*
X112148803Y-117050756D01*
X112149197Y-116599225D01*
X111976767Y-116181914D01*
X111657765Y-115862355D01*
X111240756Y-115689197D01*
X110789225Y-115688803D01*
X110371914Y-115861233D01*
X110052355Y-116180235D01*
X109879197Y-116597244D01*
X109879039Y-116778093D01*
X109777535Y-116879597D01*
X109753439Y-116758459D01*
X109572434Y-116487566D01*
X108847041Y-115762173D01*
X108847197Y-115583225D01*
X108674767Y-115165914D01*
X108547000Y-115037924D01*
X108547000Y-112760000D01*
X108483439Y-112440459D01*
X108302434Y-112169566D01*
X106515000Y-110382132D01*
X106515000Y-107604083D01*
X106701663Y-107417745D01*
X107351861Y-107417745D01*
X107425995Y-107663864D01*
X107963223Y-107856965D01*
X108533454Y-107829778D01*
X108934005Y-107663864D01*
X109008139Y-107417745D01*
X108180000Y-106589605D01*
X107351861Y-107417745D01*
X106701663Y-107417745D01*
X106895824Y-107223923D01*
X106923423Y-107157456D01*
X106926136Y-107164005D01*
X107172255Y-107238139D01*
X108000395Y-106410000D01*
X108359605Y-106410000D01*
X109187745Y-107238139D01*
X109433864Y-107164005D01*
X109626965Y-106626777D01*
X109599778Y-106056546D01*
X109433864Y-105655995D01*
X109187745Y-105581861D01*
X108359605Y-106410000D01*
X108000395Y-106410000D01*
X107172255Y-105581861D01*
X106926136Y-105655995D01*
X106923804Y-105662483D01*
X106897243Y-105598200D01*
X106701640Y-105402255D01*
X107351861Y-105402255D01*
X108180000Y-106230395D01*
X109008139Y-105402255D01*
X108934005Y-105156136D01*
X108396777Y-104963035D01*
X107826546Y-104990222D01*
X107425995Y-105156136D01*
X107351861Y-105402255D01*
X106701640Y-105402255D01*
X106515000Y-105215290D01*
X106515000Y-102770854D01*
X106715317Y-102733162D01*
X106931441Y-102594090D01*
X107076431Y-102381890D01*
X107085370Y-102337745D01*
X107351861Y-102337745D01*
X107425995Y-102583864D01*
X107963223Y-102776965D01*
X108533454Y-102749778D01*
X108934005Y-102583864D01*
X109008139Y-102337745D01*
X108180000Y-101509605D01*
X107351861Y-102337745D01*
X107085370Y-102337745D01*
X107124646Y-102143799D01*
X107172255Y-102158139D01*
X108000395Y-101330000D01*
X108359605Y-101330000D01*
X109187745Y-102158139D01*
X109433864Y-102084005D01*
X109626965Y-101546777D01*
X109599778Y-100976546D01*
X109433864Y-100575995D01*
X109187745Y-100501861D01*
X108359605Y-101330000D01*
X108000395Y-101330000D01*
X107172255Y-100501861D01*
X107124833Y-100516145D01*
X107088351Y-100322255D01*
X107351861Y-100322255D01*
X108180000Y-101150395D01*
X109008139Y-100322255D01*
X108934005Y-100076136D01*
X108396777Y-99883035D01*
X107826546Y-99910222D01*
X107425995Y-100076136D01*
X107351861Y-100322255D01*
X107088351Y-100322255D01*
X107083162Y-100294683D01*
X106944090Y-100078559D01*
X106731890Y-99933569D01*
X106480000Y-99882560D01*
X104880000Y-99882560D01*
X104644683Y-99926838D01*
X104428559Y-100065910D01*
X104283569Y-100278110D01*
X104239648Y-100495000D01*
X101453868Y-100495000D01*
X99920434Y-98961566D01*
X99649541Y-98780561D01*
X99330000Y-98717000D01*
X92218000Y-98717000D01*
X91898460Y-98780560D01*
X91627566Y-98961566D01*
X90856527Y-99732605D01*
X90766648Y-99695284D01*
X90116205Y-99694716D01*
X89515057Y-99943106D01*
X89054722Y-100402637D01*
X88805284Y-101003352D01*
X88804716Y-101653795D01*
X89053106Y-102254943D01*
X89512637Y-102715278D01*
X89605000Y-102753630D01*
X89605000Y-103524132D01*
X88824132Y-104305000D01*
X78085868Y-104305000D01*
X76263400Y-102482532D01*
X79307073Y-102482532D01*
X79405736Y-102749387D01*
X80015461Y-102975908D01*
X80665460Y-102951856D01*
X81154264Y-102749387D01*
X81252927Y-102482532D01*
X80280000Y-101509605D01*
X79307073Y-102482532D01*
X76263400Y-102482532D01*
X75364779Y-101583911D01*
X75365230Y-101065461D01*
X78634092Y-101065461D01*
X78658144Y-101715460D01*
X78860613Y-102204264D01*
X79127468Y-102302927D01*
X80100395Y-101330000D01*
X80459605Y-101330000D01*
X81432532Y-102302927D01*
X81699387Y-102204264D01*
X81903893Y-101653795D01*
X83724716Y-101653795D01*
X83973106Y-102254943D01*
X84432637Y-102715278D01*
X85033352Y-102964716D01*
X85683795Y-102965284D01*
X86284943Y-102716894D01*
X86745278Y-102257363D01*
X86994716Y-101656648D01*
X86995284Y-101006205D01*
X86746894Y-100405057D01*
X86287363Y-99944722D01*
X85686648Y-99695284D01*
X85036205Y-99694716D01*
X84435057Y-99943106D01*
X83974722Y-100402637D01*
X83725284Y-101003352D01*
X83724716Y-101653795D01*
X81903893Y-101653795D01*
X81925908Y-101594539D01*
X81901856Y-100944540D01*
X81699387Y-100455736D01*
X81432532Y-100357073D01*
X80459605Y-101330000D01*
X80100395Y-101330000D01*
X79127468Y-100357073D01*
X78860613Y-100455736D01*
X78634092Y-101065461D01*
X75365230Y-101065461D01*
X75365248Y-101045813D01*
X75147243Y-100518200D01*
X74807105Y-100177468D01*
X79307073Y-100177468D01*
X80280000Y-101150395D01*
X81252927Y-100177468D01*
X81154264Y-99910613D01*
X80544539Y-99684092D01*
X79894540Y-99708144D01*
X79405736Y-99910613D01*
X79307073Y-100177468D01*
X74807105Y-100177468D01*
X74743923Y-100114176D01*
X74216691Y-99895250D01*
X73645813Y-99894752D01*
X73118200Y-100112757D01*
X72735290Y-100495000D01*
X72584083Y-100495000D01*
X72203923Y-100114176D01*
X71676691Y-99895250D01*
X71105813Y-99894752D01*
X70578200Y-100112757D01*
X70174176Y-100516077D01*
X69955250Y-101043309D01*
X69954752Y-101614187D01*
X70172757Y-102141800D01*
X70576077Y-102545824D01*
X71103309Y-102764750D01*
X71674187Y-102765248D01*
X72201800Y-102547243D01*
X72584710Y-102165000D01*
X72735917Y-102165000D01*
X73116077Y-102545824D01*
X73643309Y-102764750D01*
X74184354Y-102765222D01*
X77149566Y-105730434D01*
X77420460Y-105911440D01*
X77740000Y-105975000D01*
X89170000Y-105975000D01*
X89489541Y-105911439D01*
X89760434Y-105730434D01*
X91030434Y-104460434D01*
X91211439Y-104189541D01*
X91275000Y-103870000D01*
X91275000Y-102754058D01*
X91364943Y-102716894D01*
X91825278Y-102257363D01*
X92074716Y-101656648D01*
X92075284Y-101006205D01*
X92037093Y-100913775D01*
X92563868Y-100387000D01*
X94150386Y-100387000D01*
X94134722Y-100402637D01*
X93885284Y-101003352D01*
X93884716Y-101653795D01*
X94133106Y-102254943D01*
X94592637Y-102715278D01*
X94685000Y-102753630D01*
X94685000Y-106064132D01*
X90094132Y-110655000D01*
X75083553Y-110655000D01*
X74944698Y-110447189D01*
X74479151Y-110136120D01*
X73930000Y-110026887D01*
X73380849Y-110136120D01*
X72915302Y-110447189D01*
X72660000Y-110829275D01*
X72404698Y-110447189D01*
X71939151Y-110136120D01*
X71390000Y-110026887D01*
X70840849Y-110136120D01*
X70375302Y-110447189D01*
X70064233Y-110912736D01*
X69955000Y-111461887D01*
X69955000Y-111518113D01*
X70064233Y-112067264D01*
X70375302Y-112532811D01*
X70555000Y-112652882D01*
X70555000Y-114030000D01*
X70618561Y-114349541D01*
X70762689Y-114565244D01*
X70799566Y-114620434D01*
X71914132Y-115735000D01*
X66262841Y-115735000D01*
X66119147Y-115519946D01*
X65778447Y-115292298D01*
X65921358Y-115225183D01*
X66311645Y-114796924D01*
X66481476Y-114386890D01*
X66360155Y-114157000D01*
X65167000Y-114157000D01*
X65167000Y-114177000D01*
X64913000Y-114177000D01*
X64913000Y-114157000D01*
X62627000Y-114157000D01*
X62627000Y-114177000D01*
X62373000Y-114177000D01*
X62373000Y-114157000D01*
X61173750Y-114157000D01*
X61015000Y-114315750D01*
X61015000Y-115006310D01*
X61111673Y-115239699D01*
X61290302Y-115418327D01*
X61464777Y-115490597D01*
X61420853Y-115519946D01*
X61098946Y-116001715D01*
X60985907Y-116570000D01*
X58130000Y-116570000D01*
X58130000Y-113053690D01*
X61015000Y-113053690D01*
X61015000Y-113744250D01*
X61173750Y-113903000D01*
X62373000Y-113903000D01*
X62373000Y-112703750D01*
X62627000Y-112703750D01*
X62627000Y-113903000D01*
X64913000Y-113903000D01*
X64913000Y-112709181D01*
X65167000Y-112709181D01*
X65167000Y-113903000D01*
X66360155Y-113903000D01*
X66481476Y-113673110D01*
X66311645Y-113263076D01*
X65921358Y-112834817D01*
X65396892Y-112588514D01*
X65167000Y-112709181D01*
X64913000Y-112709181D01*
X64683108Y-112588514D01*
X64158642Y-112834817D01*
X63976930Y-113034208D01*
X63888327Y-112820301D01*
X63709698Y-112641673D01*
X63476309Y-112545000D01*
X62785750Y-112545000D01*
X62627000Y-112703750D01*
X62373000Y-112703750D01*
X62214250Y-112545000D01*
X61523691Y-112545000D01*
X61290302Y-112641673D01*
X61111673Y-112820301D01*
X61015000Y-113053690D01*
X58130000Y-113053690D01*
X58130000Y-102050000D01*
X60243173Y-102050000D01*
X60405690Y-102867029D01*
X60868500Y-103559673D01*
X61561144Y-104022483D01*
X62378173Y-104185000D01*
X62461827Y-104185000D01*
X63278856Y-104022483D01*
X63971500Y-103559673D01*
X64434310Y-102867029D01*
X64596827Y-102050000D01*
X64434310Y-101232971D01*
X63971500Y-100540327D01*
X63278856Y-100077517D01*
X62461827Y-99915000D01*
X62378173Y-99915000D01*
X61561144Y-100077517D01*
X60868500Y-100540327D01*
X60405690Y-101232971D01*
X60243173Y-102050000D01*
X58130000Y-102050000D01*
X58130000Y-97760000D01*
X156710000Y-97760000D01*
X156710000Y-146340000D01*
X156710000Y-146340000D01*
G37*
X156710000Y-146340000D02*
X58130000Y-146340000D01*
X58130000Y-142050000D01*
X60243173Y-142050000D01*
X60405690Y-142867029D01*
X60868500Y-143559673D01*
X61561144Y-144022483D01*
X62378173Y-144185000D01*
X62461827Y-144185000D01*
X63278856Y-144022483D01*
X63971500Y-143559673D01*
X64434310Y-142867029D01*
X64596827Y-142050000D01*
X64434310Y-141232971D01*
X63971500Y-140540327D01*
X63278856Y-140077517D01*
X62461827Y-139915000D01*
X62378173Y-139915000D01*
X61561144Y-140077517D01*
X60868500Y-140540327D01*
X60405690Y-141232971D01*
X60243173Y-142050000D01*
X58130000Y-142050000D01*
X58130000Y-116570000D01*
X60985907Y-116570000D01*
X61098946Y-117138285D01*
X61420853Y-117620054D01*
X61750026Y-117840000D01*
X61420853Y-118059946D01*
X61098946Y-118541715D01*
X60985907Y-119110000D01*
X61098946Y-119678285D01*
X61420853Y-120160054D01*
X61750026Y-120380000D01*
X61420853Y-120599946D01*
X61098946Y-121081715D01*
X60985907Y-121650000D01*
X61098946Y-122218285D01*
X61420853Y-122700054D01*
X61902622Y-123021961D01*
X62470907Y-123135000D01*
X62529093Y-123135000D01*
X63097378Y-123021961D01*
X63579147Y-122700054D01*
X63770000Y-122414422D01*
X63960853Y-122700054D01*
X64442622Y-123021961D01*
X65010907Y-123135000D01*
X65069093Y-123135000D01*
X65637378Y-123021961D01*
X66119147Y-122700054D01*
X66441054Y-122218285D01*
X66554093Y-121650000D01*
X66441054Y-121081715D01*
X66119147Y-120599946D01*
X65789974Y-120380000D01*
X66119147Y-120160054D01*
X66441054Y-119678285D01*
X66554093Y-119110000D01*
X66441054Y-118541715D01*
X66119147Y-118059946D01*
X65789974Y-117840000D01*
X66119147Y-117620054D01*
X66262841Y-117405000D01*
X74184000Y-117405000D01*
X74503541Y-117341439D01*
X74774434Y-117160434D01*
X76307868Y-115627000D01*
X78010132Y-115627000D01*
X65373564Y-128263568D01*
X65192559Y-128534461D01*
X65128998Y-128854002D01*
X65128998Y-140607998D01*
X65192559Y-140927539D01*
X65373564Y-141198432D01*
X68259566Y-144084434D01*
X68530459Y-144265439D01*
X68850000Y-144329000D01*
X75708000Y-144329000D01*
X76027541Y-144265439D01*
X76298434Y-144084434D01*
X78110434Y-142272434D01*
X78206581Y-142128540D01*
X78291439Y-142001541D01*
X78355000Y-141682000D01*
X78355000Y-140145857D01*
X78388371Y-140132068D01*
X78520421Y-140000249D01*
X78544890Y-140024718D01*
X78659447Y-139910161D01*
X78745852Y-140166643D01*
X79319336Y-140376458D01*
X79929460Y-140350839D01*
X80374148Y-140166643D01*
X80460553Y-139910161D01*
X80531951Y-139981559D01*
X80425182Y-140088141D01*
X80080393Y-140918486D01*
X80079609Y-141817570D01*
X80422948Y-142648515D01*
X81058141Y-143284818D01*
X81888486Y-143629607D01*
X82787570Y-143630391D01*
X83618515Y-143287052D01*
X84254818Y-142651859D01*
X84599607Y-141821514D01*
X84600391Y-140922430D01*
X84257052Y-140091485D01*
X83621859Y-139455182D01*
X82791514Y-139110393D01*
X81892430Y-139109609D01*
X81061485Y-139452948D01*
X80912000Y-139602172D01*
X81106458Y-139070664D01*
X81080839Y-138460540D01*
X80896643Y-138015852D01*
X80640159Y-137929446D01*
X79739605Y-138830000D01*
X79753748Y-138844143D01*
X79574143Y-139023748D01*
X79560000Y-139009605D01*
X79545858Y-139023748D01*
X79366253Y-138844143D01*
X79380395Y-138830000D01*
X79366253Y-138815858D01*
X79545858Y-138636253D01*
X79560000Y-138650395D01*
X80460554Y-137749841D01*
X80374148Y-137493357D01*
X80064949Y-137380233D01*
X80074733Y-137356670D01*
X80075265Y-136746009D01*
X79842068Y-136181629D01*
X79410643Y-135749449D01*
X79375000Y-135734649D01*
X79375000Y-133225644D01*
X79689357Y-133540551D01*
X80253330Y-133774733D01*
X80863991Y-133775265D01*
X81428371Y-133542068D01*
X81705104Y-133265818D01*
X81979357Y-133540551D01*
X82543330Y-133774733D01*
X83153991Y-133775265D01*
X83718371Y-133542068D01*
X84150551Y-133110643D01*
X84384733Y-132546670D01*
X84385265Y-131936009D01*
X84152068Y-131371629D01*
X83720643Y-130939449D01*
X83156670Y-130705267D01*
X82546009Y-130704735D01*
X81981629Y-130937932D01*
X81704896Y-131214182D01*
X81430643Y-130939449D01*
X80866670Y-130705267D01*
X80256009Y-130704735D01*
X79691629Y-130937932D01*
X79375000Y-131254008D01*
X79375000Y-127545868D01*
X84897827Y-122023041D01*
X85067998Y-122023189D01*
X85067998Y-136586939D01*
X84990643Y-136509449D01*
X84426670Y-136275267D01*
X83816009Y-136274735D01*
X83251629Y-136507932D01*
X82819449Y-136939357D01*
X82585267Y-137503330D01*
X82584735Y-138113991D01*
X82817932Y-138678371D01*
X83249357Y-139110551D01*
X83813330Y-139344733D01*
X84423991Y-139345265D01*
X84988371Y-139112068D01*
X85067998Y-139032580D01*
X85067998Y-140607998D01*
X85131559Y-140927539D01*
X85312564Y-141198432D01*
X88198566Y-144084434D01*
X88469459Y-144265439D01*
X88789000Y-144329000D01*
X95647000Y-144329000D01*
X95966541Y-144265439D01*
X96237434Y-144084434D01*
X98049434Y-142272434D01*
X98145581Y-142128540D01*
X98230439Y-142001541D01*
X98294000Y-141682000D01*
X98294000Y-140171061D01*
X98388371Y-140132068D01*
X98520421Y-140000249D01*
X98544890Y-140024718D01*
X98659447Y-139910161D01*
X98745852Y-140166643D01*
X99319336Y-140376458D01*
X99929460Y-140350839D01*
X100374148Y-140166643D01*
X100460553Y-139910161D01*
X100531951Y-139981559D01*
X100425182Y-140088141D01*
X100080393Y-140918486D01*
X100079609Y-141817570D01*
X100422948Y-142648515D01*
X101058141Y-143284818D01*
X101888486Y-143629607D01*
X102787570Y-143630391D01*
X103618515Y-143287052D01*
X104254818Y-142651859D01*
X104599607Y-141821514D01*
X104600391Y-140922430D01*
X104257052Y-140091485D01*
X103621859Y-139455182D01*
X102791514Y-139110393D01*
X101892430Y-139109609D01*
X101061485Y-139452948D01*
X100912000Y-139602172D01*
X101106458Y-139070664D01*
X101080839Y-138460540D01*
X100937294Y-138113991D01*
X102584735Y-138113991D01*
X102817932Y-138678371D01*
X103249357Y-139110551D01*
X103813330Y-139344733D01*
X104423991Y-139345265D01*
X104988371Y-139112068D01*
X105420551Y-138680643D01*
X105654733Y-138116670D01*
X105655265Y-137506009D01*
X105422068Y-136941629D01*
X104990643Y-136509449D01*
X104426670Y-136275267D01*
X103816009Y-136274735D01*
X103251629Y-136507932D01*
X102819449Y-136939357D01*
X102585267Y-137503330D01*
X102584735Y-138113991D01*
X100937294Y-138113991D01*
X100896643Y-138015852D01*
X100640159Y-137929446D01*
X99739605Y-138830000D01*
X99753748Y-138844143D01*
X99574143Y-139023748D01*
X99560000Y-139009605D01*
X99545858Y-139023748D01*
X99366253Y-138844143D01*
X99380395Y-138830000D01*
X99366253Y-138815858D01*
X99545858Y-138636253D01*
X99560000Y-138650395D01*
X100460554Y-137749841D01*
X100374148Y-137493357D01*
X100064949Y-137380233D01*
X100074733Y-137356670D01*
X100075265Y-136746009D01*
X99842068Y-136181629D01*
X99410643Y-135749449D01*
X99375000Y-135734649D01*
X99375000Y-133225644D01*
X99689357Y-133540551D01*
X100253330Y-133774733D01*
X100863991Y-133775265D01*
X101428371Y-133542068D01*
X101705104Y-133265818D01*
X101979357Y-133540551D01*
X102543330Y-133774733D01*
X103153991Y-133775265D01*
X103718371Y-133542068D01*
X104150551Y-133110643D01*
X104384733Y-132546670D01*
X104385265Y-131936009D01*
X104152068Y-131371629D01*
X103720643Y-130939449D01*
X103156670Y-130705267D01*
X102546009Y-130704735D01*
X101981629Y-130937932D01*
X101704896Y-131214182D01*
X101430643Y-130939449D01*
X100866670Y-130705267D01*
X100256009Y-130704735D01*
X99691629Y-130937932D01*
X99375000Y-131254008D01*
X99375000Y-123801868D01*
X101153827Y-122023041D01*
X101332775Y-122023197D01*
X101750086Y-121850767D01*
X102069645Y-121531765D01*
X102242803Y-121114756D01*
X102243197Y-120663225D01*
X102070767Y-120245914D01*
X101751765Y-119926355D01*
X101481052Y-119813944D01*
X101481197Y-119647225D01*
X101308767Y-119229914D01*
X100989765Y-118910355D01*
X100719052Y-118797944D01*
X100719197Y-118631225D01*
X100546767Y-118213914D01*
X100227765Y-117894355D01*
X99957052Y-117781944D01*
X99957197Y-117615225D01*
X99784767Y-117197914D01*
X99465765Y-116878355D01*
X99048756Y-116705197D01*
X98597225Y-116704803D01*
X98179914Y-116877233D01*
X97860355Y-117196235D01*
X97687197Y-117613244D01*
X97687039Y-117794093D01*
X92389566Y-123091566D01*
X92208561Y-123362459D01*
X92145000Y-123682000D01*
X92145000Y-130878973D01*
X91726670Y-130705267D01*
X91116009Y-130704735D01*
X90551629Y-130937932D01*
X90274896Y-131214182D01*
X90000643Y-130939449D01*
X89436670Y-130705267D01*
X88826009Y-130704735D01*
X88261629Y-130937932D01*
X88100000Y-131099279D01*
X88100000Y-118820868D01*
X88961827Y-117959041D01*
X89140775Y-117959197D01*
X89558086Y-117786767D01*
X89877645Y-117467765D01*
X90050803Y-117050756D01*
X90050961Y-116869907D01*
X91030434Y-115890434D01*
X91049945Y-115861233D01*
X91211439Y-115619541D01*
X91275000Y-115300000D01*
X91275000Y-111835868D01*
X96110434Y-107000434D01*
X96291439Y-106729541D01*
X96355000Y-106410000D01*
X96355000Y-102754058D01*
X96444943Y-102716894D01*
X96905278Y-102257363D01*
X97154716Y-101656648D01*
X97155284Y-101006205D01*
X96906894Y-100405057D01*
X96888869Y-100387000D01*
X98984132Y-100387000D01*
X100517566Y-101920434D01*
X100788460Y-102101440D01*
X101108000Y-102165000D01*
X104239146Y-102165000D01*
X104276838Y-102365317D01*
X104415910Y-102581441D01*
X104628110Y-102726431D01*
X104845000Y-102770352D01*
X104845000Y-105215917D01*
X104464176Y-105596077D01*
X104245250Y-106123309D01*
X104244752Y-106694187D01*
X104462757Y-107221800D01*
X104845000Y-107604710D01*
X104845000Y-110728000D01*
X104908561Y-111047541D01*
X104990693Y-111170460D01*
X105089566Y-111318434D01*
X106877000Y-113105868D01*
X106877000Y-115037811D01*
X106750355Y-115164235D01*
X106742946Y-115182078D01*
X106307041Y-114746173D01*
X106307197Y-114567225D01*
X106134767Y-114149914D01*
X105815765Y-113830355D01*
X105398756Y-113657197D01*
X104947225Y-113656803D01*
X104529914Y-113829233D01*
X104210355Y-114148235D01*
X104037197Y-114565244D01*
X104036803Y-115016775D01*
X104209233Y-115434086D01*
X104528235Y-115753645D01*
X104945244Y-115926803D01*
X105126093Y-115926961D01*
X107546998Y-118347866D01*
X107546998Y-140607998D01*
X107610559Y-140927539D01*
X107791564Y-141198432D01*
X110677566Y-144084434D01*
X110948459Y-144265439D01*
X111268000Y-144329000D01*
X118126000Y-144329000D01*
X118445541Y-144265439D01*
X118716434Y-144084434D01*
X120528434Y-142272434D01*
X120624581Y-142128540D01*
X120709439Y-142001541D01*
X120773000Y-141682000D01*
X120773000Y-140179738D01*
X120888371Y-140132068D01*
X121020421Y-140000249D01*
X121044890Y-140024718D01*
X121159447Y-139910161D01*
X121245852Y-140166643D01*
X121819336Y-140376458D01*
X122429460Y-140350839D01*
X122874148Y-140166643D01*
X122960553Y-139910161D01*
X123031951Y-139981559D01*
X122925182Y-140088141D01*
X122580393Y-140918486D01*
X122579609Y-141817570D01*
X122922948Y-142648515D01*
X123558141Y-143284818D01*
X124388486Y-143629607D01*
X125287570Y-143630391D01*
X126118515Y-143287052D01*
X126754818Y-142651859D01*
X127099607Y-141821514D01*
X127100391Y-140922430D01*
X126757052Y-140091485D01*
X126121859Y-139455182D01*
X125291514Y-139110393D01*
X124392430Y-139109609D01*
X123561485Y-139452948D01*
X123412000Y-139602172D01*
X123606458Y-139070664D01*
X123580839Y-138460540D01*
X123396643Y-138015852D01*
X123140159Y-137929446D01*
X122239605Y-138830000D01*
X122253748Y-138844143D01*
X122074143Y-139023748D01*
X122060000Y-139009605D01*
X122045858Y-139023748D01*
X121866253Y-138844143D01*
X121880395Y-138830000D01*
X121866253Y-138815858D01*
X122045858Y-138636253D01*
X122060000Y-138650395D01*
X122960554Y-137749841D01*
X122874148Y-137493357D01*
X122564949Y-137380233D01*
X122574733Y-137356670D01*
X122575265Y-136746009D01*
X122342068Y-136181629D01*
X121910643Y-135749449D01*
X121875000Y-135734649D01*
X121875000Y-133225644D01*
X122189357Y-133540551D01*
X122753330Y-133774733D01*
X123363991Y-133775265D01*
X123928371Y-133542068D01*
X124205104Y-133265818D01*
X124479357Y-133540551D01*
X125043330Y-133774733D01*
X125653991Y-133775265D01*
X126218371Y-133542068D01*
X126650551Y-133110643D01*
X126884733Y-132546670D01*
X126885265Y-131936009D01*
X126652068Y-131371629D01*
X126220643Y-130939449D01*
X125656670Y-130705267D01*
X125046009Y-130704735D01*
X124481629Y-130937932D01*
X124204896Y-131214182D01*
X123930643Y-130939449D01*
X123366670Y-130705267D01*
X122756009Y-130704735D01*
X122191629Y-130937932D01*
X121875000Y-131254008D01*
X121875000Y-123399868D01*
X123251827Y-122023041D01*
X123430775Y-122023197D01*
X123848086Y-121850767D01*
X124167645Y-121531765D01*
X124324104Y-121154972D01*
X127612998Y-124443866D01*
X127612998Y-136632018D01*
X127490643Y-136509449D01*
X126926670Y-136275267D01*
X126316009Y-136274735D01*
X125751629Y-136507932D01*
X125319449Y-136939357D01*
X125085267Y-137503330D01*
X125084735Y-138113991D01*
X125317932Y-138678371D01*
X125749357Y-139110551D01*
X126313330Y-139344733D01*
X126923991Y-139345265D01*
X127488371Y-139112068D01*
X127612998Y-138987659D01*
X127612998Y-140734998D01*
X127676559Y-141054539D01*
X127795784Y-141232971D01*
X127857564Y-141325432D01*
X130743566Y-144211434D01*
X131014459Y-144392439D01*
X131334000Y-144456000D01*
X138192000Y-144456000D01*
X138511541Y-144392439D01*
X138782434Y-144211434D01*
X140594434Y-142399434D01*
X140775439Y-142128541D01*
X140839000Y-141809000D01*
X140839000Y-140152468D01*
X140888371Y-140132068D01*
X141020421Y-140000249D01*
X141044890Y-140024718D01*
X141159447Y-139910161D01*
X141245852Y-140166643D01*
X141819336Y-140376458D01*
X142429460Y-140350839D01*
X142874148Y-140166643D01*
X142960553Y-139910161D01*
X143031951Y-139981559D01*
X142925182Y-140088141D01*
X142580393Y-140918486D01*
X142579609Y-141817570D01*
X142922948Y-142648515D01*
X143558141Y-143284818D01*
X144388486Y-143629607D01*
X145287570Y-143630391D01*
X146118515Y-143287052D01*
X146754818Y-142651859D01*
X147004731Y-142050000D01*
X150243173Y-142050000D01*
X150405690Y-142867029D01*
X150868500Y-143559673D01*
X151561144Y-144022483D01*
X152378173Y-144185000D01*
X152461827Y-144185000D01*
X153278856Y-144022483D01*
X153971500Y-143559673D01*
X154434310Y-142867029D01*
X154596827Y-142050000D01*
X154434310Y-141232971D01*
X153971500Y-140540327D01*
X153278856Y-140077517D01*
X152461827Y-139915000D01*
X152378173Y-139915000D01*
X151561144Y-140077517D01*
X150868500Y-140540327D01*
X150405690Y-141232971D01*
X150243173Y-142050000D01*
X147004731Y-142050000D01*
X147099607Y-141821514D01*
X147100391Y-140922430D01*
X146757052Y-140091485D01*
X146121859Y-139455182D01*
X145291514Y-139110393D01*
X144392430Y-139109609D01*
X143561485Y-139452948D01*
X143412000Y-139602172D01*
X143606458Y-139070664D01*
X143580839Y-138460540D01*
X143437294Y-138113991D01*
X145084735Y-138113991D01*
X145317932Y-138678371D01*
X145749357Y-139110551D01*
X146313330Y-139344733D01*
X146923991Y-139345265D01*
X147488371Y-139112068D01*
X147920551Y-138680643D01*
X148154733Y-138116670D01*
X148155265Y-137506009D01*
X147922068Y-136941629D01*
X147490643Y-136509449D01*
X146926670Y-136275267D01*
X146316009Y-136274735D01*
X145751629Y-136507932D01*
X145319449Y-136939357D01*
X145085267Y-137503330D01*
X145084735Y-138113991D01*
X143437294Y-138113991D01*
X143396643Y-138015852D01*
X143140159Y-137929446D01*
X142239605Y-138830000D01*
X142253748Y-138844143D01*
X142074143Y-139023748D01*
X142060000Y-139009605D01*
X142045858Y-139023748D01*
X141866253Y-138844143D01*
X141880395Y-138830000D01*
X141866253Y-138815858D01*
X142045858Y-138636253D01*
X142060000Y-138650395D01*
X142960554Y-137749841D01*
X142874148Y-137493357D01*
X142564949Y-137380233D01*
X142574733Y-137356670D01*
X142575265Y-136746009D01*
X142342068Y-136181629D01*
X141910643Y-135749449D01*
X141875000Y-135734649D01*
X141875000Y-133225644D01*
X142189357Y-133540551D01*
X142753330Y-133774733D01*
X143363991Y-133775265D01*
X143928371Y-133542068D01*
X144205104Y-133265818D01*
X144479357Y-133540551D01*
X145043330Y-133774733D01*
X145653991Y-133775265D01*
X146218371Y-133542068D01*
X146650551Y-133110643D01*
X146884733Y-132546670D01*
X146885265Y-131936009D01*
X146652068Y-131371629D01*
X146220643Y-130939449D01*
X145656670Y-130705267D01*
X145046009Y-130704735D01*
X144481629Y-130937932D01*
X144204896Y-131214182D01*
X143930643Y-130939449D01*
X143366670Y-130705267D01*
X142756009Y-130704735D01*
X142191629Y-130937932D01*
X141875000Y-131254008D01*
X141875000Y-121958000D01*
X141853670Y-121850767D01*
X141811440Y-121638460D01*
X141630435Y-121367566D01*
X141105041Y-120842172D01*
X141105197Y-120663225D01*
X140932767Y-120245914D01*
X140613765Y-119926355D01*
X140196756Y-119753197D01*
X139745225Y-119752803D01*
X139327914Y-119925233D01*
X139008355Y-120244235D01*
X139000946Y-120262078D01*
X138565041Y-119826173D01*
X138565197Y-119647225D01*
X138392767Y-119229914D01*
X138073765Y-118910355D01*
X137656756Y-118737197D01*
X137205225Y-118736803D01*
X136787914Y-118909233D01*
X136468355Y-119228235D01*
X136460946Y-119246078D01*
X136025041Y-118810173D01*
X136025197Y-118631225D01*
X135852767Y-118213914D01*
X135533765Y-117894355D01*
X135116756Y-117721197D01*
X134665225Y-117720803D01*
X134247914Y-117893233D01*
X133928355Y-118212235D01*
X133920946Y-118230078D01*
X133485041Y-117794173D01*
X133485197Y-117615225D01*
X133312767Y-117197914D01*
X133185000Y-117069924D01*
X133185000Y-114184058D01*
X133274943Y-114146894D01*
X133735278Y-113687363D01*
X133773630Y-113595000D01*
X147244132Y-113595000D01*
X147401193Y-113752061D01*
X147345907Y-114030000D01*
X147458946Y-114598285D01*
X147780853Y-115080054D01*
X148110026Y-115300000D01*
X147780853Y-115519946D01*
X147458946Y-116001715D01*
X147345907Y-116570000D01*
X147458946Y-117138285D01*
X147780853Y-117620054D01*
X148110026Y-117840000D01*
X147780853Y-118059946D01*
X147458946Y-118541715D01*
X147345907Y-119110000D01*
X147458946Y-119678285D01*
X147780853Y-120160054D01*
X148110026Y-120380000D01*
X147780853Y-120599946D01*
X147458946Y-121081715D01*
X147345907Y-121650000D01*
X147458946Y-122218285D01*
X147780853Y-122700054D01*
X148262622Y-123021961D01*
X148830907Y-123135000D01*
X148889093Y-123135000D01*
X149457378Y-123021961D01*
X149939147Y-122700054D01*
X149939971Y-122698821D01*
X149946838Y-122735317D01*
X150085910Y-122951441D01*
X150298110Y-123096431D01*
X150550000Y-123147440D01*
X152250000Y-123147440D01*
X152485317Y-123103162D01*
X152701441Y-122964090D01*
X152846431Y-122751890D01*
X152897440Y-122500000D01*
X152897440Y-120800000D01*
X152853162Y-120564683D01*
X152714090Y-120348559D01*
X152501890Y-120203569D01*
X152434459Y-120189914D01*
X152479147Y-120160054D01*
X152801054Y-119678285D01*
X152914093Y-119110000D01*
X152801054Y-118541715D01*
X152479147Y-118059946D01*
X152149974Y-117840000D01*
X152479147Y-117620054D01*
X152801054Y-117138285D01*
X152914093Y-116570000D01*
X152801054Y-116001715D01*
X152479147Y-115519946D01*
X152149974Y-115300000D01*
X152479147Y-115080054D01*
X152801054Y-114598285D01*
X152914093Y-114030000D01*
X152801054Y-113461715D01*
X152479147Y-112979946D01*
X151997378Y-112658039D01*
X151429093Y-112545000D01*
X151370907Y-112545000D01*
X150802622Y-112658039D01*
X150320853Y-112979946D01*
X150177159Y-113195000D01*
X150082841Y-113195000D01*
X149939147Y-112979946D01*
X149457378Y-112658039D01*
X148889093Y-112545000D01*
X148830907Y-112545000D01*
X148601500Y-112590632D01*
X148180434Y-112169566D01*
X147909541Y-111988561D01*
X147590000Y-111925000D01*
X133774058Y-111925000D01*
X133736894Y-111835057D01*
X133392241Y-111489801D01*
X133735278Y-111147363D01*
X133984716Y-110546648D01*
X133985284Y-109896205D01*
X133947093Y-109803775D01*
X136750434Y-107000434D01*
X136931440Y-106729540D01*
X136995000Y-106410000D01*
X136995000Y-102754058D01*
X137084943Y-102716894D01*
X137545278Y-102257363D01*
X137631382Y-102050000D01*
X150243173Y-102050000D01*
X150405690Y-102867029D01*
X150868500Y-103559673D01*
X151561144Y-104022483D01*
X152378173Y-104185000D01*
X152461827Y-104185000D01*
X153278856Y-104022483D01*
X153971500Y-103559673D01*
X154434310Y-102867029D01*
X154596827Y-102050000D01*
X154434310Y-101232971D01*
X153971500Y-100540327D01*
X153278856Y-100077517D01*
X152461827Y-99915000D01*
X152378173Y-99915000D01*
X151561144Y-100077517D01*
X150868500Y-100540327D01*
X150405690Y-101232971D01*
X150243173Y-102050000D01*
X137631382Y-102050000D01*
X137794716Y-101656648D01*
X137795284Y-101006205D01*
X137546894Y-100405057D01*
X137087363Y-99944722D01*
X136486648Y-99695284D01*
X135836205Y-99694716D01*
X135235057Y-99943106D01*
X134774722Y-100402637D01*
X134525284Y-101003352D01*
X134524716Y-101653795D01*
X134773106Y-102254943D01*
X135232637Y-102715278D01*
X135325000Y-102753630D01*
X135325000Y-106064132D01*
X132766527Y-108622605D01*
X132676648Y-108585284D01*
X132026205Y-108584716D01*
X131425057Y-108833106D01*
X131079801Y-109177759D01*
X130737363Y-108834722D01*
X130645000Y-108796370D01*
X130645000Y-102945868D01*
X130663473Y-102927395D01*
X130753352Y-102964716D01*
X131403795Y-102965284D01*
X132004943Y-102716894D01*
X132465278Y-102257363D01*
X132714716Y-101656648D01*
X132715284Y-101006205D01*
X132466894Y-100405057D01*
X132007363Y-99944722D01*
X131406648Y-99695284D01*
X130756205Y-99694716D01*
X130155057Y-99943106D01*
X129694722Y-100402637D01*
X129445284Y-101003352D01*
X129444716Y-101653795D01*
X129482907Y-101746225D01*
X129219566Y-102009566D01*
X129038561Y-102280459D01*
X128975000Y-102600000D01*
X128975000Y-108795942D01*
X128885057Y-108833106D01*
X128539801Y-109177759D01*
X128197363Y-108834722D01*
X128105000Y-108796370D01*
X128105000Y-102600000D01*
X128041439Y-102280459D01*
X127860434Y-102009566D01*
X127597395Y-101746527D01*
X127634716Y-101656648D01*
X127635284Y-101006205D01*
X127386894Y-100405057D01*
X126927363Y-99944722D01*
X126326648Y-99695284D01*
X125676205Y-99694716D01*
X125075057Y-99943106D01*
X124614722Y-100402637D01*
X124365284Y-101003352D01*
X124364716Y-101653795D01*
X124613106Y-102254943D01*
X125072637Y-102715278D01*
X125673352Y-102964716D01*
X126323795Y-102965284D01*
X126416225Y-102927093D01*
X126435000Y-102945868D01*
X126435000Y-108795942D01*
X126345057Y-108833106D01*
X125999801Y-109177759D01*
X125657363Y-108834722D01*
X125056648Y-108585284D01*
X124406205Y-108584716D01*
X124313775Y-108622907D01*
X121755000Y-106064132D01*
X121755000Y-102754058D01*
X121844943Y-102716894D01*
X122305278Y-102257363D01*
X122554716Y-101656648D01*
X122555284Y-101006205D01*
X122306894Y-100405057D01*
X121847363Y-99944722D01*
X121246648Y-99695284D01*
X120596205Y-99694716D01*
X119995057Y-99943106D01*
X119534722Y-100402637D01*
X119285284Y-101003352D01*
X119284716Y-101653795D01*
X119533106Y-102254943D01*
X119992637Y-102715278D01*
X120085000Y-102753630D01*
X120085000Y-106410000D01*
X120148561Y-106729541D01*
X120329566Y-107000434D01*
X123132605Y-109803473D01*
X123095284Y-109893352D01*
X123094716Y-110543795D01*
X123343106Y-111144943D01*
X123687759Y-111490199D01*
X123344722Y-111832637D01*
X123095284Y-112433352D01*
X123094716Y-113083795D01*
X123343106Y-113684943D01*
X123802637Y-114145278D01*
X123895000Y-114183630D01*
X123895000Y-115300000D01*
X123958561Y-115619541D01*
X124004845Y-115688810D01*
X123997225Y-115688803D01*
X123579914Y-115861233D01*
X123260355Y-116180235D01*
X123252946Y-116198078D01*
X122817041Y-115762173D01*
X122817197Y-115583225D01*
X122644767Y-115165914D01*
X122325765Y-114846355D01*
X121908756Y-114673197D01*
X121457225Y-114672803D01*
X121039914Y-114845233D01*
X120720355Y-115164235D01*
X120712946Y-115182078D01*
X120277041Y-114746173D01*
X120277197Y-114567225D01*
X120104767Y-114149914D01*
X119785765Y-113830355D01*
X119368756Y-113657197D01*
X118917225Y-113656803D01*
X118499914Y-113829233D01*
X118180355Y-114148235D01*
X118007197Y-114565244D01*
X118006803Y-115016775D01*
X118179233Y-115434086D01*
X118498235Y-115753645D01*
X118915244Y-115926803D01*
X119096093Y-115926961D01*
X120039801Y-116870669D01*
X120023914Y-116877233D01*
X119704355Y-117196235D01*
X119531197Y-117613244D01*
X119531039Y-117794093D01*
X115249566Y-122075566D01*
X115068561Y-122346459D01*
X115005000Y-122666000D01*
X115005000Y-131154181D01*
X114790643Y-130939449D01*
X114226670Y-130705267D01*
X113616009Y-130704735D01*
X113051629Y-130937932D01*
X112774896Y-131214182D01*
X112500643Y-130939449D01*
X111936670Y-130705267D01*
X111326009Y-130704735D01*
X110761629Y-130937932D01*
X110579000Y-131120242D01*
X110579000Y-118439868D01*
X111059827Y-117959041D01*
X111238775Y-117959197D01*
X111656086Y-117786767D01*
X111975645Y-117467765D01*
X112148803Y-117050756D01*
X112149197Y-116599225D01*
X111976767Y-116181914D01*
X111657765Y-115862355D01*
X111240756Y-115689197D01*
X110789225Y-115688803D01*
X110371914Y-115861233D01*
X110052355Y-116180235D01*
X109879197Y-116597244D01*
X109879039Y-116778093D01*
X109777535Y-116879597D01*
X109753439Y-116758459D01*
X109572434Y-116487566D01*
X108847041Y-115762173D01*
X108847197Y-115583225D01*
X108674767Y-115165914D01*
X108547000Y-115037924D01*
X108547000Y-112760000D01*
X108483439Y-112440459D01*
X108302434Y-112169566D01*
X106515000Y-110382132D01*
X106515000Y-107604083D01*
X106701663Y-107417745D01*
X107351861Y-107417745D01*
X107425995Y-107663864D01*
X107963223Y-107856965D01*
X108533454Y-107829778D01*
X108934005Y-107663864D01*
X109008139Y-107417745D01*
X108180000Y-106589605D01*
X107351861Y-107417745D01*
X106701663Y-107417745D01*
X106895824Y-107223923D01*
X106923423Y-107157456D01*
X106926136Y-107164005D01*
X107172255Y-107238139D01*
X108000395Y-106410000D01*
X108359605Y-106410000D01*
X109187745Y-107238139D01*
X109433864Y-107164005D01*
X109626965Y-106626777D01*
X109599778Y-106056546D01*
X109433864Y-105655995D01*
X109187745Y-105581861D01*
X108359605Y-106410000D01*
X108000395Y-106410000D01*
X107172255Y-105581861D01*
X106926136Y-105655995D01*
X106923804Y-105662483D01*
X106897243Y-105598200D01*
X106701640Y-105402255D01*
X107351861Y-105402255D01*
X108180000Y-106230395D01*
X109008139Y-105402255D01*
X108934005Y-105156136D01*
X108396777Y-104963035D01*
X107826546Y-104990222D01*
X107425995Y-105156136D01*
X107351861Y-105402255D01*
X106701640Y-105402255D01*
X106515000Y-105215290D01*
X106515000Y-102770854D01*
X106715317Y-102733162D01*
X106931441Y-102594090D01*
X107076431Y-102381890D01*
X107085370Y-102337745D01*
X107351861Y-102337745D01*
X107425995Y-102583864D01*
X107963223Y-102776965D01*
X108533454Y-102749778D01*
X108934005Y-102583864D01*
X109008139Y-102337745D01*
X108180000Y-101509605D01*
X107351861Y-102337745D01*
X107085370Y-102337745D01*
X107124646Y-102143799D01*
X107172255Y-102158139D01*
X108000395Y-101330000D01*
X108359605Y-101330000D01*
X109187745Y-102158139D01*
X109433864Y-102084005D01*
X109626965Y-101546777D01*
X109599778Y-100976546D01*
X109433864Y-100575995D01*
X109187745Y-100501861D01*
X108359605Y-101330000D01*
X108000395Y-101330000D01*
X107172255Y-100501861D01*
X107124833Y-100516145D01*
X107088351Y-100322255D01*
X107351861Y-100322255D01*
X108180000Y-101150395D01*
X109008139Y-100322255D01*
X108934005Y-100076136D01*
X108396777Y-99883035D01*
X107826546Y-99910222D01*
X107425995Y-100076136D01*
X107351861Y-100322255D01*
X107088351Y-100322255D01*
X107083162Y-100294683D01*
X106944090Y-100078559D01*
X106731890Y-99933569D01*
X106480000Y-99882560D01*
X104880000Y-99882560D01*
X104644683Y-99926838D01*
X104428559Y-100065910D01*
X104283569Y-100278110D01*
X104239648Y-100495000D01*
X101453868Y-100495000D01*
X99920434Y-98961566D01*
X99649541Y-98780561D01*
X99330000Y-98717000D01*
X92218000Y-98717000D01*
X91898460Y-98780560D01*
X91627566Y-98961566D01*
X90856527Y-99732605D01*
X90766648Y-99695284D01*
X90116205Y-99694716D01*
X89515057Y-99943106D01*
X89054722Y-100402637D01*
X88805284Y-101003352D01*
X88804716Y-101653795D01*
X89053106Y-102254943D01*
X89512637Y-102715278D01*
X89605000Y-102753630D01*
X89605000Y-103524132D01*
X88824132Y-104305000D01*
X78085868Y-104305000D01*
X76263400Y-102482532D01*
X79307073Y-102482532D01*
X79405736Y-102749387D01*
X80015461Y-102975908D01*
X80665460Y-102951856D01*
X81154264Y-102749387D01*
X81252927Y-102482532D01*
X80280000Y-101509605D01*
X79307073Y-102482532D01*
X76263400Y-102482532D01*
X75364779Y-101583911D01*
X75365230Y-101065461D01*
X78634092Y-101065461D01*
X78658144Y-101715460D01*
X78860613Y-102204264D01*
X79127468Y-102302927D01*
X80100395Y-101330000D01*
X80459605Y-101330000D01*
X81432532Y-102302927D01*
X81699387Y-102204264D01*
X81903893Y-101653795D01*
X83724716Y-101653795D01*
X83973106Y-102254943D01*
X84432637Y-102715278D01*
X85033352Y-102964716D01*
X85683795Y-102965284D01*
X86284943Y-102716894D01*
X86745278Y-102257363D01*
X86994716Y-101656648D01*
X86995284Y-101006205D01*
X86746894Y-100405057D01*
X86287363Y-99944722D01*
X85686648Y-99695284D01*
X85036205Y-99694716D01*
X84435057Y-99943106D01*
X83974722Y-100402637D01*
X83725284Y-101003352D01*
X83724716Y-101653795D01*
X81903893Y-101653795D01*
X81925908Y-101594539D01*
X81901856Y-100944540D01*
X81699387Y-100455736D01*
X81432532Y-100357073D01*
X80459605Y-101330000D01*
X80100395Y-101330000D01*
X79127468Y-100357073D01*
X78860613Y-100455736D01*
X78634092Y-101065461D01*
X75365230Y-101065461D01*
X75365248Y-101045813D01*
X75147243Y-100518200D01*
X74807105Y-100177468D01*
X79307073Y-100177468D01*
X80280000Y-101150395D01*
X81252927Y-100177468D01*
X81154264Y-99910613D01*
X80544539Y-99684092D01*
X79894540Y-99708144D01*
X79405736Y-99910613D01*
X79307073Y-100177468D01*
X74807105Y-100177468D01*
X74743923Y-100114176D01*
X74216691Y-99895250D01*
X73645813Y-99894752D01*
X73118200Y-100112757D01*
X72735290Y-100495000D01*
X72584083Y-100495000D01*
X72203923Y-100114176D01*
X71676691Y-99895250D01*
X71105813Y-99894752D01*
X70578200Y-100112757D01*
X70174176Y-100516077D01*
X69955250Y-101043309D01*
X69954752Y-101614187D01*
X70172757Y-102141800D01*
X70576077Y-102545824D01*
X71103309Y-102764750D01*
X71674187Y-102765248D01*
X72201800Y-102547243D01*
X72584710Y-102165000D01*
X72735917Y-102165000D01*
X73116077Y-102545824D01*
X73643309Y-102764750D01*
X74184354Y-102765222D01*
X77149566Y-105730434D01*
X77420460Y-105911440D01*
X77740000Y-105975000D01*
X89170000Y-105975000D01*
X89489541Y-105911439D01*
X89760434Y-105730434D01*
X91030434Y-104460434D01*
X91211439Y-104189541D01*
X91275000Y-103870000D01*
X91275000Y-102754058D01*
X91364943Y-102716894D01*
X91825278Y-102257363D01*
X92074716Y-101656648D01*
X92075284Y-101006205D01*
X92037093Y-100913775D01*
X92563868Y-100387000D01*
X94150386Y-100387000D01*
X94134722Y-100402637D01*
X93885284Y-101003352D01*
X93884716Y-101653795D01*
X94133106Y-102254943D01*
X94592637Y-102715278D01*
X94685000Y-102753630D01*
X94685000Y-106064132D01*
X90094132Y-110655000D01*
X75083553Y-110655000D01*
X74944698Y-110447189D01*
X74479151Y-110136120D01*
X73930000Y-110026887D01*
X73380849Y-110136120D01*
X72915302Y-110447189D01*
X72660000Y-110829275D01*
X72404698Y-110447189D01*
X71939151Y-110136120D01*
X71390000Y-110026887D01*
X70840849Y-110136120D01*
X70375302Y-110447189D01*
X70064233Y-110912736D01*
X69955000Y-111461887D01*
X69955000Y-111518113D01*
X70064233Y-112067264D01*
X70375302Y-112532811D01*
X70555000Y-112652882D01*
X70555000Y-114030000D01*
X70618561Y-114349541D01*
X70762689Y-114565244D01*
X70799566Y-114620434D01*
X71914132Y-115735000D01*
X66262841Y-115735000D01*
X66119147Y-115519946D01*
X65778447Y-115292298D01*
X65921358Y-115225183D01*
X66311645Y-114796924D01*
X66481476Y-114386890D01*
X66360155Y-114157000D01*
X65167000Y-114157000D01*
X65167000Y-114177000D01*
X64913000Y-114177000D01*
X64913000Y-114157000D01*
X62627000Y-114157000D01*
X62627000Y-114177000D01*
X62373000Y-114177000D01*
X62373000Y-114157000D01*
X61173750Y-114157000D01*
X61015000Y-114315750D01*
X61015000Y-115006310D01*
X61111673Y-115239699D01*
X61290302Y-115418327D01*
X61464777Y-115490597D01*
X61420853Y-115519946D01*
X61098946Y-116001715D01*
X60985907Y-116570000D01*
X58130000Y-116570000D01*
X58130000Y-113053690D01*
X61015000Y-113053690D01*
X61015000Y-113744250D01*
X61173750Y-113903000D01*
X62373000Y-113903000D01*
X62373000Y-112703750D01*
X62627000Y-112703750D01*
X62627000Y-113903000D01*
X64913000Y-113903000D01*
X64913000Y-112709181D01*
X65167000Y-112709181D01*
X65167000Y-113903000D01*
X66360155Y-113903000D01*
X66481476Y-113673110D01*
X66311645Y-113263076D01*
X65921358Y-112834817D01*
X65396892Y-112588514D01*
X65167000Y-112709181D01*
X64913000Y-112709181D01*
X64683108Y-112588514D01*
X64158642Y-112834817D01*
X63976930Y-113034208D01*
X63888327Y-112820301D01*
X63709698Y-112641673D01*
X63476309Y-112545000D01*
X62785750Y-112545000D01*
X62627000Y-112703750D01*
X62373000Y-112703750D01*
X62214250Y-112545000D01*
X61523691Y-112545000D01*
X61290302Y-112641673D01*
X61111673Y-112820301D01*
X61015000Y-113053690D01*
X58130000Y-113053690D01*
X58130000Y-102050000D01*
X60243173Y-102050000D01*
X60405690Y-102867029D01*
X60868500Y-103559673D01*
X61561144Y-104022483D01*
X62378173Y-104185000D01*
X62461827Y-104185000D01*
X63278856Y-104022483D01*
X63971500Y-103559673D01*
X64434310Y-102867029D01*
X64596827Y-102050000D01*
X64434310Y-101232971D01*
X63971500Y-100540327D01*
X63278856Y-100077517D01*
X62461827Y-99915000D01*
X62378173Y-99915000D01*
X61561144Y-100077517D01*
X60868500Y-100540327D01*
X60405690Y-101232971D01*
X60243173Y-102050000D01*
X58130000Y-102050000D01*
X58130000Y-97760000D01*
X156710000Y-97760000D01*
X156710000Y-146340000D01*
G36*
X156710000Y-96340000D02*
X58130000Y-96340000D01*
X58130000Y-92050000D01*
X60243173Y-92050000D01*
X60405690Y-92867029D01*
X60868500Y-93559673D01*
X61561144Y-94022483D01*
X62378173Y-94185000D01*
X62461827Y-94185000D01*
X63278856Y-94022483D01*
X63971500Y-93559673D01*
X64434310Y-92867029D01*
X64596827Y-92050000D01*
X64434310Y-91232971D01*
X63971500Y-90540327D01*
X63278856Y-90077517D01*
X62461827Y-89915000D01*
X62378173Y-89915000D01*
X61561144Y-90077517D01*
X60868500Y-90540327D01*
X60405690Y-91232971D01*
X60243173Y-92050000D01*
X58130000Y-92050000D01*
X58130000Y-66570000D01*
X60985907Y-66570000D01*
X61098946Y-67138285D01*
X61420853Y-67620054D01*
X61750026Y-67840000D01*
X61420853Y-68059946D01*
X61098946Y-68541715D01*
X60985907Y-69110000D01*
X61098946Y-69678285D01*
X61420853Y-70160054D01*
X61750026Y-70380000D01*
X61420853Y-70599946D01*
X61098946Y-71081715D01*
X60985907Y-71650000D01*
X61098946Y-72218285D01*
X61420853Y-72700054D01*
X61902622Y-73021961D01*
X62470907Y-73135000D01*
X62529093Y-73135000D01*
X63097378Y-73021961D01*
X63579147Y-72700054D01*
X63770000Y-72414422D01*
X63960853Y-72700054D01*
X64442622Y-73021961D01*
X65010907Y-73135000D01*
X65069093Y-73135000D01*
X65637378Y-73021961D01*
X66119147Y-72700054D01*
X66441054Y-72218285D01*
X66554093Y-71650000D01*
X66441054Y-71081715D01*
X66119147Y-70599946D01*
X65789974Y-70380000D01*
X66119147Y-70160054D01*
X66441054Y-69678285D01*
X66554093Y-69110000D01*
X66441054Y-68541715D01*
X66119147Y-68059946D01*
X65789974Y-67840000D01*
X66119147Y-67620054D01*
X66262841Y-67405000D01*
X74184000Y-67405000D01*
X74503541Y-67341439D01*
X74774434Y-67160434D01*
X76307868Y-65627000D01*
X78010132Y-65627000D01*
X65373564Y-78263568D01*
X65192559Y-78534461D01*
X65128998Y-78854002D01*
X65128998Y-90607998D01*
X65192559Y-90927539D01*
X65373564Y-91198432D01*
X68259566Y-94084434D01*
X68530459Y-94265439D01*
X68850000Y-94329000D01*
X75708000Y-94329000D01*
X76027541Y-94265439D01*
X76298434Y-94084434D01*
X78110434Y-92272434D01*
X78206581Y-92128540D01*
X78291439Y-92001541D01*
X78355000Y-91682000D01*
X78355000Y-90145857D01*
X78388371Y-90132068D01*
X78520421Y-90000249D01*
X78544890Y-90024718D01*
X78659447Y-89910161D01*
X78745852Y-90166643D01*
X79319336Y-90376458D01*
X79929460Y-90350839D01*
X80374148Y-90166643D01*
X80460553Y-89910161D01*
X80531951Y-89981559D01*
X80425182Y-90088141D01*
X80080393Y-90918486D01*
X80079609Y-91817570D01*
X80422948Y-92648515D01*
X81058141Y-93284818D01*
X81888486Y-93629607D01*
X82787570Y-93630391D01*
X83618515Y-93287052D01*
X84254818Y-92651859D01*
X84599607Y-91821514D01*
X84600391Y-90922430D01*
X84257052Y-90091485D01*
X83621859Y-89455182D01*
X82791514Y-89110393D01*
X81892430Y-89109609D01*
X81061485Y-89452948D01*
X80912000Y-89602172D01*
X81106458Y-89070664D01*
X81080839Y-88460540D01*
X80896643Y-88015852D01*
X80640159Y-87929446D01*
X79739605Y-88830000D01*
X79753748Y-88844143D01*
X79574143Y-89023748D01*
X79560000Y-89009605D01*
X79545858Y-89023748D01*
X79366253Y-88844143D01*
X79380395Y-88830000D01*
X79366253Y-88815858D01*
X79545858Y-88636253D01*
X79560000Y-88650395D01*
X80460554Y-87749841D01*
X80374148Y-87493357D01*
X80064949Y-87380233D01*
X80074733Y-87356670D01*
X80075265Y-86746009D01*
X79842068Y-86181629D01*
X79410643Y-85749449D01*
X79375000Y-85734649D01*
X79375000Y-83225644D01*
X79689357Y-83540551D01*
X80253330Y-83774733D01*
X80863991Y-83775265D01*
X81428371Y-83542068D01*
X81705104Y-83265818D01*
X81979357Y-83540551D01*
X82543330Y-83774733D01*
X83153991Y-83775265D01*
X83718371Y-83542068D01*
X84150551Y-83110643D01*
X84384733Y-82546670D01*
X84385265Y-81936009D01*
X84152068Y-81371629D01*
X83720643Y-80939449D01*
X83156670Y-80705267D01*
X82546009Y-80704735D01*
X81981629Y-80937932D01*
X81704896Y-81214182D01*
X81430643Y-80939449D01*
X80866670Y-80705267D01*
X80256009Y-80704735D01*
X79691629Y-80937932D01*
X79375000Y-81254008D01*
X79375000Y-77545868D01*
X84897827Y-72023041D01*
X85067998Y-72023189D01*
X85067998Y-86586939D01*
X84990643Y-86509449D01*
X84426670Y-86275267D01*
X83816009Y-86274735D01*
X83251629Y-86507932D01*
X82819449Y-86939357D01*
X82585267Y-87503330D01*
X82584735Y-88113991D01*
X82817932Y-88678371D01*
X83249357Y-89110551D01*
X83813330Y-89344733D01*
X84423991Y-89345265D01*
X84988371Y-89112068D01*
X85067998Y-89032580D01*
X85067998Y-90607998D01*
X85131559Y-90927539D01*
X85312564Y-91198432D01*
X88198566Y-94084434D01*
X88469459Y-94265439D01*
X88789000Y-94329000D01*
X95647000Y-94329000D01*
X95966541Y-94265439D01*
X96237434Y-94084434D01*
X98049434Y-92272434D01*
X98145581Y-92128540D01*
X98230439Y-92001541D01*
X98294000Y-91682000D01*
X98294000Y-90171061D01*
X98388371Y-90132068D01*
X98520421Y-90000249D01*
X98544890Y-90024718D01*
X98659447Y-89910161D01*
X98745852Y-90166643D01*
X99319336Y-90376458D01*
X99929460Y-90350839D01*
X100374148Y-90166643D01*
X100460553Y-89910161D01*
X100531951Y-89981559D01*
X100425182Y-90088141D01*
X100080393Y-90918486D01*
X100079609Y-91817570D01*
X100422948Y-92648515D01*
X101058141Y-93284818D01*
X101888486Y-93629607D01*
X102787570Y-93630391D01*
X103618515Y-93287052D01*
X104254818Y-92651859D01*
X104599607Y-91821514D01*
X104600391Y-90922430D01*
X104257052Y-90091485D01*
X103621859Y-89455182D01*
X102791514Y-89110393D01*
X101892430Y-89109609D01*
X101061485Y-89452948D01*
X100912000Y-89602172D01*
X101106458Y-89070664D01*
X101080839Y-88460540D01*
X100937294Y-88113991D01*
X102584735Y-88113991D01*
X102817932Y-88678371D01*
X103249357Y-89110551D01*
X103813330Y-89344733D01*
X104423991Y-89345265D01*
X104988371Y-89112068D01*
X105420551Y-88680643D01*
X105654733Y-88116670D01*
X105655265Y-87506009D01*
X105422068Y-86941629D01*
X104990643Y-86509449D01*
X104426670Y-86275267D01*
X103816009Y-86274735D01*
X103251629Y-86507932D01*
X102819449Y-86939357D01*
X102585267Y-87503330D01*
X102584735Y-88113991D01*
X100937294Y-88113991D01*
X100896643Y-88015852D01*
X100640159Y-87929446D01*
X99739605Y-88830000D01*
X99753748Y-88844143D01*
X99574143Y-89023748D01*
X99560000Y-89009605D01*
X99545858Y-89023748D01*
X99366253Y-88844143D01*
X99380395Y-88830000D01*
X99366253Y-88815858D01*
X99545858Y-88636253D01*
X99560000Y-88650395D01*
X100460554Y-87749841D01*
X100374148Y-87493357D01*
X100064949Y-87380233D01*
X100074733Y-87356670D01*
X100075265Y-86746009D01*
X99842068Y-86181629D01*
X99410643Y-85749449D01*
X99375000Y-85734649D01*
X99375000Y-83225644D01*
X99689357Y-83540551D01*
X100253330Y-83774733D01*
X100863991Y-83775265D01*
X101428371Y-83542068D01*
X101705104Y-83265818D01*
X101979357Y-83540551D01*
X102543330Y-83774733D01*
X103153991Y-83775265D01*
X103718371Y-83542068D01*
X104150551Y-83110643D01*
X104384733Y-82546670D01*
X104385265Y-81936009D01*
X104152068Y-81371629D01*
X103720643Y-80939449D01*
X103156670Y-80705267D01*
X102546009Y-80704735D01*
X101981629Y-80937932D01*
X101704896Y-81214182D01*
X101430643Y-80939449D01*
X100866670Y-80705267D01*
X100256009Y-80704735D01*
X99691629Y-80937932D01*
X99375000Y-81254008D01*
X99375000Y-73801868D01*
X101153827Y-72023041D01*
X101332775Y-72023197D01*
X101750086Y-71850767D01*
X102069645Y-71531765D01*
X102242803Y-71114756D01*
X102243197Y-70663225D01*
X102070767Y-70245914D01*
X101751765Y-69926355D01*
X101481052Y-69813944D01*
X101481197Y-69647225D01*
X101308767Y-69229914D01*
X100989765Y-68910355D01*
X100719052Y-68797944D01*
X100719197Y-68631225D01*
X100546767Y-68213914D01*
X100227765Y-67894355D01*
X99957052Y-67781944D01*
X99957197Y-67615225D01*
X99784767Y-67197914D01*
X99465765Y-66878355D01*
X99048756Y-66705197D01*
X98597225Y-66704803D01*
X98179914Y-66877233D01*
X97860355Y-67196235D01*
X97687197Y-67613244D01*
X97687039Y-67794093D01*
X92389566Y-73091566D01*
X92208561Y-73362459D01*
X92145000Y-73682000D01*
X92145000Y-80878973D01*
X91726670Y-80705267D01*
X91116009Y-80704735D01*
X90551629Y-80937932D01*
X90274896Y-81214182D01*
X90000643Y-80939449D01*
X89436670Y-80705267D01*
X88826009Y-80704735D01*
X88261629Y-80937932D01*
X88100000Y-81099279D01*
X88100000Y-68820868D01*
X88961827Y-67959041D01*
X89140775Y-67959197D01*
X89558086Y-67786767D01*
X89877645Y-67467765D01*
X90050803Y-67050756D01*
X90050961Y-66869907D01*
X91030434Y-65890434D01*
X91049945Y-65861233D01*
X91211439Y-65619541D01*
X91275000Y-65300000D01*
X91275000Y-61835868D01*
X96110434Y-57000434D01*
X96291439Y-56729541D01*
X96355000Y-56410000D01*
X96355000Y-52754058D01*
X96444943Y-52716894D01*
X96905278Y-52257363D01*
X97154716Y-51656648D01*
X97155284Y-51006205D01*
X96906894Y-50405057D01*
X96888869Y-50387000D01*
X98984132Y-50387000D01*
X100517566Y-51920434D01*
X100788460Y-52101440D01*
X101108000Y-52165000D01*
X104239146Y-52165000D01*
X104276838Y-52365317D01*
X104415910Y-52581441D01*
X104628110Y-52726431D01*
X104845000Y-52770352D01*
X104845000Y-55215917D01*
X104464176Y-55596077D01*
X104245250Y-56123309D01*
X104244752Y-56694187D01*
X104462757Y-57221800D01*
X104845000Y-57604710D01*
X104845000Y-60728000D01*
X104908561Y-61047541D01*
X104990693Y-61170460D01*
X105089566Y-61318434D01*
X106877000Y-63105868D01*
X106877000Y-65037811D01*
X106750355Y-65164235D01*
X106742946Y-65182078D01*
X106307041Y-64746173D01*
X106307197Y-64567225D01*
X106134767Y-64149914D01*
X105815765Y-63830355D01*
X105398756Y-63657197D01*
X104947225Y-63656803D01*
X104529914Y-63829233D01*
X104210355Y-64148235D01*
X104037197Y-64565244D01*
X104036803Y-65016775D01*
X104209233Y-65434086D01*
X104528235Y-65753645D01*
X104945244Y-65926803D01*
X105126093Y-65926961D01*
X107546998Y-68347866D01*
X107546998Y-90607998D01*
X107610559Y-90927539D01*
X107791564Y-91198432D01*
X110677566Y-94084434D01*
X110948459Y-94265439D01*
X111268000Y-94329000D01*
X118126000Y-94329000D01*
X118445541Y-94265439D01*
X118716434Y-94084434D01*
X120528434Y-92272434D01*
X120624581Y-92128540D01*
X120709439Y-92001541D01*
X120773000Y-91682000D01*
X120773000Y-90179738D01*
X120888371Y-90132068D01*
X121020421Y-90000249D01*
X121044890Y-90024718D01*
X121159447Y-89910161D01*
X121245852Y-90166643D01*
X121819336Y-90376458D01*
X122429460Y-90350839D01*
X122874148Y-90166643D01*
X122960553Y-89910161D01*
X123031951Y-89981559D01*
X122925182Y-90088141D01*
X122580393Y-90918486D01*
X122579609Y-91817570D01*
X122922948Y-92648515D01*
X123558141Y-93284818D01*
X124388486Y-93629607D01*
X125287570Y-93630391D01*
X126118515Y-93287052D01*
X126754818Y-92651859D01*
X127099607Y-91821514D01*
X127100391Y-90922430D01*
X126757052Y-90091485D01*
X126121859Y-89455182D01*
X125291514Y-89110393D01*
X124392430Y-89109609D01*
X123561485Y-89452948D01*
X123412000Y-89602172D01*
X123606458Y-89070664D01*
X123580839Y-88460540D01*
X123396643Y-88015852D01*
X123140159Y-87929446D01*
X122239605Y-88830000D01*
X122253748Y-88844143D01*
X122074143Y-89023748D01*
X122060000Y-89009605D01*
X122045858Y-89023748D01*
X121866253Y-88844143D01*
X121880395Y-88830000D01*
X121866253Y-88815858D01*
X122045858Y-88636253D01*
X122060000Y-88650395D01*
X122960554Y-87749841D01*
X122874148Y-87493357D01*
X122564949Y-87380233D01*
X122574733Y-87356670D01*
X122575265Y-86746009D01*
X122342068Y-86181629D01*
X121910643Y-85749449D01*
X121875000Y-85734649D01*
X121875000Y-83225644D01*
X122189357Y-83540551D01*
X122753330Y-83774733D01*
X123363991Y-83775265D01*
X123928371Y-83542068D01*
X124205104Y-83265818D01*
X124479357Y-83540551D01*
X125043330Y-83774733D01*
X125653991Y-83775265D01*
X126218371Y-83542068D01*
X126650551Y-83110643D01*
X126884733Y-82546670D01*
X126885265Y-81936009D01*
X126652068Y-81371629D01*
X126220643Y-80939449D01*
X125656670Y-80705267D01*
X125046009Y-80704735D01*
X124481629Y-80937932D01*
X124204896Y-81214182D01*
X123930643Y-80939449D01*
X123366670Y-80705267D01*
X122756009Y-80704735D01*
X122191629Y-80937932D01*
X121875000Y-81254008D01*
X121875000Y-73399868D01*
X123251827Y-72023041D01*
X123430775Y-72023197D01*
X123848086Y-71850767D01*
X124167645Y-71531765D01*
X124324104Y-71154972D01*
X127612998Y-74443866D01*
X127612998Y-86632018D01*
X127490643Y-86509449D01*
X126926670Y-86275267D01*
X126316009Y-86274735D01*
X125751629Y-86507932D01*
X125319449Y-86939357D01*
X125085267Y-87503330D01*
X125084735Y-88113991D01*
X125317932Y-88678371D01*
X125749357Y-89110551D01*
X126313330Y-89344733D01*
X126923991Y-89345265D01*
X127488371Y-89112068D01*
X127612998Y-88987659D01*
X127612998Y-90734998D01*
X127676559Y-91054539D01*
X127795784Y-91232971D01*
X127857564Y-91325432D01*
X130743566Y-94211434D01*
X131014459Y-94392439D01*
X131334000Y-94456000D01*
X138192000Y-94456000D01*
X138511541Y-94392439D01*
X138782434Y-94211434D01*
X140594434Y-92399434D01*
X140775439Y-92128541D01*
X140839000Y-91809000D01*
X140839000Y-90152468D01*
X140888371Y-90132068D01*
X141020421Y-90000249D01*
X141044890Y-90024718D01*
X141159447Y-89910161D01*
X141245852Y-90166643D01*
X141819336Y-90376458D01*
X142429460Y-90350839D01*
X142874148Y-90166643D01*
X142960553Y-89910161D01*
X143031951Y-89981559D01*
X142925182Y-90088141D01*
X142580393Y-90918486D01*
X142579609Y-91817570D01*
X142922948Y-92648515D01*
X143558141Y-93284818D01*
X144388486Y-93629607D01*
X145287570Y-93630391D01*
X146118515Y-93287052D01*
X146754818Y-92651859D01*
X147004731Y-92050000D01*
X150243173Y-92050000D01*
X150405690Y-92867029D01*
X150868500Y-93559673D01*
X151561144Y-94022483D01*
X152378173Y-94185000D01*
X152461827Y-94185000D01*
X153278856Y-94022483D01*
X153971500Y-93559673D01*
X154434310Y-92867029D01*
X154596827Y-92050000D01*
X154434310Y-91232971D01*
X153971500Y-90540327D01*
X153278856Y-90077517D01*
X152461827Y-89915000D01*
X152378173Y-89915000D01*
X151561144Y-90077517D01*
X150868500Y-90540327D01*
X150405690Y-91232971D01*
X150243173Y-92050000D01*
X147004731Y-92050000D01*
X147099607Y-91821514D01*
X147100391Y-90922430D01*
X146757052Y-90091485D01*
X146121859Y-89455182D01*
X145291514Y-89110393D01*
X144392430Y-89109609D01*
X143561485Y-89452948D01*
X143412000Y-89602172D01*
X143606458Y-89070664D01*
X143580839Y-88460540D01*
X143437294Y-88113991D01*
X145084735Y-88113991D01*
X145317932Y-88678371D01*
X145749357Y-89110551D01*
X146313330Y-89344733D01*
X146923991Y-89345265D01*
X147488371Y-89112068D01*
X147920551Y-88680643D01*
X148154733Y-88116670D01*
X148155265Y-87506009D01*
X147922068Y-86941629D01*
X147490643Y-86509449D01*
X146926670Y-86275267D01*
X146316009Y-86274735D01*
X145751629Y-86507932D01*
X145319449Y-86939357D01*
X145085267Y-87503330D01*
X145084735Y-88113991D01*
X143437294Y-88113991D01*
X143396643Y-88015852D01*
X143140159Y-87929446D01*
X142239605Y-88830000D01*
X142253748Y-88844143D01*
X142074143Y-89023748D01*
X142060000Y-89009605D01*
X142045858Y-89023748D01*
X141866253Y-88844143D01*
X141880395Y-88830000D01*
X141866253Y-88815858D01*
X142045858Y-88636253D01*
X142060000Y-88650395D01*
X142960554Y-87749841D01*
X142874148Y-87493357D01*
X142564949Y-87380233D01*
X142574733Y-87356670D01*
X142575265Y-86746009D01*
X142342068Y-86181629D01*
X141910643Y-85749449D01*
X141875000Y-85734649D01*
X141875000Y-83225644D01*
X142189357Y-83540551D01*
X142753330Y-83774733D01*
X143363991Y-83775265D01*
X143928371Y-83542068D01*
X144205104Y-83265818D01*
X144479357Y-83540551D01*
X145043330Y-83774733D01*
X145653991Y-83775265D01*
X146218371Y-83542068D01*
X146650551Y-83110643D01*
X146884733Y-82546670D01*
X146885265Y-81936009D01*
X146652068Y-81371629D01*
X146220643Y-80939449D01*
X145656670Y-80705267D01*
X145046009Y-80704735D01*
X144481629Y-80937932D01*
X144204896Y-81214182D01*
X143930643Y-80939449D01*
X143366670Y-80705267D01*
X142756009Y-80704735D01*
X142191629Y-80937932D01*
X141875000Y-81254008D01*
X141875000Y-71958000D01*
X141853670Y-71850767D01*
X141811440Y-71638460D01*
X141630435Y-71367566D01*
X141105041Y-70842172D01*
X141105197Y-70663225D01*
X140932767Y-70245914D01*
X140613765Y-69926355D01*
X140196756Y-69753197D01*
X139745225Y-69752803D01*
X139327914Y-69925233D01*
X139008355Y-70244235D01*
X139000946Y-70262078D01*
X138565041Y-69826173D01*
X138565197Y-69647225D01*
X138392767Y-69229914D01*
X138073765Y-68910355D01*
X137656756Y-68737197D01*
X137205225Y-68736803D01*
X136787914Y-68909233D01*
X136468355Y-69228235D01*
X136460946Y-69246078D01*
X136025041Y-68810173D01*
X136025197Y-68631225D01*
X135852767Y-68213914D01*
X135533765Y-67894355D01*
X135116756Y-67721197D01*
X134665225Y-67720803D01*
X134247914Y-67893233D01*
X133928355Y-68212235D01*
X133920946Y-68230078D01*
X133485041Y-67794173D01*
X133485197Y-67615225D01*
X133312767Y-67197914D01*
X133185000Y-67069924D01*
X133185000Y-64184058D01*
X133274943Y-64146894D01*
X133735278Y-63687363D01*
X133773630Y-63595000D01*
X147244132Y-63595000D01*
X147401193Y-63752061D01*
X147345907Y-64030000D01*
X147458946Y-64598285D01*
X147780853Y-65080054D01*
X148110026Y-65300000D01*
X147780853Y-65519946D01*
X147458946Y-66001715D01*
X147345907Y-66570000D01*
X147458946Y-67138285D01*
X147780853Y-67620054D01*
X148110026Y-67840000D01*
X147780853Y-68059946D01*
X147458946Y-68541715D01*
X147345907Y-69110000D01*
X147458946Y-69678285D01*
X147780853Y-70160054D01*
X148110026Y-70380000D01*
X147780853Y-70599946D01*
X147458946Y-71081715D01*
X147345907Y-71650000D01*
X147458946Y-72218285D01*
X147780853Y-72700054D01*
X148262622Y-73021961D01*
X148830907Y-73135000D01*
X148889093Y-73135000D01*
X149457378Y-73021961D01*
X149939147Y-72700054D01*
X149939971Y-72698821D01*
X149946838Y-72735317D01*
X150085910Y-72951441D01*
X150298110Y-73096431D01*
X150550000Y-73147440D01*
X152250000Y-73147440D01*
X152485317Y-73103162D01*
X152701441Y-72964090D01*
X152846431Y-72751890D01*
X152897440Y-72500000D01*
X152897440Y-70800000D01*
X152853162Y-70564683D01*
X152714090Y-70348559D01*
X152501890Y-70203569D01*
X152434459Y-70189914D01*
X152479147Y-70160054D01*
X152801054Y-69678285D01*
X152914093Y-69110000D01*
X152801054Y-68541715D01*
X152479147Y-68059946D01*
X152149974Y-67840000D01*
X152479147Y-67620054D01*
X152801054Y-67138285D01*
X152914093Y-66570000D01*
X152801054Y-66001715D01*
X152479147Y-65519946D01*
X152149974Y-65300000D01*
X152479147Y-65080054D01*
X152801054Y-64598285D01*
X152914093Y-64030000D01*
X152801054Y-63461715D01*
X152479147Y-62979946D01*
X151997378Y-62658039D01*
X151429093Y-62545000D01*
X151370907Y-62545000D01*
X150802622Y-62658039D01*
X150320853Y-62979946D01*
X150177159Y-63195000D01*
X150082841Y-63195000D01*
X149939147Y-62979946D01*
X149457378Y-62658039D01*
X148889093Y-62545000D01*
X148830907Y-62545000D01*
X148601500Y-62590632D01*
X148180434Y-62169566D01*
X147909541Y-61988561D01*
X147590000Y-61925000D01*
X133774058Y-61925000D01*
X133736894Y-61835057D01*
X133392241Y-61489801D01*
X133735278Y-61147363D01*
X133984716Y-60546648D01*
X133985284Y-59896205D01*
X133947093Y-59803775D01*
X136750434Y-57000434D01*
X136931440Y-56729540D01*
X136995000Y-56410000D01*
X136995000Y-52754058D01*
X137084943Y-52716894D01*
X137545278Y-52257363D01*
X137631382Y-52050000D01*
X150243173Y-52050000D01*
X150405690Y-52867029D01*
X150868500Y-53559673D01*
X151561144Y-54022483D01*
X152378173Y-54185000D01*
X152461827Y-54185000D01*
X153278856Y-54022483D01*
X153971500Y-53559673D01*
X154434310Y-52867029D01*
X154596827Y-52050000D01*
X154434310Y-51232971D01*
X153971500Y-50540327D01*
X153278856Y-50077517D01*
X152461827Y-49915000D01*
X152378173Y-49915000D01*
X151561144Y-50077517D01*
X150868500Y-50540327D01*
X150405690Y-51232971D01*
X150243173Y-52050000D01*
X137631382Y-52050000D01*
X137794716Y-51656648D01*
X137795284Y-51006205D01*
X137546894Y-50405057D01*
X137087363Y-49944722D01*
X136486648Y-49695284D01*
X135836205Y-49694716D01*
X135235057Y-49943106D01*
X134774722Y-50402637D01*
X134525284Y-51003352D01*
X134524716Y-51653795D01*
X134773106Y-52254943D01*
X135232637Y-52715278D01*
X135325000Y-52753630D01*
X135325000Y-56064132D01*
X132766527Y-58622605D01*
X132676648Y-58585284D01*
X132026205Y-58584716D01*
X131425057Y-58833106D01*
X131079801Y-59177759D01*
X130737363Y-58834722D01*
X130645000Y-58796370D01*
X130645000Y-52945868D01*
X130663473Y-52927395D01*
X130753352Y-52964716D01*
X131403795Y-52965284D01*
X132004943Y-52716894D01*
X132465278Y-52257363D01*
X132714716Y-51656648D01*
X132715284Y-51006205D01*
X132466894Y-50405057D01*
X132007363Y-49944722D01*
X131406648Y-49695284D01*
X130756205Y-49694716D01*
X130155057Y-49943106D01*
X129694722Y-50402637D01*
X129445284Y-51003352D01*
X129444716Y-51653795D01*
X129482907Y-51746225D01*
X129219566Y-52009566D01*
X129038561Y-52280459D01*
X128975000Y-52600000D01*
X128975000Y-58795942D01*
X128885057Y-58833106D01*
X128539801Y-59177759D01*
X128197363Y-58834722D01*
X128105000Y-58796370D01*
X128105000Y-52600000D01*
X128041439Y-52280459D01*
X127860434Y-52009566D01*
X127597395Y-51746527D01*
X127634716Y-51656648D01*
X127635284Y-51006205D01*
X127386894Y-50405057D01*
X126927363Y-49944722D01*
X126326648Y-49695284D01*
X125676205Y-49694716D01*
X125075057Y-49943106D01*
X124614722Y-50402637D01*
X124365284Y-51003352D01*
X124364716Y-51653795D01*
X124613106Y-52254943D01*
X125072637Y-52715278D01*
X125673352Y-52964716D01*
X126323795Y-52965284D01*
X126416225Y-52927093D01*
X126435000Y-52945868D01*
X126435000Y-58795942D01*
X126345057Y-58833106D01*
X125999801Y-59177759D01*
X125657363Y-58834722D01*
X125056648Y-58585284D01*
X124406205Y-58584716D01*
X124313775Y-58622907D01*
X121755000Y-56064132D01*
X121755000Y-52754058D01*
X121844943Y-52716894D01*
X122305278Y-52257363D01*
X122554716Y-51656648D01*
X122555284Y-51006205D01*
X122306894Y-50405057D01*
X121847363Y-49944722D01*
X121246648Y-49695284D01*
X120596205Y-49694716D01*
X119995057Y-49943106D01*
X119534722Y-50402637D01*
X119285284Y-51003352D01*
X119284716Y-51653795D01*
X119533106Y-52254943D01*
X119992637Y-52715278D01*
X120085000Y-52753630D01*
X120085000Y-56410000D01*
X120148561Y-56729541D01*
X120329566Y-57000434D01*
X123132605Y-59803473D01*
X123095284Y-59893352D01*
X123094716Y-60543795D01*
X123343106Y-61144943D01*
X123687759Y-61490199D01*
X123344722Y-61832637D01*
X123095284Y-62433352D01*
X123094716Y-63083795D01*
X123343106Y-63684943D01*
X123802637Y-64145278D01*
X123895000Y-64183630D01*
X123895000Y-65300000D01*
X123958561Y-65619541D01*
X124004845Y-65688810D01*
X123997225Y-65688803D01*
X123579914Y-65861233D01*
X123260355Y-66180235D01*
X123252946Y-66198078D01*
X122817041Y-65762173D01*
X122817197Y-65583225D01*
X122644767Y-65165914D01*
X122325765Y-64846355D01*
X121908756Y-64673197D01*
X121457225Y-64672803D01*
X121039914Y-64845233D01*
X120720355Y-65164235D01*
X120712946Y-65182078D01*
X120277041Y-64746173D01*
X120277197Y-64567225D01*
X120104767Y-64149914D01*
X119785765Y-63830355D01*
X119368756Y-63657197D01*
X118917225Y-63656803D01*
X118499914Y-63829233D01*
X118180355Y-64148235D01*
X118007197Y-64565244D01*
X118006803Y-65016775D01*
X118179233Y-65434086D01*
X118498235Y-65753645D01*
X118915244Y-65926803D01*
X119096093Y-65926961D01*
X120039801Y-66870669D01*
X120023914Y-66877233D01*
X119704355Y-67196235D01*
X119531197Y-67613244D01*
X119531039Y-67794093D01*
X115249566Y-72075566D01*
X115068561Y-72346459D01*
X115005000Y-72666000D01*
X115005000Y-81154181D01*
X114790643Y-80939449D01*
X114226670Y-80705267D01*
X113616009Y-80704735D01*
X113051629Y-80937932D01*
X112774896Y-81214182D01*
X112500643Y-80939449D01*
X111936670Y-80705267D01*
X111326009Y-80704735D01*
X110761629Y-80937932D01*
X110579000Y-81120242D01*
X110579000Y-68439868D01*
X111059827Y-67959041D01*
X111238775Y-67959197D01*
X111656086Y-67786767D01*
X111975645Y-67467765D01*
X112148803Y-67050756D01*
X112149197Y-66599225D01*
X111976767Y-66181914D01*
X111657765Y-65862355D01*
X111240756Y-65689197D01*
X110789225Y-65688803D01*
X110371914Y-65861233D01*
X110052355Y-66180235D01*
X109879197Y-66597244D01*
X109879039Y-66778093D01*
X109777535Y-66879597D01*
X109753439Y-66758459D01*
X109572434Y-66487566D01*
X108847041Y-65762173D01*
X108847197Y-65583225D01*
X108674767Y-65165914D01*
X108547000Y-65037924D01*
X108547000Y-62760000D01*
X108483439Y-62440459D01*
X108302434Y-62169566D01*
X106515000Y-60382132D01*
X106515000Y-57604083D01*
X106701663Y-57417745D01*
X107351861Y-57417745D01*
X107425995Y-57663864D01*
X107963223Y-57856965D01*
X108533454Y-57829778D01*
X108934005Y-57663864D01*
X109008139Y-57417745D01*
X108180000Y-56589605D01*
X107351861Y-57417745D01*
X106701663Y-57417745D01*
X106895824Y-57223923D01*
X106923423Y-57157456D01*
X106926136Y-57164005D01*
X107172255Y-57238139D01*
X108000395Y-56410000D01*
X108359605Y-56410000D01*
X109187745Y-57238139D01*
X109433864Y-57164005D01*
X109626965Y-56626777D01*
X109599778Y-56056546D01*
X109433864Y-55655995D01*
X109187745Y-55581861D01*
X108359605Y-56410000D01*
X108000395Y-56410000D01*
X107172255Y-55581861D01*
X106926136Y-55655995D01*
X106923804Y-55662483D01*
X106897243Y-55598200D01*
X106701640Y-55402255D01*
X107351861Y-55402255D01*
X108180000Y-56230395D01*
X109008139Y-55402255D01*
X108934005Y-55156136D01*
X108396777Y-54963035D01*
X107826546Y-54990222D01*
X107425995Y-55156136D01*
X107351861Y-55402255D01*
X106701640Y-55402255D01*
X106515000Y-55215290D01*
X106515000Y-52770854D01*
X106715317Y-52733162D01*
X106931441Y-52594090D01*
X107076431Y-52381890D01*
X107085370Y-52337745D01*
X107351861Y-52337745D01*
X107425995Y-52583864D01*
X107963223Y-52776965D01*
X108533454Y-52749778D01*
X108934005Y-52583864D01*
X109008139Y-52337745D01*
X108180000Y-51509605D01*
X107351861Y-52337745D01*
X107085370Y-52337745D01*
X107124646Y-52143799D01*
X107172255Y-52158139D01*
X108000395Y-51330000D01*
X108359605Y-51330000D01*
X109187745Y-52158139D01*
X109433864Y-52084005D01*
X109626965Y-51546777D01*
X109599778Y-50976546D01*
X109433864Y-50575995D01*
X109187745Y-50501861D01*
X108359605Y-51330000D01*
X108000395Y-51330000D01*
X107172255Y-50501861D01*
X107124833Y-50516145D01*
X107088351Y-50322255D01*
X107351861Y-50322255D01*
X108180000Y-51150395D01*
X109008139Y-50322255D01*
X108934005Y-50076136D01*
X108396777Y-49883035D01*
X107826546Y-49910222D01*
X107425995Y-50076136D01*
X107351861Y-50322255D01*
X107088351Y-50322255D01*
X107083162Y-50294683D01*
X106944090Y-50078559D01*
X106731890Y-49933569D01*
X106480000Y-49882560D01*
X104880000Y-49882560D01*
X104644683Y-49926838D01*
X104428559Y-50065910D01*
X104283569Y-50278110D01*
X104239648Y-50495000D01*
X101453868Y-50495000D01*
X99920434Y-48961566D01*
X99649541Y-48780561D01*
X99330000Y-48717000D01*
X92218000Y-48717000D01*
X91898460Y-48780560D01*
X91627566Y-48961566D01*
X90856527Y-49732605D01*
X90766648Y-49695284D01*
X90116205Y-49694716D01*
X89515057Y-49943106D01*
X89054722Y-50402637D01*
X88805284Y-51003352D01*
X88804716Y-51653795D01*
X89053106Y-52254943D01*
X89512637Y-52715278D01*
X89605000Y-52753630D01*
X89605000Y-53524132D01*
X88824132Y-54305000D01*
X78085868Y-54305000D01*
X76263400Y-52482532D01*
X79307073Y-52482532D01*
X79405736Y-52749387D01*
X80015461Y-52975908D01*
X80665460Y-52951856D01*
X81154264Y-52749387D01*
X81252927Y-52482532D01*
X80280000Y-51509605D01*
X79307073Y-52482532D01*
X76263400Y-52482532D01*
X75364779Y-51583911D01*
X75365230Y-51065461D01*
X78634092Y-51065461D01*
X78658144Y-51715460D01*
X78860613Y-52204264D01*
X79127468Y-52302927D01*
X80100395Y-51330000D01*
X80459605Y-51330000D01*
X81432532Y-52302927D01*
X81699387Y-52204264D01*
X81903893Y-51653795D01*
X83724716Y-51653795D01*
X83973106Y-52254943D01*
X84432637Y-52715278D01*
X85033352Y-52964716D01*
X85683795Y-52965284D01*
X86284943Y-52716894D01*
X86745278Y-52257363D01*
X86994716Y-51656648D01*
X86995284Y-51006205D01*
X86746894Y-50405057D01*
X86287363Y-49944722D01*
X85686648Y-49695284D01*
X85036205Y-49694716D01*
X84435057Y-49943106D01*
X83974722Y-50402637D01*
X83725284Y-51003352D01*
X83724716Y-51653795D01*
X81903893Y-51653795D01*
X81925908Y-51594539D01*
X81901856Y-50944540D01*
X81699387Y-50455736D01*
X81432532Y-50357073D01*
X80459605Y-51330000D01*
X80100395Y-51330000D01*
X79127468Y-50357073D01*
X78860613Y-50455736D01*
X78634092Y-51065461D01*
X75365230Y-51065461D01*
X75365248Y-51045813D01*
X75147243Y-50518200D01*
X74807105Y-50177468D01*
X79307073Y-50177468D01*
X80280000Y-51150395D01*
X81252927Y-50177468D01*
X81154264Y-49910613D01*
X80544539Y-49684092D01*
X79894540Y-49708144D01*
X79405736Y-49910613D01*
X79307073Y-50177468D01*
X74807105Y-50177468D01*
X74743923Y-50114176D01*
X74216691Y-49895250D01*
X73645813Y-49894752D01*
X73118200Y-50112757D01*
X72735290Y-50495000D01*
X72584083Y-50495000D01*
X72203923Y-50114176D01*
X71676691Y-49895250D01*
X71105813Y-49894752D01*
X70578200Y-50112757D01*
X70174176Y-50516077D01*
X69955250Y-51043309D01*
X69954752Y-51614187D01*
X70172757Y-52141800D01*
X70576077Y-52545824D01*
X71103309Y-52764750D01*
X71674187Y-52765248D01*
X72201800Y-52547243D01*
X72584710Y-52165000D01*
X72735917Y-52165000D01*
X73116077Y-52545824D01*
X73643309Y-52764750D01*
X74184354Y-52765222D01*
X77149566Y-55730434D01*
X77420460Y-55911440D01*
X77740000Y-55975000D01*
X89170000Y-55975000D01*
X89489541Y-55911439D01*
X89760434Y-55730434D01*
X91030434Y-54460434D01*
X91211439Y-54189541D01*
X91275000Y-53870000D01*
X91275000Y-52754058D01*
X91364943Y-52716894D01*
X91825278Y-52257363D01*
X92074716Y-51656648D01*
X92075284Y-51006205D01*
X92037093Y-50913775D01*
X92563868Y-50387000D01*
X94150386Y-50387000D01*
X94134722Y-50402637D01*
X93885284Y-51003352D01*
X93884716Y-51653795D01*
X94133106Y-52254943D01*
X94592637Y-52715278D01*
X94685000Y-52753630D01*
X94685000Y-56064132D01*
X90094132Y-60655000D01*
X75083553Y-60655000D01*
X74944698Y-60447189D01*
X74479151Y-60136120D01*
X73930000Y-60026887D01*
X73380849Y-60136120D01*
X72915302Y-60447189D01*
X72660000Y-60829275D01*
X72404698Y-60447189D01*
X71939151Y-60136120D01*
X71390000Y-60026887D01*
X70840849Y-60136120D01*
X70375302Y-60447189D01*
X70064233Y-60912736D01*
X69955000Y-61461887D01*
X69955000Y-61518113D01*
X70064233Y-62067264D01*
X70375302Y-62532811D01*
X70555000Y-62652882D01*
X70555000Y-64030000D01*
X70618561Y-64349541D01*
X70762689Y-64565244D01*
X70799566Y-64620434D01*
X71914132Y-65735000D01*
X66262841Y-65735000D01*
X66119147Y-65519946D01*
X65778447Y-65292298D01*
X65921358Y-65225183D01*
X66311645Y-64796924D01*
X66481476Y-64386890D01*
X66360155Y-64157000D01*
X65167000Y-64157000D01*
X65167000Y-64177000D01*
X64913000Y-64177000D01*
X64913000Y-64157000D01*
X62627000Y-64157000D01*
X62627000Y-64177000D01*
X62373000Y-64177000D01*
X62373000Y-64157000D01*
X61173750Y-64157000D01*
X61015000Y-64315750D01*
X61015000Y-65006310D01*
X61111673Y-65239699D01*
X61290302Y-65418327D01*
X61464777Y-65490597D01*
X61420853Y-65519946D01*
X61098946Y-66001715D01*
X60985907Y-66570000D01*
X58130000Y-66570000D01*
X58130000Y-63053690D01*
X61015000Y-63053690D01*
X61015000Y-63744250D01*
X61173750Y-63903000D01*
X62373000Y-63903000D01*
X62373000Y-62703750D01*
X62627000Y-62703750D01*
X62627000Y-63903000D01*
X64913000Y-63903000D01*
X64913000Y-62709181D01*
X65167000Y-62709181D01*
X65167000Y-63903000D01*
X66360155Y-63903000D01*
X66481476Y-63673110D01*
X66311645Y-63263076D01*
X65921358Y-62834817D01*
X65396892Y-62588514D01*
X65167000Y-62709181D01*
X64913000Y-62709181D01*
X64683108Y-62588514D01*
X64158642Y-62834817D01*
X63976930Y-63034208D01*
X63888327Y-62820301D01*
X63709698Y-62641673D01*
X63476309Y-62545000D01*
X62785750Y-62545000D01*
X62627000Y-62703750D01*
X62373000Y-62703750D01*
X62214250Y-62545000D01*
X61523691Y-62545000D01*
X61290302Y-62641673D01*
X61111673Y-62820301D01*
X61015000Y-63053690D01*
X58130000Y-63053690D01*
X58130000Y-52050000D01*
X60243173Y-52050000D01*
X60405690Y-52867029D01*
X60868500Y-53559673D01*
X61561144Y-54022483D01*
X62378173Y-54185000D01*
X62461827Y-54185000D01*
X63278856Y-54022483D01*
X63971500Y-53559673D01*
X64434310Y-52867029D01*
X64596827Y-52050000D01*
X64434310Y-51232971D01*
X63971500Y-50540327D01*
X63278856Y-50077517D01*
X62461827Y-49915000D01*
X62378173Y-49915000D01*
X61561144Y-50077517D01*
X60868500Y-50540327D01*
X60405690Y-51232971D01*
X60243173Y-52050000D01*
X58130000Y-52050000D01*
X58130000Y-47760000D01*
X156710000Y-47760000D01*
X156710000Y-96340000D01*
X156710000Y-96340000D01*
G37*
X156710000Y-96340000D02*
X58130000Y-96340000D01*
X58130000Y-92050000D01*
X60243173Y-92050000D01*
X60405690Y-92867029D01*
X60868500Y-93559673D01*
X61561144Y-94022483D01*
X62378173Y-94185000D01*
X62461827Y-94185000D01*
X63278856Y-94022483D01*
X63971500Y-93559673D01*
X64434310Y-92867029D01*
X64596827Y-92050000D01*
X64434310Y-91232971D01*
X63971500Y-90540327D01*
X63278856Y-90077517D01*
X62461827Y-89915000D01*
X62378173Y-89915000D01*
X61561144Y-90077517D01*
X60868500Y-90540327D01*
X60405690Y-91232971D01*
X60243173Y-92050000D01*
X58130000Y-92050000D01*
X58130000Y-66570000D01*
X60985907Y-66570000D01*
X61098946Y-67138285D01*
X61420853Y-67620054D01*
X61750026Y-67840000D01*
X61420853Y-68059946D01*
X61098946Y-68541715D01*
X60985907Y-69110000D01*
X61098946Y-69678285D01*
X61420853Y-70160054D01*
X61750026Y-70380000D01*
X61420853Y-70599946D01*
X61098946Y-71081715D01*
X60985907Y-71650000D01*
X61098946Y-72218285D01*
X61420853Y-72700054D01*
X61902622Y-73021961D01*
X62470907Y-73135000D01*
X62529093Y-73135000D01*
X63097378Y-73021961D01*
X63579147Y-72700054D01*
X63770000Y-72414422D01*
X63960853Y-72700054D01*
X64442622Y-73021961D01*
X65010907Y-73135000D01*
X65069093Y-73135000D01*
X65637378Y-73021961D01*
X66119147Y-72700054D01*
X66441054Y-72218285D01*
X66554093Y-71650000D01*
X66441054Y-71081715D01*
X66119147Y-70599946D01*
X65789974Y-70380000D01*
X66119147Y-70160054D01*
X66441054Y-69678285D01*
X66554093Y-69110000D01*
X66441054Y-68541715D01*
X66119147Y-68059946D01*
X65789974Y-67840000D01*
X66119147Y-67620054D01*
X66262841Y-67405000D01*
X74184000Y-67405000D01*
X74503541Y-67341439D01*
X74774434Y-67160434D01*
X76307868Y-65627000D01*
X78010132Y-65627000D01*
X65373564Y-78263568D01*
X65192559Y-78534461D01*
X65128998Y-78854002D01*
X65128998Y-90607998D01*
X65192559Y-90927539D01*
X65373564Y-91198432D01*
X68259566Y-94084434D01*
X68530459Y-94265439D01*
X68850000Y-94329000D01*
X75708000Y-94329000D01*
X76027541Y-94265439D01*
X76298434Y-94084434D01*
X78110434Y-92272434D01*
X78206581Y-92128540D01*
X78291439Y-92001541D01*
X78355000Y-91682000D01*
X78355000Y-90145857D01*
X78388371Y-90132068D01*
X78520421Y-90000249D01*
X78544890Y-90024718D01*
X78659447Y-89910161D01*
X78745852Y-90166643D01*
X79319336Y-90376458D01*
X79929460Y-90350839D01*
X80374148Y-90166643D01*
X80460553Y-89910161D01*
X80531951Y-89981559D01*
X80425182Y-90088141D01*
X80080393Y-90918486D01*
X80079609Y-91817570D01*
X80422948Y-92648515D01*
X81058141Y-93284818D01*
X81888486Y-93629607D01*
X82787570Y-93630391D01*
X83618515Y-93287052D01*
X84254818Y-92651859D01*
X84599607Y-91821514D01*
X84600391Y-90922430D01*
X84257052Y-90091485D01*
X83621859Y-89455182D01*
X82791514Y-89110393D01*
X81892430Y-89109609D01*
X81061485Y-89452948D01*
X80912000Y-89602172D01*
X81106458Y-89070664D01*
X81080839Y-88460540D01*
X80896643Y-88015852D01*
X80640159Y-87929446D01*
X79739605Y-88830000D01*
X79753748Y-88844143D01*
X79574143Y-89023748D01*
X79560000Y-89009605D01*
X79545858Y-89023748D01*
X79366253Y-88844143D01*
X79380395Y-88830000D01*
X79366253Y-88815858D01*
X79545858Y-88636253D01*
X79560000Y-88650395D01*
X80460554Y-87749841D01*
X80374148Y-87493357D01*
X80064949Y-87380233D01*
X80074733Y-87356670D01*
X80075265Y-86746009D01*
X79842068Y-86181629D01*
X79410643Y-85749449D01*
X79375000Y-85734649D01*
X79375000Y-83225644D01*
X79689357Y-83540551D01*
X80253330Y-83774733D01*
X80863991Y-83775265D01*
X81428371Y-83542068D01*
X81705104Y-83265818D01*
X81979357Y-83540551D01*
X82543330Y-83774733D01*
X83153991Y-83775265D01*
X83718371Y-83542068D01*
X84150551Y-83110643D01*
X84384733Y-82546670D01*
X84385265Y-81936009D01*
X84152068Y-81371629D01*
X83720643Y-80939449D01*
X83156670Y-80705267D01*
X82546009Y-80704735D01*
X81981629Y-80937932D01*
X81704896Y-81214182D01*
X81430643Y-80939449D01*
X80866670Y-80705267D01*
X80256009Y-80704735D01*
X79691629Y-80937932D01*
X79375000Y-81254008D01*
X79375000Y-77545868D01*
X84897827Y-72023041D01*
X85067998Y-72023189D01*
X85067998Y-86586939D01*
X84990643Y-86509449D01*
X84426670Y-86275267D01*
X83816009Y-86274735D01*
X83251629Y-86507932D01*
X82819449Y-86939357D01*
X82585267Y-87503330D01*
X82584735Y-88113991D01*
X82817932Y-88678371D01*
X83249357Y-89110551D01*
X83813330Y-89344733D01*
X84423991Y-89345265D01*
X84988371Y-89112068D01*
X85067998Y-89032580D01*
X85067998Y-90607998D01*
X85131559Y-90927539D01*
X85312564Y-91198432D01*
X88198566Y-94084434D01*
X88469459Y-94265439D01*
X88789000Y-94329000D01*
X95647000Y-94329000D01*
X95966541Y-94265439D01*
X96237434Y-94084434D01*
X98049434Y-92272434D01*
X98145581Y-92128540D01*
X98230439Y-92001541D01*
X98294000Y-91682000D01*
X98294000Y-90171061D01*
X98388371Y-90132068D01*
X98520421Y-90000249D01*
X98544890Y-90024718D01*
X98659447Y-89910161D01*
X98745852Y-90166643D01*
X99319336Y-90376458D01*
X99929460Y-90350839D01*
X100374148Y-90166643D01*
X100460553Y-89910161D01*
X100531951Y-89981559D01*
X100425182Y-90088141D01*
X100080393Y-90918486D01*
X100079609Y-91817570D01*
X100422948Y-92648515D01*
X101058141Y-93284818D01*
X101888486Y-93629607D01*
X102787570Y-93630391D01*
X103618515Y-93287052D01*
X104254818Y-92651859D01*
X104599607Y-91821514D01*
X104600391Y-90922430D01*
X104257052Y-90091485D01*
X103621859Y-89455182D01*
X102791514Y-89110393D01*
X101892430Y-89109609D01*
X101061485Y-89452948D01*
X100912000Y-89602172D01*
X101106458Y-89070664D01*
X101080839Y-88460540D01*
X100937294Y-88113991D01*
X102584735Y-88113991D01*
X102817932Y-88678371D01*
X103249357Y-89110551D01*
X103813330Y-89344733D01*
X104423991Y-89345265D01*
X104988371Y-89112068D01*
X105420551Y-88680643D01*
X105654733Y-88116670D01*
X105655265Y-87506009D01*
X105422068Y-86941629D01*
X104990643Y-86509449D01*
X104426670Y-86275267D01*
X103816009Y-86274735D01*
X103251629Y-86507932D01*
X102819449Y-86939357D01*
X102585267Y-87503330D01*
X102584735Y-88113991D01*
X100937294Y-88113991D01*
X100896643Y-88015852D01*
X100640159Y-87929446D01*
X99739605Y-88830000D01*
X99753748Y-88844143D01*
X99574143Y-89023748D01*
X99560000Y-89009605D01*
X99545858Y-89023748D01*
X99366253Y-88844143D01*
X99380395Y-88830000D01*
X99366253Y-88815858D01*
X99545858Y-88636253D01*
X99560000Y-88650395D01*
X100460554Y-87749841D01*
X100374148Y-87493357D01*
X100064949Y-87380233D01*
X100074733Y-87356670D01*
X100075265Y-86746009D01*
X99842068Y-86181629D01*
X99410643Y-85749449D01*
X99375000Y-85734649D01*
X99375000Y-83225644D01*
X99689357Y-83540551D01*
X100253330Y-83774733D01*
X100863991Y-83775265D01*
X101428371Y-83542068D01*
X101705104Y-83265818D01*
X101979357Y-83540551D01*
X102543330Y-83774733D01*
X103153991Y-83775265D01*
X103718371Y-83542068D01*
X104150551Y-83110643D01*
X104384733Y-82546670D01*
X104385265Y-81936009D01*
X104152068Y-81371629D01*
X103720643Y-80939449D01*
X103156670Y-80705267D01*
X102546009Y-80704735D01*
X101981629Y-80937932D01*
X101704896Y-81214182D01*
X101430643Y-80939449D01*
X100866670Y-80705267D01*
X100256009Y-80704735D01*
X99691629Y-80937932D01*
X99375000Y-81254008D01*
X99375000Y-73801868D01*
X101153827Y-72023041D01*
X101332775Y-72023197D01*
X101750086Y-71850767D01*
X102069645Y-71531765D01*
X102242803Y-71114756D01*
X102243197Y-70663225D01*
X102070767Y-70245914D01*
X101751765Y-69926355D01*
X101481052Y-69813944D01*
X101481197Y-69647225D01*
X101308767Y-69229914D01*
X100989765Y-68910355D01*
X100719052Y-68797944D01*
X100719197Y-68631225D01*
X100546767Y-68213914D01*
X100227765Y-67894355D01*
X99957052Y-67781944D01*
X99957197Y-67615225D01*
X99784767Y-67197914D01*
X99465765Y-66878355D01*
X99048756Y-66705197D01*
X98597225Y-66704803D01*
X98179914Y-66877233D01*
X97860355Y-67196235D01*
X97687197Y-67613244D01*
X97687039Y-67794093D01*
X92389566Y-73091566D01*
X92208561Y-73362459D01*
X92145000Y-73682000D01*
X92145000Y-80878973D01*
X91726670Y-80705267D01*
X91116009Y-80704735D01*
X90551629Y-80937932D01*
X90274896Y-81214182D01*
X90000643Y-80939449D01*
X89436670Y-80705267D01*
X88826009Y-80704735D01*
X88261629Y-80937932D01*
X88100000Y-81099279D01*
X88100000Y-68820868D01*
X88961827Y-67959041D01*
X89140775Y-67959197D01*
X89558086Y-67786767D01*
X89877645Y-67467765D01*
X90050803Y-67050756D01*
X90050961Y-66869907D01*
X91030434Y-65890434D01*
X91049945Y-65861233D01*
X91211439Y-65619541D01*
X91275000Y-65300000D01*
X91275000Y-61835868D01*
X96110434Y-57000434D01*
X96291439Y-56729541D01*
X96355000Y-56410000D01*
X96355000Y-52754058D01*
X96444943Y-52716894D01*
X96905278Y-52257363D01*
X97154716Y-51656648D01*
X97155284Y-51006205D01*
X96906894Y-50405057D01*
X96888869Y-50387000D01*
X98984132Y-50387000D01*
X100517566Y-51920434D01*
X100788460Y-52101440D01*
X101108000Y-52165000D01*
X104239146Y-52165000D01*
X104276838Y-52365317D01*
X104415910Y-52581441D01*
X104628110Y-52726431D01*
X104845000Y-52770352D01*
X104845000Y-55215917D01*
X104464176Y-55596077D01*
X104245250Y-56123309D01*
X104244752Y-56694187D01*
X104462757Y-57221800D01*
X104845000Y-57604710D01*
X104845000Y-60728000D01*
X104908561Y-61047541D01*
X104990693Y-61170460D01*
X105089566Y-61318434D01*
X106877000Y-63105868D01*
X106877000Y-65037811D01*
X106750355Y-65164235D01*
X106742946Y-65182078D01*
X106307041Y-64746173D01*
X106307197Y-64567225D01*
X106134767Y-64149914D01*
X105815765Y-63830355D01*
X105398756Y-63657197D01*
X104947225Y-63656803D01*
X104529914Y-63829233D01*
X104210355Y-64148235D01*
X104037197Y-64565244D01*
X104036803Y-65016775D01*
X104209233Y-65434086D01*
X104528235Y-65753645D01*
X104945244Y-65926803D01*
X105126093Y-65926961D01*
X107546998Y-68347866D01*
X107546998Y-90607998D01*
X107610559Y-90927539D01*
X107791564Y-91198432D01*
X110677566Y-94084434D01*
X110948459Y-94265439D01*
X111268000Y-94329000D01*
X118126000Y-94329000D01*
X118445541Y-94265439D01*
X118716434Y-94084434D01*
X120528434Y-92272434D01*
X120624581Y-92128540D01*
X120709439Y-92001541D01*
X120773000Y-91682000D01*
X120773000Y-90179738D01*
X120888371Y-90132068D01*
X121020421Y-90000249D01*
X121044890Y-90024718D01*
X121159447Y-89910161D01*
X121245852Y-90166643D01*
X121819336Y-90376458D01*
X122429460Y-90350839D01*
X122874148Y-90166643D01*
X122960553Y-89910161D01*
X123031951Y-89981559D01*
X122925182Y-90088141D01*
X122580393Y-90918486D01*
X122579609Y-91817570D01*
X122922948Y-92648515D01*
X123558141Y-93284818D01*
X124388486Y-93629607D01*
X125287570Y-93630391D01*
X126118515Y-93287052D01*
X126754818Y-92651859D01*
X127099607Y-91821514D01*
X127100391Y-90922430D01*
X126757052Y-90091485D01*
X126121859Y-89455182D01*
X125291514Y-89110393D01*
X124392430Y-89109609D01*
X123561485Y-89452948D01*
X123412000Y-89602172D01*
X123606458Y-89070664D01*
X123580839Y-88460540D01*
X123396643Y-88015852D01*
X123140159Y-87929446D01*
X122239605Y-88830000D01*
X122253748Y-88844143D01*
X122074143Y-89023748D01*
X122060000Y-89009605D01*
X122045858Y-89023748D01*
X121866253Y-88844143D01*
X121880395Y-88830000D01*
X121866253Y-88815858D01*
X122045858Y-88636253D01*
X122060000Y-88650395D01*
X122960554Y-87749841D01*
X122874148Y-87493357D01*
X122564949Y-87380233D01*
X122574733Y-87356670D01*
X122575265Y-86746009D01*
X122342068Y-86181629D01*
X121910643Y-85749449D01*
X121875000Y-85734649D01*
X121875000Y-83225644D01*
X122189357Y-83540551D01*
X122753330Y-83774733D01*
X123363991Y-83775265D01*
X123928371Y-83542068D01*
X124205104Y-83265818D01*
X124479357Y-83540551D01*
X125043330Y-83774733D01*
X125653991Y-83775265D01*
X126218371Y-83542068D01*
X126650551Y-83110643D01*
X126884733Y-82546670D01*
X126885265Y-81936009D01*
X126652068Y-81371629D01*
X126220643Y-80939449D01*
X125656670Y-80705267D01*
X125046009Y-80704735D01*
X124481629Y-80937932D01*
X124204896Y-81214182D01*
X123930643Y-80939449D01*
X123366670Y-80705267D01*
X122756009Y-80704735D01*
X122191629Y-80937932D01*
X121875000Y-81254008D01*
X121875000Y-73399868D01*
X123251827Y-72023041D01*
X123430775Y-72023197D01*
X123848086Y-71850767D01*
X124167645Y-71531765D01*
X124324104Y-71154972D01*
X127612998Y-74443866D01*
X127612998Y-86632018D01*
X127490643Y-86509449D01*
X126926670Y-86275267D01*
X126316009Y-86274735D01*
X125751629Y-86507932D01*
X125319449Y-86939357D01*
X125085267Y-87503330D01*
X125084735Y-88113991D01*
X125317932Y-88678371D01*
X125749357Y-89110551D01*
X126313330Y-89344733D01*
X126923991Y-89345265D01*
X127488371Y-89112068D01*
X127612998Y-88987659D01*
X127612998Y-90734998D01*
X127676559Y-91054539D01*
X127795784Y-91232971D01*
X127857564Y-91325432D01*
X130743566Y-94211434D01*
X131014459Y-94392439D01*
X131334000Y-94456000D01*
X138192000Y-94456000D01*
X138511541Y-94392439D01*
X138782434Y-94211434D01*
X140594434Y-92399434D01*
X140775439Y-92128541D01*
X140839000Y-91809000D01*
X140839000Y-90152468D01*
X140888371Y-90132068D01*
X141020421Y-90000249D01*
X141044890Y-90024718D01*
X141159447Y-89910161D01*
X141245852Y-90166643D01*
X141819336Y-90376458D01*
X142429460Y-90350839D01*
X142874148Y-90166643D01*
X142960553Y-89910161D01*
X143031951Y-89981559D01*
X142925182Y-90088141D01*
X142580393Y-90918486D01*
X142579609Y-91817570D01*
X142922948Y-92648515D01*
X143558141Y-93284818D01*
X144388486Y-93629607D01*
X145287570Y-93630391D01*
X146118515Y-93287052D01*
X146754818Y-92651859D01*
X147004731Y-92050000D01*
X150243173Y-92050000D01*
X150405690Y-92867029D01*
X150868500Y-93559673D01*
X151561144Y-94022483D01*
X152378173Y-94185000D01*
X152461827Y-94185000D01*
X153278856Y-94022483D01*
X153971500Y-93559673D01*
X154434310Y-92867029D01*
X154596827Y-92050000D01*
X154434310Y-91232971D01*
X153971500Y-90540327D01*
X153278856Y-90077517D01*
X152461827Y-89915000D01*
X152378173Y-89915000D01*
X151561144Y-90077517D01*
X150868500Y-90540327D01*
X150405690Y-91232971D01*
X150243173Y-92050000D01*
X147004731Y-92050000D01*
X147099607Y-91821514D01*
X147100391Y-90922430D01*
X146757052Y-90091485D01*
X146121859Y-89455182D01*
X145291514Y-89110393D01*
X144392430Y-89109609D01*
X143561485Y-89452948D01*
X143412000Y-89602172D01*
X143606458Y-89070664D01*
X143580839Y-88460540D01*
X143437294Y-88113991D01*
X145084735Y-88113991D01*
X145317932Y-88678371D01*
X145749357Y-89110551D01*
X146313330Y-89344733D01*
X146923991Y-89345265D01*
X147488371Y-89112068D01*
X147920551Y-88680643D01*
X148154733Y-88116670D01*
X148155265Y-87506009D01*
X147922068Y-86941629D01*
X147490643Y-86509449D01*
X146926670Y-86275267D01*
X146316009Y-86274735D01*
X145751629Y-86507932D01*
X145319449Y-86939357D01*
X145085267Y-87503330D01*
X145084735Y-88113991D01*
X143437294Y-88113991D01*
X143396643Y-88015852D01*
X143140159Y-87929446D01*
X142239605Y-88830000D01*
X142253748Y-88844143D01*
X142074143Y-89023748D01*
X142060000Y-89009605D01*
X142045858Y-89023748D01*
X141866253Y-88844143D01*
X141880395Y-88830000D01*
X141866253Y-88815858D01*
X142045858Y-88636253D01*
X142060000Y-88650395D01*
X142960554Y-87749841D01*
X142874148Y-87493357D01*
X142564949Y-87380233D01*
X142574733Y-87356670D01*
X142575265Y-86746009D01*
X142342068Y-86181629D01*
X141910643Y-85749449D01*
X141875000Y-85734649D01*
X141875000Y-83225644D01*
X142189357Y-83540551D01*
X142753330Y-83774733D01*
X143363991Y-83775265D01*
X143928371Y-83542068D01*
X144205104Y-83265818D01*
X144479357Y-83540551D01*
X145043330Y-83774733D01*
X145653991Y-83775265D01*
X146218371Y-83542068D01*
X146650551Y-83110643D01*
X146884733Y-82546670D01*
X146885265Y-81936009D01*
X146652068Y-81371629D01*
X146220643Y-80939449D01*
X145656670Y-80705267D01*
X145046009Y-80704735D01*
X144481629Y-80937932D01*
X144204896Y-81214182D01*
X143930643Y-80939449D01*
X143366670Y-80705267D01*
X142756009Y-80704735D01*
X142191629Y-80937932D01*
X141875000Y-81254008D01*
X141875000Y-71958000D01*
X141853670Y-71850767D01*
X141811440Y-71638460D01*
X141630435Y-71367566D01*
X141105041Y-70842172D01*
X141105197Y-70663225D01*
X140932767Y-70245914D01*
X140613765Y-69926355D01*
X140196756Y-69753197D01*
X139745225Y-69752803D01*
X139327914Y-69925233D01*
X139008355Y-70244235D01*
X139000946Y-70262078D01*
X138565041Y-69826173D01*
X138565197Y-69647225D01*
X138392767Y-69229914D01*
X138073765Y-68910355D01*
X137656756Y-68737197D01*
X137205225Y-68736803D01*
X136787914Y-68909233D01*
X136468355Y-69228235D01*
X136460946Y-69246078D01*
X136025041Y-68810173D01*
X136025197Y-68631225D01*
X135852767Y-68213914D01*
X135533765Y-67894355D01*
X135116756Y-67721197D01*
X134665225Y-67720803D01*
X134247914Y-67893233D01*
X133928355Y-68212235D01*
X133920946Y-68230078D01*
X133485041Y-67794173D01*
X133485197Y-67615225D01*
X133312767Y-67197914D01*
X133185000Y-67069924D01*
X133185000Y-64184058D01*
X133274943Y-64146894D01*
X133735278Y-63687363D01*
X133773630Y-63595000D01*
X147244132Y-63595000D01*
X147401193Y-63752061D01*
X147345907Y-64030000D01*
X147458946Y-64598285D01*
X147780853Y-65080054D01*
X148110026Y-65300000D01*
X147780853Y-65519946D01*
X147458946Y-66001715D01*
X147345907Y-66570000D01*
X147458946Y-67138285D01*
X147780853Y-67620054D01*
X148110026Y-67840000D01*
X147780853Y-68059946D01*
X147458946Y-68541715D01*
X147345907Y-69110000D01*
X147458946Y-69678285D01*
X147780853Y-70160054D01*
X148110026Y-70380000D01*
X147780853Y-70599946D01*
X147458946Y-71081715D01*
X147345907Y-71650000D01*
X147458946Y-72218285D01*
X147780853Y-72700054D01*
X148262622Y-73021961D01*
X148830907Y-73135000D01*
X148889093Y-73135000D01*
X149457378Y-73021961D01*
X149939147Y-72700054D01*
X149939971Y-72698821D01*
X149946838Y-72735317D01*
X150085910Y-72951441D01*
X150298110Y-73096431D01*
X150550000Y-73147440D01*
X152250000Y-73147440D01*
X152485317Y-73103162D01*
X152701441Y-72964090D01*
X152846431Y-72751890D01*
X152897440Y-72500000D01*
X152897440Y-70800000D01*
X152853162Y-70564683D01*
X152714090Y-70348559D01*
X152501890Y-70203569D01*
X152434459Y-70189914D01*
X152479147Y-70160054D01*
X152801054Y-69678285D01*
X152914093Y-69110000D01*
X152801054Y-68541715D01*
X152479147Y-68059946D01*
X152149974Y-67840000D01*
X152479147Y-67620054D01*
X152801054Y-67138285D01*
X152914093Y-66570000D01*
X152801054Y-66001715D01*
X152479147Y-65519946D01*
X152149974Y-65300000D01*
X152479147Y-65080054D01*
X152801054Y-64598285D01*
X152914093Y-64030000D01*
X152801054Y-63461715D01*
X152479147Y-62979946D01*
X151997378Y-62658039D01*
X151429093Y-62545000D01*
X151370907Y-62545000D01*
X150802622Y-62658039D01*
X150320853Y-62979946D01*
X150177159Y-63195000D01*
X150082841Y-63195000D01*
X149939147Y-62979946D01*
X149457378Y-62658039D01*
X148889093Y-62545000D01*
X148830907Y-62545000D01*
X148601500Y-62590632D01*
X148180434Y-62169566D01*
X147909541Y-61988561D01*
X147590000Y-61925000D01*
X133774058Y-61925000D01*
X133736894Y-61835057D01*
X133392241Y-61489801D01*
X133735278Y-61147363D01*
X133984716Y-60546648D01*
X133985284Y-59896205D01*
X133947093Y-59803775D01*
X136750434Y-57000434D01*
X136931440Y-56729540D01*
X136995000Y-56410000D01*
X136995000Y-52754058D01*
X137084943Y-52716894D01*
X137545278Y-52257363D01*
X137631382Y-52050000D01*
X150243173Y-52050000D01*
X150405690Y-52867029D01*
X150868500Y-53559673D01*
X151561144Y-54022483D01*
X152378173Y-54185000D01*
X152461827Y-54185000D01*
X153278856Y-54022483D01*
X153971500Y-53559673D01*
X154434310Y-52867029D01*
X154596827Y-52050000D01*
X154434310Y-51232971D01*
X153971500Y-50540327D01*
X153278856Y-50077517D01*
X152461827Y-49915000D01*
X152378173Y-49915000D01*
X151561144Y-50077517D01*
X150868500Y-50540327D01*
X150405690Y-51232971D01*
X150243173Y-52050000D01*
X137631382Y-52050000D01*
X137794716Y-51656648D01*
X137795284Y-51006205D01*
X137546894Y-50405057D01*
X137087363Y-49944722D01*
X136486648Y-49695284D01*
X135836205Y-49694716D01*
X135235057Y-49943106D01*
X134774722Y-50402637D01*
X134525284Y-51003352D01*
X134524716Y-51653795D01*
X134773106Y-52254943D01*
X135232637Y-52715278D01*
X135325000Y-52753630D01*
X135325000Y-56064132D01*
X132766527Y-58622605D01*
X132676648Y-58585284D01*
X132026205Y-58584716D01*
X131425057Y-58833106D01*
X131079801Y-59177759D01*
X130737363Y-58834722D01*
X130645000Y-58796370D01*
X130645000Y-52945868D01*
X130663473Y-52927395D01*
X130753352Y-52964716D01*
X131403795Y-52965284D01*
X132004943Y-52716894D01*
X132465278Y-52257363D01*
X132714716Y-51656648D01*
X132715284Y-51006205D01*
X132466894Y-50405057D01*
X132007363Y-49944722D01*
X131406648Y-49695284D01*
X130756205Y-49694716D01*
X130155057Y-49943106D01*
X129694722Y-50402637D01*
X129445284Y-51003352D01*
X129444716Y-51653795D01*
X129482907Y-51746225D01*
X129219566Y-52009566D01*
X129038561Y-52280459D01*
X128975000Y-52600000D01*
X128975000Y-58795942D01*
X128885057Y-58833106D01*
X128539801Y-59177759D01*
X128197363Y-58834722D01*
X128105000Y-58796370D01*
X128105000Y-52600000D01*
X128041439Y-52280459D01*
X127860434Y-52009566D01*
X127597395Y-51746527D01*
X127634716Y-51656648D01*
X127635284Y-51006205D01*
X127386894Y-50405057D01*
X126927363Y-49944722D01*
X126326648Y-49695284D01*
X125676205Y-49694716D01*
X125075057Y-49943106D01*
X124614722Y-50402637D01*
X124365284Y-51003352D01*
X124364716Y-51653795D01*
X124613106Y-52254943D01*
X125072637Y-52715278D01*
X125673352Y-52964716D01*
X126323795Y-52965284D01*
X126416225Y-52927093D01*
X126435000Y-52945868D01*
X126435000Y-58795942D01*
X126345057Y-58833106D01*
X125999801Y-59177759D01*
X125657363Y-58834722D01*
X125056648Y-58585284D01*
X124406205Y-58584716D01*
X124313775Y-58622907D01*
X121755000Y-56064132D01*
X121755000Y-52754058D01*
X121844943Y-52716894D01*
X122305278Y-52257363D01*
X122554716Y-51656648D01*
X122555284Y-51006205D01*
X122306894Y-50405057D01*
X121847363Y-49944722D01*
X121246648Y-49695284D01*
X120596205Y-49694716D01*
X119995057Y-49943106D01*
X119534722Y-50402637D01*
X119285284Y-51003352D01*
X119284716Y-51653795D01*
X119533106Y-52254943D01*
X119992637Y-52715278D01*
X120085000Y-52753630D01*
X120085000Y-56410000D01*
X120148561Y-56729541D01*
X120329566Y-57000434D01*
X123132605Y-59803473D01*
X123095284Y-59893352D01*
X123094716Y-60543795D01*
X123343106Y-61144943D01*
X123687759Y-61490199D01*
X123344722Y-61832637D01*
X123095284Y-62433352D01*
X123094716Y-63083795D01*
X123343106Y-63684943D01*
X123802637Y-64145278D01*
X123895000Y-64183630D01*
X123895000Y-65300000D01*
X123958561Y-65619541D01*
X124004845Y-65688810D01*
X123997225Y-65688803D01*
X123579914Y-65861233D01*
X123260355Y-66180235D01*
X123252946Y-66198078D01*
X122817041Y-65762173D01*
X122817197Y-65583225D01*
X122644767Y-65165914D01*
X122325765Y-64846355D01*
X121908756Y-64673197D01*
X121457225Y-64672803D01*
X121039914Y-64845233D01*
X120720355Y-65164235D01*
X120712946Y-65182078D01*
X120277041Y-64746173D01*
X120277197Y-64567225D01*
X120104767Y-64149914D01*
X119785765Y-63830355D01*
X119368756Y-63657197D01*
X118917225Y-63656803D01*
X118499914Y-63829233D01*
X118180355Y-64148235D01*
X118007197Y-64565244D01*
X118006803Y-65016775D01*
X118179233Y-65434086D01*
X118498235Y-65753645D01*
X118915244Y-65926803D01*
X119096093Y-65926961D01*
X120039801Y-66870669D01*
X120023914Y-66877233D01*
X119704355Y-67196235D01*
X119531197Y-67613244D01*
X119531039Y-67794093D01*
X115249566Y-72075566D01*
X115068561Y-72346459D01*
X115005000Y-72666000D01*
X115005000Y-81154181D01*
X114790643Y-80939449D01*
X114226670Y-80705267D01*
X113616009Y-80704735D01*
X113051629Y-80937932D01*
X112774896Y-81214182D01*
X112500643Y-80939449D01*
X111936670Y-80705267D01*
X111326009Y-80704735D01*
X110761629Y-80937932D01*
X110579000Y-81120242D01*
X110579000Y-68439868D01*
X111059827Y-67959041D01*
X111238775Y-67959197D01*
X111656086Y-67786767D01*
X111975645Y-67467765D01*
X112148803Y-67050756D01*
X112149197Y-66599225D01*
X111976767Y-66181914D01*
X111657765Y-65862355D01*
X111240756Y-65689197D01*
X110789225Y-65688803D01*
X110371914Y-65861233D01*
X110052355Y-66180235D01*
X109879197Y-66597244D01*
X109879039Y-66778093D01*
X109777535Y-66879597D01*
X109753439Y-66758459D01*
X109572434Y-66487566D01*
X108847041Y-65762173D01*
X108847197Y-65583225D01*
X108674767Y-65165914D01*
X108547000Y-65037924D01*
X108547000Y-62760000D01*
X108483439Y-62440459D01*
X108302434Y-62169566D01*
X106515000Y-60382132D01*
X106515000Y-57604083D01*
X106701663Y-57417745D01*
X107351861Y-57417745D01*
X107425995Y-57663864D01*
X107963223Y-57856965D01*
X108533454Y-57829778D01*
X108934005Y-57663864D01*
X109008139Y-57417745D01*
X108180000Y-56589605D01*
X107351861Y-57417745D01*
X106701663Y-57417745D01*
X106895824Y-57223923D01*
X106923423Y-57157456D01*
X106926136Y-57164005D01*
X107172255Y-57238139D01*
X108000395Y-56410000D01*
X108359605Y-56410000D01*
X109187745Y-57238139D01*
X109433864Y-57164005D01*
X109626965Y-56626777D01*
X109599778Y-56056546D01*
X109433864Y-55655995D01*
X109187745Y-55581861D01*
X108359605Y-56410000D01*
X108000395Y-56410000D01*
X107172255Y-55581861D01*
X106926136Y-55655995D01*
X106923804Y-55662483D01*
X106897243Y-55598200D01*
X106701640Y-55402255D01*
X107351861Y-55402255D01*
X108180000Y-56230395D01*
X109008139Y-55402255D01*
X108934005Y-55156136D01*
X108396777Y-54963035D01*
X107826546Y-54990222D01*
X107425995Y-55156136D01*
X107351861Y-55402255D01*
X106701640Y-55402255D01*
X106515000Y-55215290D01*
X106515000Y-52770854D01*
X106715317Y-52733162D01*
X106931441Y-52594090D01*
X107076431Y-52381890D01*
X107085370Y-52337745D01*
X107351861Y-52337745D01*
X107425995Y-52583864D01*
X107963223Y-52776965D01*
X108533454Y-52749778D01*
X108934005Y-52583864D01*
X109008139Y-52337745D01*
X108180000Y-51509605D01*
X107351861Y-52337745D01*
X107085370Y-52337745D01*
X107124646Y-52143799D01*
X107172255Y-52158139D01*
X108000395Y-51330000D01*
X108359605Y-51330000D01*
X109187745Y-52158139D01*
X109433864Y-52084005D01*
X109626965Y-51546777D01*
X109599778Y-50976546D01*
X109433864Y-50575995D01*
X109187745Y-50501861D01*
X108359605Y-51330000D01*
X108000395Y-51330000D01*
X107172255Y-50501861D01*
X107124833Y-50516145D01*
X107088351Y-50322255D01*
X107351861Y-50322255D01*
X108180000Y-51150395D01*
X109008139Y-50322255D01*
X108934005Y-50076136D01*
X108396777Y-49883035D01*
X107826546Y-49910222D01*
X107425995Y-50076136D01*
X107351861Y-50322255D01*
X107088351Y-50322255D01*
X107083162Y-50294683D01*
X106944090Y-50078559D01*
X106731890Y-49933569D01*
X106480000Y-49882560D01*
X104880000Y-49882560D01*
X104644683Y-49926838D01*
X104428559Y-50065910D01*
X104283569Y-50278110D01*
X104239648Y-50495000D01*
X101453868Y-50495000D01*
X99920434Y-48961566D01*
X99649541Y-48780561D01*
X99330000Y-48717000D01*
X92218000Y-48717000D01*
X91898460Y-48780560D01*
X91627566Y-48961566D01*
X90856527Y-49732605D01*
X90766648Y-49695284D01*
X90116205Y-49694716D01*
X89515057Y-49943106D01*
X89054722Y-50402637D01*
X88805284Y-51003352D01*
X88804716Y-51653795D01*
X89053106Y-52254943D01*
X89512637Y-52715278D01*
X89605000Y-52753630D01*
X89605000Y-53524132D01*
X88824132Y-54305000D01*
X78085868Y-54305000D01*
X76263400Y-52482532D01*
X79307073Y-52482532D01*
X79405736Y-52749387D01*
X80015461Y-52975908D01*
X80665460Y-52951856D01*
X81154264Y-52749387D01*
X81252927Y-52482532D01*
X80280000Y-51509605D01*
X79307073Y-52482532D01*
X76263400Y-52482532D01*
X75364779Y-51583911D01*
X75365230Y-51065461D01*
X78634092Y-51065461D01*
X78658144Y-51715460D01*
X78860613Y-52204264D01*
X79127468Y-52302927D01*
X80100395Y-51330000D01*
X80459605Y-51330000D01*
X81432532Y-52302927D01*
X81699387Y-52204264D01*
X81903893Y-51653795D01*
X83724716Y-51653795D01*
X83973106Y-52254943D01*
X84432637Y-52715278D01*
X85033352Y-52964716D01*
X85683795Y-52965284D01*
X86284943Y-52716894D01*
X86745278Y-52257363D01*
X86994716Y-51656648D01*
X86995284Y-51006205D01*
X86746894Y-50405057D01*
X86287363Y-49944722D01*
X85686648Y-49695284D01*
X85036205Y-49694716D01*
X84435057Y-49943106D01*
X83974722Y-50402637D01*
X83725284Y-51003352D01*
X83724716Y-51653795D01*
X81903893Y-51653795D01*
X81925908Y-51594539D01*
X81901856Y-50944540D01*
X81699387Y-50455736D01*
X81432532Y-50357073D01*
X80459605Y-51330000D01*
X80100395Y-51330000D01*
X79127468Y-50357073D01*
X78860613Y-50455736D01*
X78634092Y-51065461D01*
X75365230Y-51065461D01*
X75365248Y-51045813D01*
X75147243Y-50518200D01*
X74807105Y-50177468D01*
X79307073Y-50177468D01*
X80280000Y-51150395D01*
X81252927Y-50177468D01*
X81154264Y-49910613D01*
X80544539Y-49684092D01*
X79894540Y-49708144D01*
X79405736Y-49910613D01*
X79307073Y-50177468D01*
X74807105Y-50177468D01*
X74743923Y-50114176D01*
X74216691Y-49895250D01*
X73645813Y-49894752D01*
X73118200Y-50112757D01*
X72735290Y-50495000D01*
X72584083Y-50495000D01*
X72203923Y-50114176D01*
X71676691Y-49895250D01*
X71105813Y-49894752D01*
X70578200Y-50112757D01*
X70174176Y-50516077D01*
X69955250Y-51043309D01*
X69954752Y-51614187D01*
X70172757Y-52141800D01*
X70576077Y-52545824D01*
X71103309Y-52764750D01*
X71674187Y-52765248D01*
X72201800Y-52547243D01*
X72584710Y-52165000D01*
X72735917Y-52165000D01*
X73116077Y-52545824D01*
X73643309Y-52764750D01*
X74184354Y-52765222D01*
X77149566Y-55730434D01*
X77420460Y-55911440D01*
X77740000Y-55975000D01*
X89170000Y-55975000D01*
X89489541Y-55911439D01*
X89760434Y-55730434D01*
X91030434Y-54460434D01*
X91211439Y-54189541D01*
X91275000Y-53870000D01*
X91275000Y-52754058D01*
X91364943Y-52716894D01*
X91825278Y-52257363D01*
X92074716Y-51656648D01*
X92075284Y-51006205D01*
X92037093Y-50913775D01*
X92563868Y-50387000D01*
X94150386Y-50387000D01*
X94134722Y-50402637D01*
X93885284Y-51003352D01*
X93884716Y-51653795D01*
X94133106Y-52254943D01*
X94592637Y-52715278D01*
X94685000Y-52753630D01*
X94685000Y-56064132D01*
X90094132Y-60655000D01*
X75083553Y-60655000D01*
X74944698Y-60447189D01*
X74479151Y-60136120D01*
X73930000Y-60026887D01*
X73380849Y-60136120D01*
X72915302Y-60447189D01*
X72660000Y-60829275D01*
X72404698Y-60447189D01*
X71939151Y-60136120D01*
X71390000Y-60026887D01*
X70840849Y-60136120D01*
X70375302Y-60447189D01*
X70064233Y-60912736D01*
X69955000Y-61461887D01*
X69955000Y-61518113D01*
X70064233Y-62067264D01*
X70375302Y-62532811D01*
X70555000Y-62652882D01*
X70555000Y-64030000D01*
X70618561Y-64349541D01*
X70762689Y-64565244D01*
X70799566Y-64620434D01*
X71914132Y-65735000D01*
X66262841Y-65735000D01*
X66119147Y-65519946D01*
X65778447Y-65292298D01*
X65921358Y-65225183D01*
X66311645Y-64796924D01*
X66481476Y-64386890D01*
X66360155Y-64157000D01*
X65167000Y-64157000D01*
X65167000Y-64177000D01*
X64913000Y-64177000D01*
X64913000Y-64157000D01*
X62627000Y-64157000D01*
X62627000Y-64177000D01*
X62373000Y-64177000D01*
X62373000Y-64157000D01*
X61173750Y-64157000D01*
X61015000Y-64315750D01*
X61015000Y-65006310D01*
X61111673Y-65239699D01*
X61290302Y-65418327D01*
X61464777Y-65490597D01*
X61420853Y-65519946D01*
X61098946Y-66001715D01*
X60985907Y-66570000D01*
X58130000Y-66570000D01*
X58130000Y-63053690D01*
X61015000Y-63053690D01*
X61015000Y-63744250D01*
X61173750Y-63903000D01*
X62373000Y-63903000D01*
X62373000Y-62703750D01*
X62627000Y-62703750D01*
X62627000Y-63903000D01*
X64913000Y-63903000D01*
X64913000Y-62709181D01*
X65167000Y-62709181D01*
X65167000Y-63903000D01*
X66360155Y-63903000D01*
X66481476Y-63673110D01*
X66311645Y-63263076D01*
X65921358Y-62834817D01*
X65396892Y-62588514D01*
X65167000Y-62709181D01*
X64913000Y-62709181D01*
X64683108Y-62588514D01*
X64158642Y-62834817D01*
X63976930Y-63034208D01*
X63888327Y-62820301D01*
X63709698Y-62641673D01*
X63476309Y-62545000D01*
X62785750Y-62545000D01*
X62627000Y-62703750D01*
X62373000Y-62703750D01*
X62214250Y-62545000D01*
X61523691Y-62545000D01*
X61290302Y-62641673D01*
X61111673Y-62820301D01*
X61015000Y-63053690D01*
X58130000Y-63053690D01*
X58130000Y-52050000D01*
X60243173Y-52050000D01*
X60405690Y-52867029D01*
X60868500Y-53559673D01*
X61561144Y-54022483D01*
X62378173Y-54185000D01*
X62461827Y-54185000D01*
X63278856Y-54022483D01*
X63971500Y-53559673D01*
X64434310Y-52867029D01*
X64596827Y-52050000D01*
X64434310Y-51232971D01*
X63971500Y-50540327D01*
X63278856Y-50077517D01*
X62461827Y-49915000D01*
X62378173Y-49915000D01*
X61561144Y-50077517D01*
X60868500Y-50540327D01*
X60405690Y-51232971D01*
X60243173Y-52050000D01*
X58130000Y-52050000D01*
X58130000Y-47760000D01*
X156710000Y-47760000D01*
X156710000Y-96340000D01*
M02*
