G04 #@! TF.FileFunction,Copper,L2,Bot,Signal*
%FSLAX46Y46*%
G04 Gerber Fmt 4.6, Leading zero omitted, Abs format (unit mm)*
G04 Created by KiCad (PCBNEW 4.0.6) date 02/07/18 20:23:48*
%MOMM*%
%LPD*%
G01*
G04 APERTURE LIST*
%ADD10C,0.100000*%
%ADD11C,1.800000*%
%ADD12C,2.000000*%
%ADD13C,1.600000*%
%ADD14O,1.600000X1.600000*%
%ADD15R,1.700000X1.700000*%
%ADD16O,1.700000X1.700000*%
%ADD17R,1.600000X1.600000*%
%ADD18C,1.000000*%
%ADD19C,0.400000*%
%ADD20C,0.254000*%
G04 APERTURE END LIST*
D10*
D11*
X74440000Y-137830000D03*
X73420000Y-136050000D03*
X76480000Y-137830000D03*
X75460000Y-136050000D03*
X78520000Y-137830000D03*
X77500000Y-136050000D03*
X80560000Y-137830000D03*
X79540000Y-136050000D03*
X72420000Y-131240000D03*
X70130000Y-131240000D03*
X83850000Y-131240000D03*
X81560000Y-131240000D03*
X94440000Y-137830000D03*
X93420000Y-136050000D03*
X96480000Y-137830000D03*
X95460000Y-136050000D03*
X98520000Y-137830000D03*
X97500000Y-136050000D03*
X100560000Y-137830000D03*
X99540000Y-136050000D03*
X92420000Y-131240000D03*
X90130000Y-131240000D03*
X103850000Y-131240000D03*
X101560000Y-131240000D03*
X116940000Y-137830000D03*
X115920000Y-136050000D03*
X118980000Y-137830000D03*
X117960000Y-136050000D03*
X121020000Y-137830000D03*
X120000000Y-136050000D03*
X123060000Y-137830000D03*
X122040000Y-136050000D03*
X114920000Y-131240000D03*
X112630000Y-131240000D03*
X126350000Y-131240000D03*
X124060000Y-131240000D03*
X136940000Y-137830000D03*
X135920000Y-136050000D03*
X138980000Y-137830000D03*
X137960000Y-136050000D03*
X141020000Y-137830000D03*
X140000000Y-136050000D03*
X143060000Y-137830000D03*
X142040000Y-136050000D03*
X134920000Y-131240000D03*
X132630000Y-131240000D03*
X146350000Y-131240000D03*
X144060000Y-131240000D03*
D12*
X125730000Y-111760000D03*
X125730000Y-109220000D03*
X128270000Y-111760000D03*
X128270000Y-109220000D03*
X130810000Y-111760000D03*
X130810000Y-109220000D03*
X133350000Y-111760000D03*
X133350000Y-109220000D03*
D13*
X72390000Y-100330000D03*
D14*
X72390000Y-110490000D03*
D13*
X74930000Y-100330000D03*
D14*
X74930000Y-110490000D03*
D12*
X81280000Y-100330000D03*
X86360000Y-100330000D03*
X91440000Y-100330000D03*
X96520000Y-100330000D03*
X121920000Y-100330000D03*
X127000000Y-100330000D03*
X132080000Y-100330000D03*
X137160000Y-100330000D03*
D15*
X63500000Y-113030000D03*
D16*
X66040000Y-113030000D03*
X63500000Y-115570000D03*
X66040000Y-115570000D03*
X63500000Y-118110000D03*
X66040000Y-118110000D03*
X63500000Y-120650000D03*
X66040000Y-120650000D03*
D17*
X106680000Y-100330000D03*
D13*
X109180000Y-100330000D03*
X106680000Y-105410000D03*
X109180000Y-105410000D03*
D15*
X152400000Y-120650000D03*
D16*
X149860000Y-120650000D03*
X152400000Y-118110000D03*
X149860000Y-118110000D03*
X152400000Y-115570000D03*
X149860000Y-115570000D03*
X152400000Y-113030000D03*
X149860000Y-113030000D03*
D18*
X82550000Y-115824000D03*
X125222000Y-115824000D03*
X112014000Y-115824000D03*
X89916000Y-115824000D03*
X83566000Y-116840000D03*
X133350000Y-116840000D03*
X121666000Y-116840000D03*
X99822000Y-116840000D03*
X81788000Y-114808000D03*
X122682000Y-114808000D03*
X108712000Y-114808000D03*
X86360000Y-114808000D03*
X84328000Y-117856000D03*
X135890000Y-117856000D03*
X122682000Y-117856000D03*
X100584000Y-117856000D03*
X81026000Y-113792000D03*
X120142000Y-113792000D03*
X106172000Y-113792000D03*
X83312000Y-113792000D03*
X85090000Y-118872000D03*
X132588000Y-118872000D03*
X138430000Y-118872000D03*
X123444000Y-118872000D03*
X101346000Y-118872000D03*
X85852000Y-119888000D03*
X131318000Y-119888000D03*
X140970000Y-119888000D03*
X124206000Y-119888000D03*
X102108000Y-119888000D03*
D19*
X91440000Y-110490000D02*
X91440000Y-114300000D01*
X91440000Y-114300000D02*
X89916000Y-115824000D01*
X74930000Y-110490000D02*
X91440000Y-110490000D01*
X96520000Y-105410000D02*
X96520000Y-100330000D01*
X91440000Y-110490000D02*
X96520000Y-105410000D01*
X68326000Y-130048000D02*
X82550000Y-115824000D01*
X74440000Y-137830000D02*
X72806000Y-137830000D01*
X68326000Y-131826000D02*
X68326000Y-130048000D01*
X71628000Y-135128000D02*
X68326000Y-131826000D01*
X71628000Y-136652000D02*
X71628000Y-135128000D01*
X72806000Y-137830000D02*
X71628000Y-136652000D01*
X130810000Y-130175000D02*
X130810000Y-121412000D01*
X136924000Y-137957000D02*
X135290000Y-137957000D01*
X130810000Y-131953000D02*
X130810000Y-130175000D01*
X134112000Y-135255000D02*
X130810000Y-131953000D01*
X134112000Y-136779000D02*
X134112000Y-135255000D01*
X135290000Y-137957000D02*
X134112000Y-136779000D01*
X130810000Y-121412000D02*
X125222000Y-115824000D01*
X110744000Y-130048000D02*
X110744000Y-117094000D01*
X115224000Y-137830000D02*
X114046000Y-136652000D01*
X114046000Y-136652000D02*
X114046000Y-135128000D01*
X114046000Y-135128000D02*
X110744000Y-131826000D01*
X110744000Y-131826000D02*
X110744000Y-130048000D01*
X116858000Y-137830000D02*
X115224000Y-137830000D01*
X110744000Y-117094000D02*
X112014000Y-115824000D01*
X88265000Y-130048000D02*
X88265000Y-117475000D01*
X88265000Y-117475000D02*
X89916000Y-115824000D01*
X92745000Y-137830000D02*
X91567000Y-136652000D01*
X91567000Y-136652000D02*
X91567000Y-135128000D01*
X91567000Y-135128000D02*
X88265000Y-131826000D01*
X88265000Y-131826000D02*
X88265000Y-130048000D01*
X88265000Y-130048000D02*
X88265000Y-130048000D01*
X94379000Y-137830000D02*
X92745000Y-137830000D01*
X149860000Y-113030000D02*
X152400000Y-113030000D01*
X133350000Y-111760000D02*
X148590000Y-111760000D01*
X148590000Y-111760000D02*
X149860000Y-113030000D01*
X74295000Y-130048000D02*
X74295000Y-126111000D01*
X74295000Y-126111000D02*
X83566000Y-116840000D01*
X133350000Y-111760000D02*
X133350000Y-116840000D01*
X136525000Y-130810000D02*
X136525000Y-120015000D01*
X136525000Y-120015000D02*
X133350000Y-116840000D01*
X135920000Y-136050000D02*
X135920000Y-132745000D01*
X136525000Y-132140000D02*
X136525000Y-130810000D01*
X135920000Y-132745000D02*
X136525000Y-132140000D01*
X116840000Y-130175000D02*
X116840000Y-121666000D01*
X115920000Y-133000000D02*
X116840000Y-132080000D01*
X116840000Y-132080000D02*
X116840000Y-130175000D01*
X115920000Y-136050000D02*
X115920000Y-133000000D01*
X116840000Y-121666000D02*
X121666000Y-116840000D01*
X93980000Y-130175000D02*
X93980000Y-122682000D01*
X93980000Y-122682000D02*
X99822000Y-116840000D01*
X93420000Y-132790000D02*
X93980000Y-132230000D01*
X93980000Y-132230000D02*
X93980000Y-130175000D01*
X93420000Y-136050000D02*
X93420000Y-132790000D01*
X133350000Y-111760000D02*
X133350000Y-109220000D01*
X137160000Y-100330000D02*
X137160000Y-105410000D01*
X137160000Y-105410000D02*
X133350000Y-109220000D01*
X73420000Y-136050000D02*
X73420000Y-132955000D01*
X74295000Y-132080000D02*
X74295000Y-130048000D01*
X74295000Y-130048000D02*
X74295000Y-130175000D01*
X73420000Y-132955000D02*
X74295000Y-132080000D01*
X74930000Y-100330000D02*
X78740000Y-104140000D01*
X78740000Y-104140000D02*
X90170000Y-104140000D01*
X72390000Y-100330000D02*
X74930000Y-100330000D01*
X91440000Y-100330000D02*
X93218000Y-98552000D01*
X102108000Y-100330000D02*
X106680000Y-100330000D01*
X100330000Y-98552000D02*
X102108000Y-100330000D01*
X93218000Y-98552000D02*
X100330000Y-98552000D01*
X106680000Y-105410000D02*
X106680000Y-109728000D01*
X108712000Y-111760000D02*
X108712000Y-114808000D01*
X106680000Y-109728000D02*
X108712000Y-111760000D01*
X106680000Y-100330000D02*
X106680000Y-105410000D01*
X67564000Y-130048000D02*
X67564000Y-129032000D01*
X67564000Y-129032000D02*
X81788000Y-114808000D01*
X76480000Y-138912000D02*
X76200000Y-139192000D01*
X76200000Y-139192000D02*
X73152000Y-139192000D01*
X73152000Y-139192000D02*
X70866000Y-136906000D01*
X70866000Y-136906000D02*
X70866000Y-135382000D01*
X70866000Y-135382000D02*
X67564000Y-132080000D01*
X67564000Y-132080000D02*
X67564000Y-130048000D01*
X76480000Y-137830000D02*
X76480000Y-138912000D01*
X130048000Y-130175000D02*
X130048000Y-122174000D01*
X130048000Y-122174000D02*
X122682000Y-114808000D01*
X138964000Y-139039000D02*
X138684000Y-139319000D01*
X138684000Y-139319000D02*
X135636000Y-139319000D01*
X135636000Y-139319000D02*
X133350000Y-137033000D01*
X133350000Y-137033000D02*
X133350000Y-135509000D01*
X133350000Y-135509000D02*
X130048000Y-132207000D01*
X130048000Y-132207000D02*
X130048000Y-130175000D01*
X138964000Y-137957000D02*
X138964000Y-139039000D01*
X109982000Y-130048000D02*
X109982000Y-116078000D01*
X109982000Y-116078000D02*
X108712000Y-114808000D01*
X118898000Y-137830000D02*
X118898000Y-138912000D01*
X109982000Y-132080000D02*
X109982000Y-130048000D01*
X113284000Y-135382000D02*
X109982000Y-132080000D01*
X113284000Y-136906000D02*
X113284000Y-135382000D01*
X115570000Y-139192000D02*
X113284000Y-136906000D01*
X118618000Y-139192000D02*
X115570000Y-139192000D01*
X118898000Y-138912000D02*
X118618000Y-139192000D01*
X87503000Y-130048000D02*
X87503000Y-115951000D01*
X96419000Y-137830000D02*
X96419000Y-138912000D01*
X87503000Y-132080000D02*
X87503000Y-130048000D01*
X90805000Y-135382000D02*
X87503000Y-132080000D01*
X90805000Y-136906000D02*
X90805000Y-135382000D01*
X93091000Y-139192000D02*
X90805000Y-136906000D01*
X96139000Y-139192000D02*
X93091000Y-139192000D01*
X96419000Y-138912000D02*
X96139000Y-139192000D01*
X87503000Y-115951000D02*
X86360000Y-114808000D01*
X91440000Y-100330000D02*
X91440000Y-102870000D01*
X91440000Y-102870000D02*
X90170000Y-104140000D01*
X75460000Y-130302000D02*
X75460000Y-126724000D01*
X75460000Y-126724000D02*
X84328000Y-117856000D01*
X137960000Y-130645000D02*
X137960000Y-119926000D01*
X137960000Y-136050000D02*
X137960000Y-130645000D01*
X137960000Y-119926000D02*
X135890000Y-117856000D01*
X117960000Y-130325000D02*
X117960000Y-122578000D01*
X117960000Y-136050000D02*
X117960000Y-130325000D01*
X117960000Y-122578000D02*
X122682000Y-117856000D01*
X95460000Y-129965000D02*
X95460000Y-122980000D01*
X95460000Y-122980000D02*
X100584000Y-117856000D01*
X95460000Y-136050000D02*
X95460000Y-129965000D01*
X130810000Y-111760000D02*
X130810000Y-109220000D01*
X130810000Y-109220000D02*
X130810000Y-101600000D01*
X130810000Y-101600000D02*
X132080000Y-100330000D01*
X75460000Y-136050000D02*
X75460000Y-130302000D01*
X75460000Y-130302000D02*
X75460000Y-130280000D01*
X72390000Y-110490000D02*
X72390000Y-113030000D01*
X72390000Y-113030000D02*
X74930000Y-115570000D01*
X66040000Y-115570000D02*
X74930000Y-115570000D01*
X74930000Y-115570000D02*
X75184000Y-115570000D01*
X76962000Y-113792000D02*
X81026000Y-113792000D01*
X75184000Y-115570000D02*
X76962000Y-113792000D01*
X63500000Y-115570000D02*
X66040000Y-115570000D01*
X66963998Y-130048000D02*
X66963998Y-127854002D01*
X66963998Y-127854002D02*
X81026000Y-113792000D01*
X78520000Y-140682000D02*
X76708000Y-142494000D01*
X76708000Y-142494000D02*
X69850000Y-142494000D01*
X69850000Y-142494000D02*
X66963998Y-139607998D01*
X66963998Y-139607998D02*
X66963998Y-130048000D01*
X78520000Y-137830000D02*
X78520000Y-140682000D01*
X129447998Y-130175000D02*
X129447998Y-123097998D01*
X129447998Y-123097998D02*
X120142000Y-113792000D01*
X141004000Y-140809000D02*
X139192000Y-142621000D01*
X139192000Y-142621000D02*
X132334000Y-142621000D01*
X132334000Y-142621000D02*
X129447998Y-139734998D01*
X129447998Y-139734998D02*
X129447998Y-130175000D01*
X141004000Y-137957000D02*
X141004000Y-140809000D01*
X109381998Y-130048000D02*
X109381998Y-117001998D01*
X109381998Y-117001998D02*
X106172000Y-113792000D01*
X120938000Y-137830000D02*
X120938000Y-140682000D01*
X109381998Y-139607998D02*
X109381998Y-130048000D01*
X112268000Y-142494000D02*
X109381998Y-139607998D01*
X119126000Y-142494000D02*
X112268000Y-142494000D01*
X120938000Y-140682000D02*
X119126000Y-142494000D01*
X86902998Y-130048000D02*
X86902998Y-117382998D01*
X98459000Y-137830000D02*
X98459000Y-140682000D01*
X86902998Y-139607998D02*
X86902998Y-130048000D01*
X89789000Y-142494000D02*
X86902998Y-139607998D01*
X96647000Y-142494000D02*
X89789000Y-142494000D01*
X98459000Y-140682000D02*
X96647000Y-142494000D01*
X86902998Y-117382998D02*
X83312000Y-113792000D01*
X77500000Y-130145000D02*
X77500000Y-126462000D01*
X77500000Y-136050000D02*
X77500000Y-130145000D01*
X77500000Y-126462000D02*
X85090000Y-118872000D01*
X128270000Y-111760000D02*
X128270000Y-114554000D01*
X128270000Y-114554000D02*
X132588000Y-118872000D01*
X140000000Y-130510000D02*
X140000000Y-120442000D01*
X140000000Y-120442000D02*
X138430000Y-118872000D01*
X140000000Y-136050000D02*
X140000000Y-130510000D01*
X120000000Y-130190000D02*
X120000000Y-122316000D01*
X120000000Y-136050000D02*
X120000000Y-130190000D01*
X120000000Y-122316000D02*
X123444000Y-118872000D01*
X97500000Y-129830000D02*
X97500000Y-122718000D01*
X97500000Y-136050000D02*
X97500000Y-129830000D01*
X97500000Y-122718000D02*
X101346000Y-118872000D01*
X128270000Y-109220000D02*
X128270000Y-111760000D01*
X128270000Y-109220000D02*
X128270000Y-101600000D01*
X128270000Y-101600000D02*
X127000000Y-100330000D01*
X79540000Y-130175000D02*
X79540000Y-126200000D01*
X79540000Y-126200000D02*
X85852000Y-119888000D01*
X125730000Y-111760000D02*
X125730000Y-114300000D01*
X125730000Y-114300000D02*
X131318000Y-119888000D01*
X142040000Y-130375000D02*
X142040000Y-120958000D01*
X142040000Y-120958000D02*
X140970000Y-119888000D01*
X142040000Y-136050000D02*
X142040000Y-130375000D01*
X122040000Y-130055000D02*
X122040000Y-122054000D01*
X122040000Y-136050000D02*
X122040000Y-130055000D01*
X122040000Y-122054000D02*
X124206000Y-119888000D01*
X99540000Y-130330000D02*
X99540000Y-122456000D01*
X99540000Y-122456000D02*
X102108000Y-119888000D01*
X99540000Y-136050000D02*
X99540000Y-130330000D01*
X125730000Y-109220000D02*
X125730000Y-111760000D01*
X121920000Y-100330000D02*
X121920000Y-105410000D01*
X121920000Y-105410000D02*
X125730000Y-109220000D01*
X79540000Y-136050000D02*
X79540000Y-130175000D01*
X79540000Y-130175000D02*
X79540000Y-130048000D01*
X79540000Y-130048000D02*
X79540000Y-130010000D01*
D20*
G36*
X158293000Y-145923000D02*
X58547000Y-145923000D01*
X58547000Y-141050000D01*
X61243173Y-141050000D01*
X61405690Y-141867029D01*
X61868500Y-142559673D01*
X62561144Y-143022483D01*
X63378173Y-143185000D01*
X63461827Y-143185000D01*
X64278856Y-143022483D01*
X64971500Y-142559673D01*
X65434310Y-141867029D01*
X65596827Y-141050000D01*
X65434310Y-140232971D01*
X64971500Y-139540327D01*
X64278856Y-139077517D01*
X63461827Y-138915000D01*
X63378173Y-138915000D01*
X62561144Y-139077517D01*
X61868500Y-139540327D01*
X61405690Y-140232971D01*
X61243173Y-141050000D01*
X58547000Y-141050000D01*
X58547000Y-115570000D01*
X61985907Y-115570000D01*
X62098946Y-116138285D01*
X62420853Y-116620054D01*
X62750026Y-116840000D01*
X62420853Y-117059946D01*
X62098946Y-117541715D01*
X61985907Y-118110000D01*
X62098946Y-118678285D01*
X62420853Y-119160054D01*
X62750026Y-119380000D01*
X62420853Y-119599946D01*
X62098946Y-120081715D01*
X61985907Y-120650000D01*
X62098946Y-121218285D01*
X62420853Y-121700054D01*
X62902622Y-122021961D01*
X63470907Y-122135000D01*
X63529093Y-122135000D01*
X64097378Y-122021961D01*
X64579147Y-121700054D01*
X64770000Y-121414422D01*
X64960853Y-121700054D01*
X65442622Y-122021961D01*
X66010907Y-122135000D01*
X66069093Y-122135000D01*
X66637378Y-122021961D01*
X67119147Y-121700054D01*
X67441054Y-121218285D01*
X67554093Y-120650000D01*
X67441054Y-120081715D01*
X67119147Y-119599946D01*
X66789974Y-119380000D01*
X67119147Y-119160054D01*
X67441054Y-118678285D01*
X67554093Y-118110000D01*
X67441054Y-117541715D01*
X67119147Y-117059946D01*
X66789974Y-116840000D01*
X67119147Y-116620054D01*
X67262841Y-116405000D01*
X75184000Y-116405000D01*
X75503541Y-116341439D01*
X75774434Y-116160434D01*
X77307868Y-114627000D01*
X79010132Y-114627000D01*
X66373564Y-127263568D01*
X66192559Y-127534461D01*
X66128998Y-127854002D01*
X66128998Y-139607998D01*
X66192559Y-139927539D01*
X66373564Y-140198432D01*
X69259566Y-143084434D01*
X69530459Y-143265439D01*
X69850000Y-143329000D01*
X76708000Y-143329000D01*
X77027541Y-143265439D01*
X77298434Y-143084434D01*
X79110434Y-141272434D01*
X79206581Y-141128540D01*
X79291439Y-141001541D01*
X79355000Y-140682000D01*
X79355000Y-139145857D01*
X79388371Y-139132068D01*
X79520421Y-139000249D01*
X79544890Y-139024718D01*
X79659447Y-138910161D01*
X79745852Y-139166643D01*
X80319336Y-139376458D01*
X80929460Y-139350839D01*
X81374148Y-139166643D01*
X81460553Y-138910161D01*
X81531951Y-138981559D01*
X81425182Y-139088141D01*
X81080393Y-139918486D01*
X81079609Y-140817570D01*
X81422948Y-141648515D01*
X82058141Y-142284818D01*
X82888486Y-142629607D01*
X83787570Y-142630391D01*
X84618515Y-142287052D01*
X85254818Y-141651859D01*
X85599607Y-140821514D01*
X85600391Y-139922430D01*
X85257052Y-139091485D01*
X84621859Y-138455182D01*
X83791514Y-138110393D01*
X82892430Y-138109609D01*
X82061485Y-138452948D01*
X81912000Y-138602172D01*
X82106458Y-138070664D01*
X82080839Y-137460540D01*
X81896643Y-137015852D01*
X81640159Y-136929446D01*
X80739605Y-137830000D01*
X80753748Y-137844143D01*
X80574143Y-138023748D01*
X80560000Y-138009605D01*
X80545858Y-138023748D01*
X80366253Y-137844143D01*
X80380395Y-137830000D01*
X80366253Y-137815858D01*
X80545858Y-137636253D01*
X80560000Y-137650395D01*
X81460554Y-136749841D01*
X81374148Y-136493357D01*
X81064949Y-136380233D01*
X81074733Y-136356670D01*
X81075265Y-135746009D01*
X80842068Y-135181629D01*
X80410643Y-134749449D01*
X80375000Y-134734649D01*
X80375000Y-132225644D01*
X80689357Y-132540551D01*
X81253330Y-132774733D01*
X81863991Y-132775265D01*
X82428371Y-132542068D01*
X82705104Y-132265818D01*
X82979357Y-132540551D01*
X83543330Y-132774733D01*
X84153991Y-132775265D01*
X84718371Y-132542068D01*
X85150551Y-132110643D01*
X85384733Y-131546670D01*
X85385265Y-130936009D01*
X85152068Y-130371629D01*
X84720643Y-129939449D01*
X84156670Y-129705267D01*
X83546009Y-129704735D01*
X82981629Y-129937932D01*
X82704896Y-130214182D01*
X82430643Y-129939449D01*
X81866670Y-129705267D01*
X81256009Y-129704735D01*
X80691629Y-129937932D01*
X80375000Y-130254008D01*
X80375000Y-126545868D01*
X85897827Y-121023041D01*
X86067998Y-121023189D01*
X86067998Y-135586939D01*
X85990643Y-135509449D01*
X85426670Y-135275267D01*
X84816009Y-135274735D01*
X84251629Y-135507932D01*
X83819449Y-135939357D01*
X83585267Y-136503330D01*
X83584735Y-137113991D01*
X83817932Y-137678371D01*
X84249357Y-138110551D01*
X84813330Y-138344733D01*
X85423991Y-138345265D01*
X85988371Y-138112068D01*
X86067998Y-138032580D01*
X86067998Y-139607998D01*
X86131559Y-139927539D01*
X86312564Y-140198432D01*
X89198566Y-143084434D01*
X89469459Y-143265439D01*
X89789000Y-143329000D01*
X96647000Y-143329000D01*
X96966541Y-143265439D01*
X97237434Y-143084434D01*
X99049434Y-141272434D01*
X99145581Y-141128540D01*
X99230439Y-141001541D01*
X99294000Y-140682000D01*
X99294000Y-139171061D01*
X99388371Y-139132068D01*
X99520421Y-139000249D01*
X99544890Y-139024718D01*
X99659447Y-138910161D01*
X99745852Y-139166643D01*
X100319336Y-139376458D01*
X100929460Y-139350839D01*
X101374148Y-139166643D01*
X101460553Y-138910161D01*
X101531951Y-138981559D01*
X101425182Y-139088141D01*
X101080393Y-139918486D01*
X101079609Y-140817570D01*
X101422948Y-141648515D01*
X102058141Y-142284818D01*
X102888486Y-142629607D01*
X103787570Y-142630391D01*
X104618515Y-142287052D01*
X105254818Y-141651859D01*
X105599607Y-140821514D01*
X105600391Y-139922430D01*
X105257052Y-139091485D01*
X104621859Y-138455182D01*
X103791514Y-138110393D01*
X102892430Y-138109609D01*
X102061485Y-138452948D01*
X101912000Y-138602172D01*
X102106458Y-138070664D01*
X102080839Y-137460540D01*
X101937294Y-137113991D01*
X103584735Y-137113991D01*
X103817932Y-137678371D01*
X104249357Y-138110551D01*
X104813330Y-138344733D01*
X105423991Y-138345265D01*
X105988371Y-138112068D01*
X106420551Y-137680643D01*
X106654733Y-137116670D01*
X106655265Y-136506009D01*
X106422068Y-135941629D01*
X105990643Y-135509449D01*
X105426670Y-135275267D01*
X104816009Y-135274735D01*
X104251629Y-135507932D01*
X103819449Y-135939357D01*
X103585267Y-136503330D01*
X103584735Y-137113991D01*
X101937294Y-137113991D01*
X101896643Y-137015852D01*
X101640159Y-136929446D01*
X100739605Y-137830000D01*
X100753748Y-137844143D01*
X100574143Y-138023748D01*
X100560000Y-138009605D01*
X100545858Y-138023748D01*
X100366253Y-137844143D01*
X100380395Y-137830000D01*
X100366253Y-137815858D01*
X100545858Y-137636253D01*
X100560000Y-137650395D01*
X101460554Y-136749841D01*
X101374148Y-136493357D01*
X101064949Y-136380233D01*
X101074733Y-136356670D01*
X101075265Y-135746009D01*
X100842068Y-135181629D01*
X100410643Y-134749449D01*
X100375000Y-134734649D01*
X100375000Y-132225644D01*
X100689357Y-132540551D01*
X101253330Y-132774733D01*
X101863991Y-132775265D01*
X102428371Y-132542068D01*
X102705104Y-132265818D01*
X102979357Y-132540551D01*
X103543330Y-132774733D01*
X104153991Y-132775265D01*
X104718371Y-132542068D01*
X105150551Y-132110643D01*
X105384733Y-131546670D01*
X105385265Y-130936009D01*
X105152068Y-130371629D01*
X104720643Y-129939449D01*
X104156670Y-129705267D01*
X103546009Y-129704735D01*
X102981629Y-129937932D01*
X102704896Y-130214182D01*
X102430643Y-129939449D01*
X101866670Y-129705267D01*
X101256009Y-129704735D01*
X100691629Y-129937932D01*
X100375000Y-130254008D01*
X100375000Y-122801868D01*
X102153827Y-121023041D01*
X102332775Y-121023197D01*
X102750086Y-120850767D01*
X103069645Y-120531765D01*
X103242803Y-120114756D01*
X103243197Y-119663225D01*
X103070767Y-119245914D01*
X102751765Y-118926355D01*
X102481052Y-118813944D01*
X102481197Y-118647225D01*
X102308767Y-118229914D01*
X101989765Y-117910355D01*
X101719052Y-117797944D01*
X101719197Y-117631225D01*
X101546767Y-117213914D01*
X101227765Y-116894355D01*
X100957052Y-116781944D01*
X100957197Y-116615225D01*
X100784767Y-116197914D01*
X100465765Y-115878355D01*
X100048756Y-115705197D01*
X99597225Y-115704803D01*
X99179914Y-115877233D01*
X98860355Y-116196235D01*
X98687197Y-116613244D01*
X98687039Y-116794093D01*
X93389566Y-122091566D01*
X93208561Y-122362459D01*
X93145000Y-122682000D01*
X93145000Y-129878973D01*
X92726670Y-129705267D01*
X92116009Y-129704735D01*
X91551629Y-129937932D01*
X91274896Y-130214182D01*
X91000643Y-129939449D01*
X90436670Y-129705267D01*
X89826009Y-129704735D01*
X89261629Y-129937932D01*
X89100000Y-130099279D01*
X89100000Y-117820868D01*
X89961827Y-116959041D01*
X90140775Y-116959197D01*
X90558086Y-116786767D01*
X90877645Y-116467765D01*
X91050803Y-116050756D01*
X91050961Y-115869907D01*
X92030434Y-114890434D01*
X92049945Y-114861233D01*
X92211439Y-114619541D01*
X92275000Y-114300000D01*
X92275000Y-110835868D01*
X97110434Y-106000434D01*
X97291439Y-105729541D01*
X97355000Y-105410000D01*
X97355000Y-101754058D01*
X97444943Y-101716894D01*
X97905278Y-101257363D01*
X98154716Y-100656648D01*
X98155284Y-100006205D01*
X97906894Y-99405057D01*
X97888869Y-99387000D01*
X99984132Y-99387000D01*
X101517566Y-100920434D01*
X101788460Y-101101440D01*
X102108000Y-101165000D01*
X105239146Y-101165000D01*
X105276838Y-101365317D01*
X105415910Y-101581441D01*
X105628110Y-101726431D01*
X105845000Y-101770352D01*
X105845000Y-104215917D01*
X105464176Y-104596077D01*
X105245250Y-105123309D01*
X105244752Y-105694187D01*
X105462757Y-106221800D01*
X105845000Y-106604710D01*
X105845000Y-109728000D01*
X105908561Y-110047541D01*
X105990693Y-110170460D01*
X106089566Y-110318434D01*
X107877000Y-112105868D01*
X107877000Y-114037811D01*
X107750355Y-114164235D01*
X107742946Y-114182078D01*
X107307041Y-113746173D01*
X107307197Y-113567225D01*
X107134767Y-113149914D01*
X106815765Y-112830355D01*
X106398756Y-112657197D01*
X105947225Y-112656803D01*
X105529914Y-112829233D01*
X105210355Y-113148235D01*
X105037197Y-113565244D01*
X105036803Y-114016775D01*
X105209233Y-114434086D01*
X105528235Y-114753645D01*
X105945244Y-114926803D01*
X106126093Y-114926961D01*
X108546998Y-117347866D01*
X108546998Y-139607998D01*
X108610559Y-139927539D01*
X108791564Y-140198432D01*
X111677566Y-143084434D01*
X111948459Y-143265439D01*
X112268000Y-143329000D01*
X119126000Y-143329000D01*
X119445541Y-143265439D01*
X119716434Y-143084434D01*
X121528434Y-141272434D01*
X121624581Y-141128540D01*
X121709439Y-141001541D01*
X121773000Y-140682000D01*
X121773000Y-139179738D01*
X121888371Y-139132068D01*
X122020421Y-139000249D01*
X122044890Y-139024718D01*
X122159447Y-138910161D01*
X122245852Y-139166643D01*
X122819336Y-139376458D01*
X123429460Y-139350839D01*
X123874148Y-139166643D01*
X123960553Y-138910161D01*
X124031951Y-138981559D01*
X123925182Y-139088141D01*
X123580393Y-139918486D01*
X123579609Y-140817570D01*
X123922948Y-141648515D01*
X124558141Y-142284818D01*
X125388486Y-142629607D01*
X126287570Y-142630391D01*
X127118515Y-142287052D01*
X127754818Y-141651859D01*
X128099607Y-140821514D01*
X128100391Y-139922430D01*
X127757052Y-139091485D01*
X127121859Y-138455182D01*
X126291514Y-138110393D01*
X125392430Y-138109609D01*
X124561485Y-138452948D01*
X124412000Y-138602172D01*
X124606458Y-138070664D01*
X124580839Y-137460540D01*
X124396643Y-137015852D01*
X124140159Y-136929446D01*
X123239605Y-137830000D01*
X123253748Y-137844143D01*
X123074143Y-138023748D01*
X123060000Y-138009605D01*
X123045858Y-138023748D01*
X122866253Y-137844143D01*
X122880395Y-137830000D01*
X122866253Y-137815858D01*
X123045858Y-137636253D01*
X123060000Y-137650395D01*
X123960554Y-136749841D01*
X123874148Y-136493357D01*
X123564949Y-136380233D01*
X123574733Y-136356670D01*
X123575265Y-135746009D01*
X123342068Y-135181629D01*
X122910643Y-134749449D01*
X122875000Y-134734649D01*
X122875000Y-132225644D01*
X123189357Y-132540551D01*
X123753330Y-132774733D01*
X124363991Y-132775265D01*
X124928371Y-132542068D01*
X125205104Y-132265818D01*
X125479357Y-132540551D01*
X126043330Y-132774733D01*
X126653991Y-132775265D01*
X127218371Y-132542068D01*
X127650551Y-132110643D01*
X127884733Y-131546670D01*
X127885265Y-130936009D01*
X127652068Y-130371629D01*
X127220643Y-129939449D01*
X126656670Y-129705267D01*
X126046009Y-129704735D01*
X125481629Y-129937932D01*
X125204896Y-130214182D01*
X124930643Y-129939449D01*
X124366670Y-129705267D01*
X123756009Y-129704735D01*
X123191629Y-129937932D01*
X122875000Y-130254008D01*
X122875000Y-122399868D01*
X124251827Y-121023041D01*
X124430775Y-121023197D01*
X124848086Y-120850767D01*
X125167645Y-120531765D01*
X125324104Y-120154972D01*
X128612998Y-123443866D01*
X128612998Y-135632018D01*
X128490643Y-135509449D01*
X127926670Y-135275267D01*
X127316009Y-135274735D01*
X126751629Y-135507932D01*
X126319449Y-135939357D01*
X126085267Y-136503330D01*
X126084735Y-137113991D01*
X126317932Y-137678371D01*
X126749357Y-138110551D01*
X127313330Y-138344733D01*
X127923991Y-138345265D01*
X128488371Y-138112068D01*
X128612998Y-137987659D01*
X128612998Y-139734998D01*
X128676559Y-140054539D01*
X128795784Y-140232971D01*
X128857564Y-140325432D01*
X131743566Y-143211434D01*
X132014459Y-143392439D01*
X132334000Y-143456000D01*
X139192000Y-143456000D01*
X139511541Y-143392439D01*
X139782434Y-143211434D01*
X141594434Y-141399434D01*
X141775439Y-141128541D01*
X141839000Y-140809000D01*
X141839000Y-139152468D01*
X141888371Y-139132068D01*
X142020421Y-139000249D01*
X142044890Y-139024718D01*
X142159447Y-138910161D01*
X142245852Y-139166643D01*
X142819336Y-139376458D01*
X143429460Y-139350839D01*
X143874148Y-139166643D01*
X143960553Y-138910161D01*
X144031951Y-138981559D01*
X143925182Y-139088141D01*
X143580393Y-139918486D01*
X143579609Y-140817570D01*
X143922948Y-141648515D01*
X144558141Y-142284818D01*
X145388486Y-142629607D01*
X146287570Y-142630391D01*
X147118515Y-142287052D01*
X147754818Y-141651859D01*
X148004731Y-141050000D01*
X151243173Y-141050000D01*
X151405690Y-141867029D01*
X151868500Y-142559673D01*
X152561144Y-143022483D01*
X153378173Y-143185000D01*
X153461827Y-143185000D01*
X154278856Y-143022483D01*
X154971500Y-142559673D01*
X155434310Y-141867029D01*
X155596827Y-141050000D01*
X155434310Y-140232971D01*
X154971500Y-139540327D01*
X154278856Y-139077517D01*
X153461827Y-138915000D01*
X153378173Y-138915000D01*
X152561144Y-139077517D01*
X151868500Y-139540327D01*
X151405690Y-140232971D01*
X151243173Y-141050000D01*
X148004731Y-141050000D01*
X148099607Y-140821514D01*
X148100391Y-139922430D01*
X147757052Y-139091485D01*
X147121859Y-138455182D01*
X146291514Y-138110393D01*
X145392430Y-138109609D01*
X144561485Y-138452948D01*
X144412000Y-138602172D01*
X144606458Y-138070664D01*
X144580839Y-137460540D01*
X144437294Y-137113991D01*
X146084735Y-137113991D01*
X146317932Y-137678371D01*
X146749357Y-138110551D01*
X147313330Y-138344733D01*
X147923991Y-138345265D01*
X148488371Y-138112068D01*
X148920551Y-137680643D01*
X149154733Y-137116670D01*
X149155265Y-136506009D01*
X148922068Y-135941629D01*
X148490643Y-135509449D01*
X147926670Y-135275267D01*
X147316009Y-135274735D01*
X146751629Y-135507932D01*
X146319449Y-135939357D01*
X146085267Y-136503330D01*
X146084735Y-137113991D01*
X144437294Y-137113991D01*
X144396643Y-137015852D01*
X144140159Y-136929446D01*
X143239605Y-137830000D01*
X143253748Y-137844143D01*
X143074143Y-138023748D01*
X143060000Y-138009605D01*
X143045858Y-138023748D01*
X142866253Y-137844143D01*
X142880395Y-137830000D01*
X142866253Y-137815858D01*
X143045858Y-137636253D01*
X143060000Y-137650395D01*
X143960554Y-136749841D01*
X143874148Y-136493357D01*
X143564949Y-136380233D01*
X143574733Y-136356670D01*
X143575265Y-135746009D01*
X143342068Y-135181629D01*
X142910643Y-134749449D01*
X142875000Y-134734649D01*
X142875000Y-132225644D01*
X143189357Y-132540551D01*
X143753330Y-132774733D01*
X144363991Y-132775265D01*
X144928371Y-132542068D01*
X145205104Y-132265818D01*
X145479357Y-132540551D01*
X146043330Y-132774733D01*
X146653991Y-132775265D01*
X147218371Y-132542068D01*
X147650551Y-132110643D01*
X147884733Y-131546670D01*
X147885265Y-130936009D01*
X147652068Y-130371629D01*
X147220643Y-129939449D01*
X146656670Y-129705267D01*
X146046009Y-129704735D01*
X145481629Y-129937932D01*
X145204896Y-130214182D01*
X144930643Y-129939449D01*
X144366670Y-129705267D01*
X143756009Y-129704735D01*
X143191629Y-129937932D01*
X142875000Y-130254008D01*
X142875000Y-120958000D01*
X142853670Y-120850767D01*
X142811440Y-120638460D01*
X142630435Y-120367566D01*
X142105041Y-119842172D01*
X142105197Y-119663225D01*
X141932767Y-119245914D01*
X141613765Y-118926355D01*
X141196756Y-118753197D01*
X140745225Y-118752803D01*
X140327914Y-118925233D01*
X140008355Y-119244235D01*
X140000946Y-119262078D01*
X139565041Y-118826173D01*
X139565197Y-118647225D01*
X139392767Y-118229914D01*
X139073765Y-117910355D01*
X138656756Y-117737197D01*
X138205225Y-117736803D01*
X137787914Y-117909233D01*
X137468355Y-118228235D01*
X137460946Y-118246078D01*
X137025041Y-117810173D01*
X137025197Y-117631225D01*
X136852767Y-117213914D01*
X136533765Y-116894355D01*
X136116756Y-116721197D01*
X135665225Y-116720803D01*
X135247914Y-116893233D01*
X134928355Y-117212235D01*
X134920946Y-117230078D01*
X134485041Y-116794173D01*
X134485197Y-116615225D01*
X134312767Y-116197914D01*
X134185000Y-116069924D01*
X134185000Y-113184058D01*
X134274943Y-113146894D01*
X134735278Y-112687363D01*
X134773630Y-112595000D01*
X148244132Y-112595000D01*
X148401193Y-112752061D01*
X148345907Y-113030000D01*
X148458946Y-113598285D01*
X148780853Y-114080054D01*
X149110026Y-114300000D01*
X148780853Y-114519946D01*
X148458946Y-115001715D01*
X148345907Y-115570000D01*
X148458946Y-116138285D01*
X148780853Y-116620054D01*
X149110026Y-116840000D01*
X148780853Y-117059946D01*
X148458946Y-117541715D01*
X148345907Y-118110000D01*
X148458946Y-118678285D01*
X148780853Y-119160054D01*
X149110026Y-119380000D01*
X148780853Y-119599946D01*
X148458946Y-120081715D01*
X148345907Y-120650000D01*
X148458946Y-121218285D01*
X148780853Y-121700054D01*
X149262622Y-122021961D01*
X149830907Y-122135000D01*
X149889093Y-122135000D01*
X150457378Y-122021961D01*
X150939147Y-121700054D01*
X150939971Y-121698821D01*
X150946838Y-121735317D01*
X151085910Y-121951441D01*
X151298110Y-122096431D01*
X151550000Y-122147440D01*
X153250000Y-122147440D01*
X153485317Y-122103162D01*
X153701441Y-121964090D01*
X153846431Y-121751890D01*
X153897440Y-121500000D01*
X153897440Y-119800000D01*
X153853162Y-119564683D01*
X153714090Y-119348559D01*
X153501890Y-119203569D01*
X153434459Y-119189914D01*
X153479147Y-119160054D01*
X153801054Y-118678285D01*
X153914093Y-118110000D01*
X153801054Y-117541715D01*
X153479147Y-117059946D01*
X153149974Y-116840000D01*
X153479147Y-116620054D01*
X153801054Y-116138285D01*
X153914093Y-115570000D01*
X153801054Y-115001715D01*
X153479147Y-114519946D01*
X153149974Y-114300000D01*
X153479147Y-114080054D01*
X153801054Y-113598285D01*
X153914093Y-113030000D01*
X153801054Y-112461715D01*
X153479147Y-111979946D01*
X152997378Y-111658039D01*
X152429093Y-111545000D01*
X152370907Y-111545000D01*
X151802622Y-111658039D01*
X151320853Y-111979946D01*
X151177159Y-112195000D01*
X151082841Y-112195000D01*
X150939147Y-111979946D01*
X150457378Y-111658039D01*
X149889093Y-111545000D01*
X149830907Y-111545000D01*
X149601500Y-111590632D01*
X149180434Y-111169566D01*
X148909541Y-110988561D01*
X148590000Y-110925000D01*
X134774058Y-110925000D01*
X134736894Y-110835057D01*
X134392241Y-110489801D01*
X134735278Y-110147363D01*
X134984716Y-109546648D01*
X134985284Y-108896205D01*
X134947093Y-108803775D01*
X137750434Y-106000434D01*
X137931440Y-105729540D01*
X137995000Y-105410000D01*
X137995000Y-101754058D01*
X138084943Y-101716894D01*
X138545278Y-101257363D01*
X138631382Y-101050000D01*
X151243173Y-101050000D01*
X151405690Y-101867029D01*
X151868500Y-102559673D01*
X152561144Y-103022483D01*
X153378173Y-103185000D01*
X153461827Y-103185000D01*
X154278856Y-103022483D01*
X154971500Y-102559673D01*
X155434310Y-101867029D01*
X155596827Y-101050000D01*
X155434310Y-100232971D01*
X154971500Y-99540327D01*
X154278856Y-99077517D01*
X153461827Y-98915000D01*
X153378173Y-98915000D01*
X152561144Y-99077517D01*
X151868500Y-99540327D01*
X151405690Y-100232971D01*
X151243173Y-101050000D01*
X138631382Y-101050000D01*
X138794716Y-100656648D01*
X138795284Y-100006205D01*
X138546894Y-99405057D01*
X138087363Y-98944722D01*
X137486648Y-98695284D01*
X136836205Y-98694716D01*
X136235057Y-98943106D01*
X135774722Y-99402637D01*
X135525284Y-100003352D01*
X135524716Y-100653795D01*
X135773106Y-101254943D01*
X136232637Y-101715278D01*
X136325000Y-101753630D01*
X136325000Y-105064132D01*
X133766527Y-107622605D01*
X133676648Y-107585284D01*
X133026205Y-107584716D01*
X132425057Y-107833106D01*
X132079801Y-108177759D01*
X131737363Y-107834722D01*
X131645000Y-107796370D01*
X131645000Y-101945868D01*
X131663473Y-101927395D01*
X131753352Y-101964716D01*
X132403795Y-101965284D01*
X133004943Y-101716894D01*
X133465278Y-101257363D01*
X133714716Y-100656648D01*
X133715284Y-100006205D01*
X133466894Y-99405057D01*
X133007363Y-98944722D01*
X132406648Y-98695284D01*
X131756205Y-98694716D01*
X131155057Y-98943106D01*
X130694722Y-99402637D01*
X130445284Y-100003352D01*
X130444716Y-100653795D01*
X130482907Y-100746225D01*
X130219566Y-101009566D01*
X130038561Y-101280459D01*
X129975000Y-101600000D01*
X129975000Y-107795942D01*
X129885057Y-107833106D01*
X129539801Y-108177759D01*
X129197363Y-107834722D01*
X129105000Y-107796370D01*
X129105000Y-101600000D01*
X129041439Y-101280459D01*
X128860434Y-101009566D01*
X128597395Y-100746527D01*
X128634716Y-100656648D01*
X128635284Y-100006205D01*
X128386894Y-99405057D01*
X127927363Y-98944722D01*
X127326648Y-98695284D01*
X126676205Y-98694716D01*
X126075057Y-98943106D01*
X125614722Y-99402637D01*
X125365284Y-100003352D01*
X125364716Y-100653795D01*
X125613106Y-101254943D01*
X126072637Y-101715278D01*
X126673352Y-101964716D01*
X127323795Y-101965284D01*
X127416225Y-101927093D01*
X127435000Y-101945868D01*
X127435000Y-107795942D01*
X127345057Y-107833106D01*
X126999801Y-108177759D01*
X126657363Y-107834722D01*
X126056648Y-107585284D01*
X125406205Y-107584716D01*
X125313775Y-107622907D01*
X122755000Y-105064132D01*
X122755000Y-101754058D01*
X122844943Y-101716894D01*
X123305278Y-101257363D01*
X123554716Y-100656648D01*
X123555284Y-100006205D01*
X123306894Y-99405057D01*
X122847363Y-98944722D01*
X122246648Y-98695284D01*
X121596205Y-98694716D01*
X120995057Y-98943106D01*
X120534722Y-99402637D01*
X120285284Y-100003352D01*
X120284716Y-100653795D01*
X120533106Y-101254943D01*
X120992637Y-101715278D01*
X121085000Y-101753630D01*
X121085000Y-105410000D01*
X121148561Y-105729541D01*
X121329566Y-106000434D01*
X124132605Y-108803473D01*
X124095284Y-108893352D01*
X124094716Y-109543795D01*
X124343106Y-110144943D01*
X124687759Y-110490199D01*
X124344722Y-110832637D01*
X124095284Y-111433352D01*
X124094716Y-112083795D01*
X124343106Y-112684943D01*
X124802637Y-113145278D01*
X124895000Y-113183630D01*
X124895000Y-114300000D01*
X124958561Y-114619541D01*
X125004845Y-114688810D01*
X124997225Y-114688803D01*
X124579914Y-114861233D01*
X124260355Y-115180235D01*
X124252946Y-115198078D01*
X123817041Y-114762173D01*
X123817197Y-114583225D01*
X123644767Y-114165914D01*
X123325765Y-113846355D01*
X122908756Y-113673197D01*
X122457225Y-113672803D01*
X122039914Y-113845233D01*
X121720355Y-114164235D01*
X121712946Y-114182078D01*
X121277041Y-113746173D01*
X121277197Y-113567225D01*
X121104767Y-113149914D01*
X120785765Y-112830355D01*
X120368756Y-112657197D01*
X119917225Y-112656803D01*
X119499914Y-112829233D01*
X119180355Y-113148235D01*
X119007197Y-113565244D01*
X119006803Y-114016775D01*
X119179233Y-114434086D01*
X119498235Y-114753645D01*
X119915244Y-114926803D01*
X120096093Y-114926961D01*
X121039801Y-115870669D01*
X121023914Y-115877233D01*
X120704355Y-116196235D01*
X120531197Y-116613244D01*
X120531039Y-116794093D01*
X116249566Y-121075566D01*
X116068561Y-121346459D01*
X116005000Y-121666000D01*
X116005000Y-130154181D01*
X115790643Y-129939449D01*
X115226670Y-129705267D01*
X114616009Y-129704735D01*
X114051629Y-129937932D01*
X113774896Y-130214182D01*
X113500643Y-129939449D01*
X112936670Y-129705267D01*
X112326009Y-129704735D01*
X111761629Y-129937932D01*
X111579000Y-130120242D01*
X111579000Y-117439868D01*
X112059827Y-116959041D01*
X112238775Y-116959197D01*
X112656086Y-116786767D01*
X112975645Y-116467765D01*
X113148803Y-116050756D01*
X113149197Y-115599225D01*
X112976767Y-115181914D01*
X112657765Y-114862355D01*
X112240756Y-114689197D01*
X111789225Y-114688803D01*
X111371914Y-114861233D01*
X111052355Y-115180235D01*
X110879197Y-115597244D01*
X110879039Y-115778093D01*
X110777535Y-115879597D01*
X110753439Y-115758459D01*
X110572434Y-115487566D01*
X109847041Y-114762173D01*
X109847197Y-114583225D01*
X109674767Y-114165914D01*
X109547000Y-114037924D01*
X109547000Y-111760000D01*
X109483439Y-111440459D01*
X109302434Y-111169566D01*
X107515000Y-109382132D01*
X107515000Y-106604083D01*
X107701663Y-106417745D01*
X108351861Y-106417745D01*
X108425995Y-106663864D01*
X108963223Y-106856965D01*
X109533454Y-106829778D01*
X109934005Y-106663864D01*
X110008139Y-106417745D01*
X109180000Y-105589605D01*
X108351861Y-106417745D01*
X107701663Y-106417745D01*
X107895824Y-106223923D01*
X107923423Y-106157456D01*
X107926136Y-106164005D01*
X108172255Y-106238139D01*
X109000395Y-105410000D01*
X109359605Y-105410000D01*
X110187745Y-106238139D01*
X110433864Y-106164005D01*
X110626965Y-105626777D01*
X110599778Y-105056546D01*
X110433864Y-104655995D01*
X110187745Y-104581861D01*
X109359605Y-105410000D01*
X109000395Y-105410000D01*
X108172255Y-104581861D01*
X107926136Y-104655995D01*
X107923804Y-104662483D01*
X107897243Y-104598200D01*
X107701640Y-104402255D01*
X108351861Y-104402255D01*
X109180000Y-105230395D01*
X110008139Y-104402255D01*
X109934005Y-104156136D01*
X109396777Y-103963035D01*
X108826546Y-103990222D01*
X108425995Y-104156136D01*
X108351861Y-104402255D01*
X107701640Y-104402255D01*
X107515000Y-104215290D01*
X107515000Y-101770854D01*
X107715317Y-101733162D01*
X107931441Y-101594090D01*
X108076431Y-101381890D01*
X108085370Y-101337745D01*
X108351861Y-101337745D01*
X108425995Y-101583864D01*
X108963223Y-101776965D01*
X109533454Y-101749778D01*
X109934005Y-101583864D01*
X110008139Y-101337745D01*
X109180000Y-100509605D01*
X108351861Y-101337745D01*
X108085370Y-101337745D01*
X108124646Y-101143799D01*
X108172255Y-101158139D01*
X109000395Y-100330000D01*
X109359605Y-100330000D01*
X110187745Y-101158139D01*
X110433864Y-101084005D01*
X110626965Y-100546777D01*
X110599778Y-99976546D01*
X110433864Y-99575995D01*
X110187745Y-99501861D01*
X109359605Y-100330000D01*
X109000395Y-100330000D01*
X108172255Y-99501861D01*
X108124833Y-99516145D01*
X108088351Y-99322255D01*
X108351861Y-99322255D01*
X109180000Y-100150395D01*
X110008139Y-99322255D01*
X109934005Y-99076136D01*
X109396777Y-98883035D01*
X108826546Y-98910222D01*
X108425995Y-99076136D01*
X108351861Y-99322255D01*
X108088351Y-99322255D01*
X108083162Y-99294683D01*
X107944090Y-99078559D01*
X107731890Y-98933569D01*
X107480000Y-98882560D01*
X105880000Y-98882560D01*
X105644683Y-98926838D01*
X105428559Y-99065910D01*
X105283569Y-99278110D01*
X105239648Y-99495000D01*
X102453868Y-99495000D01*
X100920434Y-97961566D01*
X100649541Y-97780561D01*
X100330000Y-97717000D01*
X93218000Y-97717000D01*
X92898460Y-97780560D01*
X92627566Y-97961566D01*
X91856527Y-98732605D01*
X91766648Y-98695284D01*
X91116205Y-98694716D01*
X90515057Y-98943106D01*
X90054722Y-99402637D01*
X89805284Y-100003352D01*
X89804716Y-100653795D01*
X90053106Y-101254943D01*
X90512637Y-101715278D01*
X90605000Y-101753630D01*
X90605000Y-102524132D01*
X89824132Y-103305000D01*
X79085868Y-103305000D01*
X77263400Y-101482532D01*
X80307073Y-101482532D01*
X80405736Y-101749387D01*
X81015461Y-101975908D01*
X81665460Y-101951856D01*
X82154264Y-101749387D01*
X82252927Y-101482532D01*
X81280000Y-100509605D01*
X80307073Y-101482532D01*
X77263400Y-101482532D01*
X76364779Y-100583911D01*
X76365230Y-100065461D01*
X79634092Y-100065461D01*
X79658144Y-100715460D01*
X79860613Y-101204264D01*
X80127468Y-101302927D01*
X81100395Y-100330000D01*
X81459605Y-100330000D01*
X82432532Y-101302927D01*
X82699387Y-101204264D01*
X82903893Y-100653795D01*
X84724716Y-100653795D01*
X84973106Y-101254943D01*
X85432637Y-101715278D01*
X86033352Y-101964716D01*
X86683795Y-101965284D01*
X87284943Y-101716894D01*
X87745278Y-101257363D01*
X87994716Y-100656648D01*
X87995284Y-100006205D01*
X87746894Y-99405057D01*
X87287363Y-98944722D01*
X86686648Y-98695284D01*
X86036205Y-98694716D01*
X85435057Y-98943106D01*
X84974722Y-99402637D01*
X84725284Y-100003352D01*
X84724716Y-100653795D01*
X82903893Y-100653795D01*
X82925908Y-100594539D01*
X82901856Y-99944540D01*
X82699387Y-99455736D01*
X82432532Y-99357073D01*
X81459605Y-100330000D01*
X81100395Y-100330000D01*
X80127468Y-99357073D01*
X79860613Y-99455736D01*
X79634092Y-100065461D01*
X76365230Y-100065461D01*
X76365248Y-100045813D01*
X76147243Y-99518200D01*
X75807105Y-99177468D01*
X80307073Y-99177468D01*
X81280000Y-100150395D01*
X82252927Y-99177468D01*
X82154264Y-98910613D01*
X81544539Y-98684092D01*
X80894540Y-98708144D01*
X80405736Y-98910613D01*
X80307073Y-99177468D01*
X75807105Y-99177468D01*
X75743923Y-99114176D01*
X75216691Y-98895250D01*
X74645813Y-98894752D01*
X74118200Y-99112757D01*
X73735290Y-99495000D01*
X73584083Y-99495000D01*
X73203923Y-99114176D01*
X72676691Y-98895250D01*
X72105813Y-98894752D01*
X71578200Y-99112757D01*
X71174176Y-99516077D01*
X70955250Y-100043309D01*
X70954752Y-100614187D01*
X71172757Y-101141800D01*
X71576077Y-101545824D01*
X72103309Y-101764750D01*
X72674187Y-101765248D01*
X73201800Y-101547243D01*
X73584710Y-101165000D01*
X73735917Y-101165000D01*
X74116077Y-101545824D01*
X74643309Y-101764750D01*
X75184354Y-101765222D01*
X78149566Y-104730434D01*
X78420460Y-104911440D01*
X78740000Y-104975000D01*
X90170000Y-104975000D01*
X90489541Y-104911439D01*
X90760434Y-104730434D01*
X92030434Y-103460434D01*
X92211439Y-103189541D01*
X92275000Y-102870000D01*
X92275000Y-101754058D01*
X92364943Y-101716894D01*
X92825278Y-101257363D01*
X93074716Y-100656648D01*
X93075284Y-100006205D01*
X93037093Y-99913775D01*
X93563868Y-99387000D01*
X95150386Y-99387000D01*
X95134722Y-99402637D01*
X94885284Y-100003352D01*
X94884716Y-100653795D01*
X95133106Y-101254943D01*
X95592637Y-101715278D01*
X95685000Y-101753630D01*
X95685000Y-105064132D01*
X91094132Y-109655000D01*
X76083553Y-109655000D01*
X75944698Y-109447189D01*
X75479151Y-109136120D01*
X74930000Y-109026887D01*
X74380849Y-109136120D01*
X73915302Y-109447189D01*
X73660000Y-109829275D01*
X73404698Y-109447189D01*
X72939151Y-109136120D01*
X72390000Y-109026887D01*
X71840849Y-109136120D01*
X71375302Y-109447189D01*
X71064233Y-109912736D01*
X70955000Y-110461887D01*
X70955000Y-110518113D01*
X71064233Y-111067264D01*
X71375302Y-111532811D01*
X71555000Y-111652882D01*
X71555000Y-113030000D01*
X71618561Y-113349541D01*
X71762689Y-113565244D01*
X71799566Y-113620434D01*
X72914132Y-114735000D01*
X67262841Y-114735000D01*
X67119147Y-114519946D01*
X66778447Y-114292298D01*
X66921358Y-114225183D01*
X67311645Y-113796924D01*
X67481476Y-113386890D01*
X67360155Y-113157000D01*
X66167000Y-113157000D01*
X66167000Y-113177000D01*
X65913000Y-113177000D01*
X65913000Y-113157000D01*
X63627000Y-113157000D01*
X63627000Y-113177000D01*
X63373000Y-113177000D01*
X63373000Y-113157000D01*
X62173750Y-113157000D01*
X62015000Y-113315750D01*
X62015000Y-114006310D01*
X62111673Y-114239699D01*
X62290302Y-114418327D01*
X62464777Y-114490597D01*
X62420853Y-114519946D01*
X62098946Y-115001715D01*
X61985907Y-115570000D01*
X58547000Y-115570000D01*
X58547000Y-112053690D01*
X62015000Y-112053690D01*
X62015000Y-112744250D01*
X62173750Y-112903000D01*
X63373000Y-112903000D01*
X63373000Y-111703750D01*
X63627000Y-111703750D01*
X63627000Y-112903000D01*
X65913000Y-112903000D01*
X65913000Y-111709181D01*
X66167000Y-111709181D01*
X66167000Y-112903000D01*
X67360155Y-112903000D01*
X67481476Y-112673110D01*
X67311645Y-112263076D01*
X66921358Y-111834817D01*
X66396892Y-111588514D01*
X66167000Y-111709181D01*
X65913000Y-111709181D01*
X65683108Y-111588514D01*
X65158642Y-111834817D01*
X64976930Y-112034208D01*
X64888327Y-111820301D01*
X64709698Y-111641673D01*
X64476309Y-111545000D01*
X63785750Y-111545000D01*
X63627000Y-111703750D01*
X63373000Y-111703750D01*
X63214250Y-111545000D01*
X62523691Y-111545000D01*
X62290302Y-111641673D01*
X62111673Y-111820301D01*
X62015000Y-112053690D01*
X58547000Y-112053690D01*
X58547000Y-101050000D01*
X61243173Y-101050000D01*
X61405690Y-101867029D01*
X61868500Y-102559673D01*
X62561144Y-103022483D01*
X63378173Y-103185000D01*
X63461827Y-103185000D01*
X64278856Y-103022483D01*
X64971500Y-102559673D01*
X65434310Y-101867029D01*
X65596827Y-101050000D01*
X65434310Y-100232971D01*
X64971500Y-99540327D01*
X64278856Y-99077517D01*
X63461827Y-98915000D01*
X63378173Y-98915000D01*
X62561144Y-99077517D01*
X61868500Y-99540327D01*
X61405690Y-100232971D01*
X61243173Y-101050000D01*
X58547000Y-101050000D01*
X58547000Y-96177000D01*
X158293000Y-96177000D01*
X158293000Y-145923000D01*
X158293000Y-145923000D01*
G37*
X158293000Y-145923000D02*
X58547000Y-145923000D01*
X58547000Y-141050000D01*
X61243173Y-141050000D01*
X61405690Y-141867029D01*
X61868500Y-142559673D01*
X62561144Y-143022483D01*
X63378173Y-143185000D01*
X63461827Y-143185000D01*
X64278856Y-143022483D01*
X64971500Y-142559673D01*
X65434310Y-141867029D01*
X65596827Y-141050000D01*
X65434310Y-140232971D01*
X64971500Y-139540327D01*
X64278856Y-139077517D01*
X63461827Y-138915000D01*
X63378173Y-138915000D01*
X62561144Y-139077517D01*
X61868500Y-139540327D01*
X61405690Y-140232971D01*
X61243173Y-141050000D01*
X58547000Y-141050000D01*
X58547000Y-115570000D01*
X61985907Y-115570000D01*
X62098946Y-116138285D01*
X62420853Y-116620054D01*
X62750026Y-116840000D01*
X62420853Y-117059946D01*
X62098946Y-117541715D01*
X61985907Y-118110000D01*
X62098946Y-118678285D01*
X62420853Y-119160054D01*
X62750026Y-119380000D01*
X62420853Y-119599946D01*
X62098946Y-120081715D01*
X61985907Y-120650000D01*
X62098946Y-121218285D01*
X62420853Y-121700054D01*
X62902622Y-122021961D01*
X63470907Y-122135000D01*
X63529093Y-122135000D01*
X64097378Y-122021961D01*
X64579147Y-121700054D01*
X64770000Y-121414422D01*
X64960853Y-121700054D01*
X65442622Y-122021961D01*
X66010907Y-122135000D01*
X66069093Y-122135000D01*
X66637378Y-122021961D01*
X67119147Y-121700054D01*
X67441054Y-121218285D01*
X67554093Y-120650000D01*
X67441054Y-120081715D01*
X67119147Y-119599946D01*
X66789974Y-119380000D01*
X67119147Y-119160054D01*
X67441054Y-118678285D01*
X67554093Y-118110000D01*
X67441054Y-117541715D01*
X67119147Y-117059946D01*
X66789974Y-116840000D01*
X67119147Y-116620054D01*
X67262841Y-116405000D01*
X75184000Y-116405000D01*
X75503541Y-116341439D01*
X75774434Y-116160434D01*
X77307868Y-114627000D01*
X79010132Y-114627000D01*
X66373564Y-127263568D01*
X66192559Y-127534461D01*
X66128998Y-127854002D01*
X66128998Y-139607998D01*
X66192559Y-139927539D01*
X66373564Y-140198432D01*
X69259566Y-143084434D01*
X69530459Y-143265439D01*
X69850000Y-143329000D01*
X76708000Y-143329000D01*
X77027541Y-143265439D01*
X77298434Y-143084434D01*
X79110434Y-141272434D01*
X79206581Y-141128540D01*
X79291439Y-141001541D01*
X79355000Y-140682000D01*
X79355000Y-139145857D01*
X79388371Y-139132068D01*
X79520421Y-139000249D01*
X79544890Y-139024718D01*
X79659447Y-138910161D01*
X79745852Y-139166643D01*
X80319336Y-139376458D01*
X80929460Y-139350839D01*
X81374148Y-139166643D01*
X81460553Y-138910161D01*
X81531951Y-138981559D01*
X81425182Y-139088141D01*
X81080393Y-139918486D01*
X81079609Y-140817570D01*
X81422948Y-141648515D01*
X82058141Y-142284818D01*
X82888486Y-142629607D01*
X83787570Y-142630391D01*
X84618515Y-142287052D01*
X85254818Y-141651859D01*
X85599607Y-140821514D01*
X85600391Y-139922430D01*
X85257052Y-139091485D01*
X84621859Y-138455182D01*
X83791514Y-138110393D01*
X82892430Y-138109609D01*
X82061485Y-138452948D01*
X81912000Y-138602172D01*
X82106458Y-138070664D01*
X82080839Y-137460540D01*
X81896643Y-137015852D01*
X81640159Y-136929446D01*
X80739605Y-137830000D01*
X80753748Y-137844143D01*
X80574143Y-138023748D01*
X80560000Y-138009605D01*
X80545858Y-138023748D01*
X80366253Y-137844143D01*
X80380395Y-137830000D01*
X80366253Y-137815858D01*
X80545858Y-137636253D01*
X80560000Y-137650395D01*
X81460554Y-136749841D01*
X81374148Y-136493357D01*
X81064949Y-136380233D01*
X81074733Y-136356670D01*
X81075265Y-135746009D01*
X80842068Y-135181629D01*
X80410643Y-134749449D01*
X80375000Y-134734649D01*
X80375000Y-132225644D01*
X80689357Y-132540551D01*
X81253330Y-132774733D01*
X81863991Y-132775265D01*
X82428371Y-132542068D01*
X82705104Y-132265818D01*
X82979357Y-132540551D01*
X83543330Y-132774733D01*
X84153991Y-132775265D01*
X84718371Y-132542068D01*
X85150551Y-132110643D01*
X85384733Y-131546670D01*
X85385265Y-130936009D01*
X85152068Y-130371629D01*
X84720643Y-129939449D01*
X84156670Y-129705267D01*
X83546009Y-129704735D01*
X82981629Y-129937932D01*
X82704896Y-130214182D01*
X82430643Y-129939449D01*
X81866670Y-129705267D01*
X81256009Y-129704735D01*
X80691629Y-129937932D01*
X80375000Y-130254008D01*
X80375000Y-126545868D01*
X85897827Y-121023041D01*
X86067998Y-121023189D01*
X86067998Y-135586939D01*
X85990643Y-135509449D01*
X85426670Y-135275267D01*
X84816009Y-135274735D01*
X84251629Y-135507932D01*
X83819449Y-135939357D01*
X83585267Y-136503330D01*
X83584735Y-137113991D01*
X83817932Y-137678371D01*
X84249357Y-138110551D01*
X84813330Y-138344733D01*
X85423991Y-138345265D01*
X85988371Y-138112068D01*
X86067998Y-138032580D01*
X86067998Y-139607998D01*
X86131559Y-139927539D01*
X86312564Y-140198432D01*
X89198566Y-143084434D01*
X89469459Y-143265439D01*
X89789000Y-143329000D01*
X96647000Y-143329000D01*
X96966541Y-143265439D01*
X97237434Y-143084434D01*
X99049434Y-141272434D01*
X99145581Y-141128540D01*
X99230439Y-141001541D01*
X99294000Y-140682000D01*
X99294000Y-139171061D01*
X99388371Y-139132068D01*
X99520421Y-139000249D01*
X99544890Y-139024718D01*
X99659447Y-138910161D01*
X99745852Y-139166643D01*
X100319336Y-139376458D01*
X100929460Y-139350839D01*
X101374148Y-139166643D01*
X101460553Y-138910161D01*
X101531951Y-138981559D01*
X101425182Y-139088141D01*
X101080393Y-139918486D01*
X101079609Y-140817570D01*
X101422948Y-141648515D01*
X102058141Y-142284818D01*
X102888486Y-142629607D01*
X103787570Y-142630391D01*
X104618515Y-142287052D01*
X105254818Y-141651859D01*
X105599607Y-140821514D01*
X105600391Y-139922430D01*
X105257052Y-139091485D01*
X104621859Y-138455182D01*
X103791514Y-138110393D01*
X102892430Y-138109609D01*
X102061485Y-138452948D01*
X101912000Y-138602172D01*
X102106458Y-138070664D01*
X102080839Y-137460540D01*
X101937294Y-137113991D01*
X103584735Y-137113991D01*
X103817932Y-137678371D01*
X104249357Y-138110551D01*
X104813330Y-138344733D01*
X105423991Y-138345265D01*
X105988371Y-138112068D01*
X106420551Y-137680643D01*
X106654733Y-137116670D01*
X106655265Y-136506009D01*
X106422068Y-135941629D01*
X105990643Y-135509449D01*
X105426670Y-135275267D01*
X104816009Y-135274735D01*
X104251629Y-135507932D01*
X103819449Y-135939357D01*
X103585267Y-136503330D01*
X103584735Y-137113991D01*
X101937294Y-137113991D01*
X101896643Y-137015852D01*
X101640159Y-136929446D01*
X100739605Y-137830000D01*
X100753748Y-137844143D01*
X100574143Y-138023748D01*
X100560000Y-138009605D01*
X100545858Y-138023748D01*
X100366253Y-137844143D01*
X100380395Y-137830000D01*
X100366253Y-137815858D01*
X100545858Y-137636253D01*
X100560000Y-137650395D01*
X101460554Y-136749841D01*
X101374148Y-136493357D01*
X101064949Y-136380233D01*
X101074733Y-136356670D01*
X101075265Y-135746009D01*
X100842068Y-135181629D01*
X100410643Y-134749449D01*
X100375000Y-134734649D01*
X100375000Y-132225644D01*
X100689357Y-132540551D01*
X101253330Y-132774733D01*
X101863991Y-132775265D01*
X102428371Y-132542068D01*
X102705104Y-132265818D01*
X102979357Y-132540551D01*
X103543330Y-132774733D01*
X104153991Y-132775265D01*
X104718371Y-132542068D01*
X105150551Y-132110643D01*
X105384733Y-131546670D01*
X105385265Y-130936009D01*
X105152068Y-130371629D01*
X104720643Y-129939449D01*
X104156670Y-129705267D01*
X103546009Y-129704735D01*
X102981629Y-129937932D01*
X102704896Y-130214182D01*
X102430643Y-129939449D01*
X101866670Y-129705267D01*
X101256009Y-129704735D01*
X100691629Y-129937932D01*
X100375000Y-130254008D01*
X100375000Y-122801868D01*
X102153827Y-121023041D01*
X102332775Y-121023197D01*
X102750086Y-120850767D01*
X103069645Y-120531765D01*
X103242803Y-120114756D01*
X103243197Y-119663225D01*
X103070767Y-119245914D01*
X102751765Y-118926355D01*
X102481052Y-118813944D01*
X102481197Y-118647225D01*
X102308767Y-118229914D01*
X101989765Y-117910355D01*
X101719052Y-117797944D01*
X101719197Y-117631225D01*
X101546767Y-117213914D01*
X101227765Y-116894355D01*
X100957052Y-116781944D01*
X100957197Y-116615225D01*
X100784767Y-116197914D01*
X100465765Y-115878355D01*
X100048756Y-115705197D01*
X99597225Y-115704803D01*
X99179914Y-115877233D01*
X98860355Y-116196235D01*
X98687197Y-116613244D01*
X98687039Y-116794093D01*
X93389566Y-122091566D01*
X93208561Y-122362459D01*
X93145000Y-122682000D01*
X93145000Y-129878973D01*
X92726670Y-129705267D01*
X92116009Y-129704735D01*
X91551629Y-129937932D01*
X91274896Y-130214182D01*
X91000643Y-129939449D01*
X90436670Y-129705267D01*
X89826009Y-129704735D01*
X89261629Y-129937932D01*
X89100000Y-130099279D01*
X89100000Y-117820868D01*
X89961827Y-116959041D01*
X90140775Y-116959197D01*
X90558086Y-116786767D01*
X90877645Y-116467765D01*
X91050803Y-116050756D01*
X91050961Y-115869907D01*
X92030434Y-114890434D01*
X92049945Y-114861233D01*
X92211439Y-114619541D01*
X92275000Y-114300000D01*
X92275000Y-110835868D01*
X97110434Y-106000434D01*
X97291439Y-105729541D01*
X97355000Y-105410000D01*
X97355000Y-101754058D01*
X97444943Y-101716894D01*
X97905278Y-101257363D01*
X98154716Y-100656648D01*
X98155284Y-100006205D01*
X97906894Y-99405057D01*
X97888869Y-99387000D01*
X99984132Y-99387000D01*
X101517566Y-100920434D01*
X101788460Y-101101440D01*
X102108000Y-101165000D01*
X105239146Y-101165000D01*
X105276838Y-101365317D01*
X105415910Y-101581441D01*
X105628110Y-101726431D01*
X105845000Y-101770352D01*
X105845000Y-104215917D01*
X105464176Y-104596077D01*
X105245250Y-105123309D01*
X105244752Y-105694187D01*
X105462757Y-106221800D01*
X105845000Y-106604710D01*
X105845000Y-109728000D01*
X105908561Y-110047541D01*
X105990693Y-110170460D01*
X106089566Y-110318434D01*
X107877000Y-112105868D01*
X107877000Y-114037811D01*
X107750355Y-114164235D01*
X107742946Y-114182078D01*
X107307041Y-113746173D01*
X107307197Y-113567225D01*
X107134767Y-113149914D01*
X106815765Y-112830355D01*
X106398756Y-112657197D01*
X105947225Y-112656803D01*
X105529914Y-112829233D01*
X105210355Y-113148235D01*
X105037197Y-113565244D01*
X105036803Y-114016775D01*
X105209233Y-114434086D01*
X105528235Y-114753645D01*
X105945244Y-114926803D01*
X106126093Y-114926961D01*
X108546998Y-117347866D01*
X108546998Y-139607998D01*
X108610559Y-139927539D01*
X108791564Y-140198432D01*
X111677566Y-143084434D01*
X111948459Y-143265439D01*
X112268000Y-143329000D01*
X119126000Y-143329000D01*
X119445541Y-143265439D01*
X119716434Y-143084434D01*
X121528434Y-141272434D01*
X121624581Y-141128540D01*
X121709439Y-141001541D01*
X121773000Y-140682000D01*
X121773000Y-139179738D01*
X121888371Y-139132068D01*
X122020421Y-139000249D01*
X122044890Y-139024718D01*
X122159447Y-138910161D01*
X122245852Y-139166643D01*
X122819336Y-139376458D01*
X123429460Y-139350839D01*
X123874148Y-139166643D01*
X123960553Y-138910161D01*
X124031951Y-138981559D01*
X123925182Y-139088141D01*
X123580393Y-139918486D01*
X123579609Y-140817570D01*
X123922948Y-141648515D01*
X124558141Y-142284818D01*
X125388486Y-142629607D01*
X126287570Y-142630391D01*
X127118515Y-142287052D01*
X127754818Y-141651859D01*
X128099607Y-140821514D01*
X128100391Y-139922430D01*
X127757052Y-139091485D01*
X127121859Y-138455182D01*
X126291514Y-138110393D01*
X125392430Y-138109609D01*
X124561485Y-138452948D01*
X124412000Y-138602172D01*
X124606458Y-138070664D01*
X124580839Y-137460540D01*
X124396643Y-137015852D01*
X124140159Y-136929446D01*
X123239605Y-137830000D01*
X123253748Y-137844143D01*
X123074143Y-138023748D01*
X123060000Y-138009605D01*
X123045858Y-138023748D01*
X122866253Y-137844143D01*
X122880395Y-137830000D01*
X122866253Y-137815858D01*
X123045858Y-137636253D01*
X123060000Y-137650395D01*
X123960554Y-136749841D01*
X123874148Y-136493357D01*
X123564949Y-136380233D01*
X123574733Y-136356670D01*
X123575265Y-135746009D01*
X123342068Y-135181629D01*
X122910643Y-134749449D01*
X122875000Y-134734649D01*
X122875000Y-132225644D01*
X123189357Y-132540551D01*
X123753330Y-132774733D01*
X124363991Y-132775265D01*
X124928371Y-132542068D01*
X125205104Y-132265818D01*
X125479357Y-132540551D01*
X126043330Y-132774733D01*
X126653991Y-132775265D01*
X127218371Y-132542068D01*
X127650551Y-132110643D01*
X127884733Y-131546670D01*
X127885265Y-130936009D01*
X127652068Y-130371629D01*
X127220643Y-129939449D01*
X126656670Y-129705267D01*
X126046009Y-129704735D01*
X125481629Y-129937932D01*
X125204896Y-130214182D01*
X124930643Y-129939449D01*
X124366670Y-129705267D01*
X123756009Y-129704735D01*
X123191629Y-129937932D01*
X122875000Y-130254008D01*
X122875000Y-122399868D01*
X124251827Y-121023041D01*
X124430775Y-121023197D01*
X124848086Y-120850767D01*
X125167645Y-120531765D01*
X125324104Y-120154972D01*
X128612998Y-123443866D01*
X128612998Y-135632018D01*
X128490643Y-135509449D01*
X127926670Y-135275267D01*
X127316009Y-135274735D01*
X126751629Y-135507932D01*
X126319449Y-135939357D01*
X126085267Y-136503330D01*
X126084735Y-137113991D01*
X126317932Y-137678371D01*
X126749357Y-138110551D01*
X127313330Y-138344733D01*
X127923991Y-138345265D01*
X128488371Y-138112068D01*
X128612998Y-137987659D01*
X128612998Y-139734998D01*
X128676559Y-140054539D01*
X128795784Y-140232971D01*
X128857564Y-140325432D01*
X131743566Y-143211434D01*
X132014459Y-143392439D01*
X132334000Y-143456000D01*
X139192000Y-143456000D01*
X139511541Y-143392439D01*
X139782434Y-143211434D01*
X141594434Y-141399434D01*
X141775439Y-141128541D01*
X141839000Y-140809000D01*
X141839000Y-139152468D01*
X141888371Y-139132068D01*
X142020421Y-139000249D01*
X142044890Y-139024718D01*
X142159447Y-138910161D01*
X142245852Y-139166643D01*
X142819336Y-139376458D01*
X143429460Y-139350839D01*
X143874148Y-139166643D01*
X143960553Y-138910161D01*
X144031951Y-138981559D01*
X143925182Y-139088141D01*
X143580393Y-139918486D01*
X143579609Y-140817570D01*
X143922948Y-141648515D01*
X144558141Y-142284818D01*
X145388486Y-142629607D01*
X146287570Y-142630391D01*
X147118515Y-142287052D01*
X147754818Y-141651859D01*
X148004731Y-141050000D01*
X151243173Y-141050000D01*
X151405690Y-141867029D01*
X151868500Y-142559673D01*
X152561144Y-143022483D01*
X153378173Y-143185000D01*
X153461827Y-143185000D01*
X154278856Y-143022483D01*
X154971500Y-142559673D01*
X155434310Y-141867029D01*
X155596827Y-141050000D01*
X155434310Y-140232971D01*
X154971500Y-139540327D01*
X154278856Y-139077517D01*
X153461827Y-138915000D01*
X153378173Y-138915000D01*
X152561144Y-139077517D01*
X151868500Y-139540327D01*
X151405690Y-140232971D01*
X151243173Y-141050000D01*
X148004731Y-141050000D01*
X148099607Y-140821514D01*
X148100391Y-139922430D01*
X147757052Y-139091485D01*
X147121859Y-138455182D01*
X146291514Y-138110393D01*
X145392430Y-138109609D01*
X144561485Y-138452948D01*
X144412000Y-138602172D01*
X144606458Y-138070664D01*
X144580839Y-137460540D01*
X144437294Y-137113991D01*
X146084735Y-137113991D01*
X146317932Y-137678371D01*
X146749357Y-138110551D01*
X147313330Y-138344733D01*
X147923991Y-138345265D01*
X148488371Y-138112068D01*
X148920551Y-137680643D01*
X149154733Y-137116670D01*
X149155265Y-136506009D01*
X148922068Y-135941629D01*
X148490643Y-135509449D01*
X147926670Y-135275267D01*
X147316009Y-135274735D01*
X146751629Y-135507932D01*
X146319449Y-135939357D01*
X146085267Y-136503330D01*
X146084735Y-137113991D01*
X144437294Y-137113991D01*
X144396643Y-137015852D01*
X144140159Y-136929446D01*
X143239605Y-137830000D01*
X143253748Y-137844143D01*
X143074143Y-138023748D01*
X143060000Y-138009605D01*
X143045858Y-138023748D01*
X142866253Y-137844143D01*
X142880395Y-137830000D01*
X142866253Y-137815858D01*
X143045858Y-137636253D01*
X143060000Y-137650395D01*
X143960554Y-136749841D01*
X143874148Y-136493357D01*
X143564949Y-136380233D01*
X143574733Y-136356670D01*
X143575265Y-135746009D01*
X143342068Y-135181629D01*
X142910643Y-134749449D01*
X142875000Y-134734649D01*
X142875000Y-132225644D01*
X143189357Y-132540551D01*
X143753330Y-132774733D01*
X144363991Y-132775265D01*
X144928371Y-132542068D01*
X145205104Y-132265818D01*
X145479357Y-132540551D01*
X146043330Y-132774733D01*
X146653991Y-132775265D01*
X147218371Y-132542068D01*
X147650551Y-132110643D01*
X147884733Y-131546670D01*
X147885265Y-130936009D01*
X147652068Y-130371629D01*
X147220643Y-129939449D01*
X146656670Y-129705267D01*
X146046009Y-129704735D01*
X145481629Y-129937932D01*
X145204896Y-130214182D01*
X144930643Y-129939449D01*
X144366670Y-129705267D01*
X143756009Y-129704735D01*
X143191629Y-129937932D01*
X142875000Y-130254008D01*
X142875000Y-120958000D01*
X142853670Y-120850767D01*
X142811440Y-120638460D01*
X142630435Y-120367566D01*
X142105041Y-119842172D01*
X142105197Y-119663225D01*
X141932767Y-119245914D01*
X141613765Y-118926355D01*
X141196756Y-118753197D01*
X140745225Y-118752803D01*
X140327914Y-118925233D01*
X140008355Y-119244235D01*
X140000946Y-119262078D01*
X139565041Y-118826173D01*
X139565197Y-118647225D01*
X139392767Y-118229914D01*
X139073765Y-117910355D01*
X138656756Y-117737197D01*
X138205225Y-117736803D01*
X137787914Y-117909233D01*
X137468355Y-118228235D01*
X137460946Y-118246078D01*
X137025041Y-117810173D01*
X137025197Y-117631225D01*
X136852767Y-117213914D01*
X136533765Y-116894355D01*
X136116756Y-116721197D01*
X135665225Y-116720803D01*
X135247914Y-116893233D01*
X134928355Y-117212235D01*
X134920946Y-117230078D01*
X134485041Y-116794173D01*
X134485197Y-116615225D01*
X134312767Y-116197914D01*
X134185000Y-116069924D01*
X134185000Y-113184058D01*
X134274943Y-113146894D01*
X134735278Y-112687363D01*
X134773630Y-112595000D01*
X148244132Y-112595000D01*
X148401193Y-112752061D01*
X148345907Y-113030000D01*
X148458946Y-113598285D01*
X148780853Y-114080054D01*
X149110026Y-114300000D01*
X148780853Y-114519946D01*
X148458946Y-115001715D01*
X148345907Y-115570000D01*
X148458946Y-116138285D01*
X148780853Y-116620054D01*
X149110026Y-116840000D01*
X148780853Y-117059946D01*
X148458946Y-117541715D01*
X148345907Y-118110000D01*
X148458946Y-118678285D01*
X148780853Y-119160054D01*
X149110026Y-119380000D01*
X148780853Y-119599946D01*
X148458946Y-120081715D01*
X148345907Y-120650000D01*
X148458946Y-121218285D01*
X148780853Y-121700054D01*
X149262622Y-122021961D01*
X149830907Y-122135000D01*
X149889093Y-122135000D01*
X150457378Y-122021961D01*
X150939147Y-121700054D01*
X150939971Y-121698821D01*
X150946838Y-121735317D01*
X151085910Y-121951441D01*
X151298110Y-122096431D01*
X151550000Y-122147440D01*
X153250000Y-122147440D01*
X153485317Y-122103162D01*
X153701441Y-121964090D01*
X153846431Y-121751890D01*
X153897440Y-121500000D01*
X153897440Y-119800000D01*
X153853162Y-119564683D01*
X153714090Y-119348559D01*
X153501890Y-119203569D01*
X153434459Y-119189914D01*
X153479147Y-119160054D01*
X153801054Y-118678285D01*
X153914093Y-118110000D01*
X153801054Y-117541715D01*
X153479147Y-117059946D01*
X153149974Y-116840000D01*
X153479147Y-116620054D01*
X153801054Y-116138285D01*
X153914093Y-115570000D01*
X153801054Y-115001715D01*
X153479147Y-114519946D01*
X153149974Y-114300000D01*
X153479147Y-114080054D01*
X153801054Y-113598285D01*
X153914093Y-113030000D01*
X153801054Y-112461715D01*
X153479147Y-111979946D01*
X152997378Y-111658039D01*
X152429093Y-111545000D01*
X152370907Y-111545000D01*
X151802622Y-111658039D01*
X151320853Y-111979946D01*
X151177159Y-112195000D01*
X151082841Y-112195000D01*
X150939147Y-111979946D01*
X150457378Y-111658039D01*
X149889093Y-111545000D01*
X149830907Y-111545000D01*
X149601500Y-111590632D01*
X149180434Y-111169566D01*
X148909541Y-110988561D01*
X148590000Y-110925000D01*
X134774058Y-110925000D01*
X134736894Y-110835057D01*
X134392241Y-110489801D01*
X134735278Y-110147363D01*
X134984716Y-109546648D01*
X134985284Y-108896205D01*
X134947093Y-108803775D01*
X137750434Y-106000434D01*
X137931440Y-105729540D01*
X137995000Y-105410000D01*
X137995000Y-101754058D01*
X138084943Y-101716894D01*
X138545278Y-101257363D01*
X138631382Y-101050000D01*
X151243173Y-101050000D01*
X151405690Y-101867029D01*
X151868500Y-102559673D01*
X152561144Y-103022483D01*
X153378173Y-103185000D01*
X153461827Y-103185000D01*
X154278856Y-103022483D01*
X154971500Y-102559673D01*
X155434310Y-101867029D01*
X155596827Y-101050000D01*
X155434310Y-100232971D01*
X154971500Y-99540327D01*
X154278856Y-99077517D01*
X153461827Y-98915000D01*
X153378173Y-98915000D01*
X152561144Y-99077517D01*
X151868500Y-99540327D01*
X151405690Y-100232971D01*
X151243173Y-101050000D01*
X138631382Y-101050000D01*
X138794716Y-100656648D01*
X138795284Y-100006205D01*
X138546894Y-99405057D01*
X138087363Y-98944722D01*
X137486648Y-98695284D01*
X136836205Y-98694716D01*
X136235057Y-98943106D01*
X135774722Y-99402637D01*
X135525284Y-100003352D01*
X135524716Y-100653795D01*
X135773106Y-101254943D01*
X136232637Y-101715278D01*
X136325000Y-101753630D01*
X136325000Y-105064132D01*
X133766527Y-107622605D01*
X133676648Y-107585284D01*
X133026205Y-107584716D01*
X132425057Y-107833106D01*
X132079801Y-108177759D01*
X131737363Y-107834722D01*
X131645000Y-107796370D01*
X131645000Y-101945868D01*
X131663473Y-101927395D01*
X131753352Y-101964716D01*
X132403795Y-101965284D01*
X133004943Y-101716894D01*
X133465278Y-101257363D01*
X133714716Y-100656648D01*
X133715284Y-100006205D01*
X133466894Y-99405057D01*
X133007363Y-98944722D01*
X132406648Y-98695284D01*
X131756205Y-98694716D01*
X131155057Y-98943106D01*
X130694722Y-99402637D01*
X130445284Y-100003352D01*
X130444716Y-100653795D01*
X130482907Y-100746225D01*
X130219566Y-101009566D01*
X130038561Y-101280459D01*
X129975000Y-101600000D01*
X129975000Y-107795942D01*
X129885057Y-107833106D01*
X129539801Y-108177759D01*
X129197363Y-107834722D01*
X129105000Y-107796370D01*
X129105000Y-101600000D01*
X129041439Y-101280459D01*
X128860434Y-101009566D01*
X128597395Y-100746527D01*
X128634716Y-100656648D01*
X128635284Y-100006205D01*
X128386894Y-99405057D01*
X127927363Y-98944722D01*
X127326648Y-98695284D01*
X126676205Y-98694716D01*
X126075057Y-98943106D01*
X125614722Y-99402637D01*
X125365284Y-100003352D01*
X125364716Y-100653795D01*
X125613106Y-101254943D01*
X126072637Y-101715278D01*
X126673352Y-101964716D01*
X127323795Y-101965284D01*
X127416225Y-101927093D01*
X127435000Y-101945868D01*
X127435000Y-107795942D01*
X127345057Y-107833106D01*
X126999801Y-108177759D01*
X126657363Y-107834722D01*
X126056648Y-107585284D01*
X125406205Y-107584716D01*
X125313775Y-107622907D01*
X122755000Y-105064132D01*
X122755000Y-101754058D01*
X122844943Y-101716894D01*
X123305278Y-101257363D01*
X123554716Y-100656648D01*
X123555284Y-100006205D01*
X123306894Y-99405057D01*
X122847363Y-98944722D01*
X122246648Y-98695284D01*
X121596205Y-98694716D01*
X120995057Y-98943106D01*
X120534722Y-99402637D01*
X120285284Y-100003352D01*
X120284716Y-100653795D01*
X120533106Y-101254943D01*
X120992637Y-101715278D01*
X121085000Y-101753630D01*
X121085000Y-105410000D01*
X121148561Y-105729541D01*
X121329566Y-106000434D01*
X124132605Y-108803473D01*
X124095284Y-108893352D01*
X124094716Y-109543795D01*
X124343106Y-110144943D01*
X124687759Y-110490199D01*
X124344722Y-110832637D01*
X124095284Y-111433352D01*
X124094716Y-112083795D01*
X124343106Y-112684943D01*
X124802637Y-113145278D01*
X124895000Y-113183630D01*
X124895000Y-114300000D01*
X124958561Y-114619541D01*
X125004845Y-114688810D01*
X124997225Y-114688803D01*
X124579914Y-114861233D01*
X124260355Y-115180235D01*
X124252946Y-115198078D01*
X123817041Y-114762173D01*
X123817197Y-114583225D01*
X123644767Y-114165914D01*
X123325765Y-113846355D01*
X122908756Y-113673197D01*
X122457225Y-113672803D01*
X122039914Y-113845233D01*
X121720355Y-114164235D01*
X121712946Y-114182078D01*
X121277041Y-113746173D01*
X121277197Y-113567225D01*
X121104767Y-113149914D01*
X120785765Y-112830355D01*
X120368756Y-112657197D01*
X119917225Y-112656803D01*
X119499914Y-112829233D01*
X119180355Y-113148235D01*
X119007197Y-113565244D01*
X119006803Y-114016775D01*
X119179233Y-114434086D01*
X119498235Y-114753645D01*
X119915244Y-114926803D01*
X120096093Y-114926961D01*
X121039801Y-115870669D01*
X121023914Y-115877233D01*
X120704355Y-116196235D01*
X120531197Y-116613244D01*
X120531039Y-116794093D01*
X116249566Y-121075566D01*
X116068561Y-121346459D01*
X116005000Y-121666000D01*
X116005000Y-130154181D01*
X115790643Y-129939449D01*
X115226670Y-129705267D01*
X114616009Y-129704735D01*
X114051629Y-129937932D01*
X113774896Y-130214182D01*
X113500643Y-129939449D01*
X112936670Y-129705267D01*
X112326009Y-129704735D01*
X111761629Y-129937932D01*
X111579000Y-130120242D01*
X111579000Y-117439868D01*
X112059827Y-116959041D01*
X112238775Y-116959197D01*
X112656086Y-116786767D01*
X112975645Y-116467765D01*
X113148803Y-116050756D01*
X113149197Y-115599225D01*
X112976767Y-115181914D01*
X112657765Y-114862355D01*
X112240756Y-114689197D01*
X111789225Y-114688803D01*
X111371914Y-114861233D01*
X111052355Y-115180235D01*
X110879197Y-115597244D01*
X110879039Y-115778093D01*
X110777535Y-115879597D01*
X110753439Y-115758459D01*
X110572434Y-115487566D01*
X109847041Y-114762173D01*
X109847197Y-114583225D01*
X109674767Y-114165914D01*
X109547000Y-114037924D01*
X109547000Y-111760000D01*
X109483439Y-111440459D01*
X109302434Y-111169566D01*
X107515000Y-109382132D01*
X107515000Y-106604083D01*
X107701663Y-106417745D01*
X108351861Y-106417745D01*
X108425995Y-106663864D01*
X108963223Y-106856965D01*
X109533454Y-106829778D01*
X109934005Y-106663864D01*
X110008139Y-106417745D01*
X109180000Y-105589605D01*
X108351861Y-106417745D01*
X107701663Y-106417745D01*
X107895824Y-106223923D01*
X107923423Y-106157456D01*
X107926136Y-106164005D01*
X108172255Y-106238139D01*
X109000395Y-105410000D01*
X109359605Y-105410000D01*
X110187745Y-106238139D01*
X110433864Y-106164005D01*
X110626965Y-105626777D01*
X110599778Y-105056546D01*
X110433864Y-104655995D01*
X110187745Y-104581861D01*
X109359605Y-105410000D01*
X109000395Y-105410000D01*
X108172255Y-104581861D01*
X107926136Y-104655995D01*
X107923804Y-104662483D01*
X107897243Y-104598200D01*
X107701640Y-104402255D01*
X108351861Y-104402255D01*
X109180000Y-105230395D01*
X110008139Y-104402255D01*
X109934005Y-104156136D01*
X109396777Y-103963035D01*
X108826546Y-103990222D01*
X108425995Y-104156136D01*
X108351861Y-104402255D01*
X107701640Y-104402255D01*
X107515000Y-104215290D01*
X107515000Y-101770854D01*
X107715317Y-101733162D01*
X107931441Y-101594090D01*
X108076431Y-101381890D01*
X108085370Y-101337745D01*
X108351861Y-101337745D01*
X108425995Y-101583864D01*
X108963223Y-101776965D01*
X109533454Y-101749778D01*
X109934005Y-101583864D01*
X110008139Y-101337745D01*
X109180000Y-100509605D01*
X108351861Y-101337745D01*
X108085370Y-101337745D01*
X108124646Y-101143799D01*
X108172255Y-101158139D01*
X109000395Y-100330000D01*
X109359605Y-100330000D01*
X110187745Y-101158139D01*
X110433864Y-101084005D01*
X110626965Y-100546777D01*
X110599778Y-99976546D01*
X110433864Y-99575995D01*
X110187745Y-99501861D01*
X109359605Y-100330000D01*
X109000395Y-100330000D01*
X108172255Y-99501861D01*
X108124833Y-99516145D01*
X108088351Y-99322255D01*
X108351861Y-99322255D01*
X109180000Y-100150395D01*
X110008139Y-99322255D01*
X109934005Y-99076136D01*
X109396777Y-98883035D01*
X108826546Y-98910222D01*
X108425995Y-99076136D01*
X108351861Y-99322255D01*
X108088351Y-99322255D01*
X108083162Y-99294683D01*
X107944090Y-99078559D01*
X107731890Y-98933569D01*
X107480000Y-98882560D01*
X105880000Y-98882560D01*
X105644683Y-98926838D01*
X105428559Y-99065910D01*
X105283569Y-99278110D01*
X105239648Y-99495000D01*
X102453868Y-99495000D01*
X100920434Y-97961566D01*
X100649541Y-97780561D01*
X100330000Y-97717000D01*
X93218000Y-97717000D01*
X92898460Y-97780560D01*
X92627566Y-97961566D01*
X91856527Y-98732605D01*
X91766648Y-98695284D01*
X91116205Y-98694716D01*
X90515057Y-98943106D01*
X90054722Y-99402637D01*
X89805284Y-100003352D01*
X89804716Y-100653795D01*
X90053106Y-101254943D01*
X90512637Y-101715278D01*
X90605000Y-101753630D01*
X90605000Y-102524132D01*
X89824132Y-103305000D01*
X79085868Y-103305000D01*
X77263400Y-101482532D01*
X80307073Y-101482532D01*
X80405736Y-101749387D01*
X81015461Y-101975908D01*
X81665460Y-101951856D01*
X82154264Y-101749387D01*
X82252927Y-101482532D01*
X81280000Y-100509605D01*
X80307073Y-101482532D01*
X77263400Y-101482532D01*
X76364779Y-100583911D01*
X76365230Y-100065461D01*
X79634092Y-100065461D01*
X79658144Y-100715460D01*
X79860613Y-101204264D01*
X80127468Y-101302927D01*
X81100395Y-100330000D01*
X81459605Y-100330000D01*
X82432532Y-101302927D01*
X82699387Y-101204264D01*
X82903893Y-100653795D01*
X84724716Y-100653795D01*
X84973106Y-101254943D01*
X85432637Y-101715278D01*
X86033352Y-101964716D01*
X86683795Y-101965284D01*
X87284943Y-101716894D01*
X87745278Y-101257363D01*
X87994716Y-100656648D01*
X87995284Y-100006205D01*
X87746894Y-99405057D01*
X87287363Y-98944722D01*
X86686648Y-98695284D01*
X86036205Y-98694716D01*
X85435057Y-98943106D01*
X84974722Y-99402637D01*
X84725284Y-100003352D01*
X84724716Y-100653795D01*
X82903893Y-100653795D01*
X82925908Y-100594539D01*
X82901856Y-99944540D01*
X82699387Y-99455736D01*
X82432532Y-99357073D01*
X81459605Y-100330000D01*
X81100395Y-100330000D01*
X80127468Y-99357073D01*
X79860613Y-99455736D01*
X79634092Y-100065461D01*
X76365230Y-100065461D01*
X76365248Y-100045813D01*
X76147243Y-99518200D01*
X75807105Y-99177468D01*
X80307073Y-99177468D01*
X81280000Y-100150395D01*
X82252927Y-99177468D01*
X82154264Y-98910613D01*
X81544539Y-98684092D01*
X80894540Y-98708144D01*
X80405736Y-98910613D01*
X80307073Y-99177468D01*
X75807105Y-99177468D01*
X75743923Y-99114176D01*
X75216691Y-98895250D01*
X74645813Y-98894752D01*
X74118200Y-99112757D01*
X73735290Y-99495000D01*
X73584083Y-99495000D01*
X73203923Y-99114176D01*
X72676691Y-98895250D01*
X72105813Y-98894752D01*
X71578200Y-99112757D01*
X71174176Y-99516077D01*
X70955250Y-100043309D01*
X70954752Y-100614187D01*
X71172757Y-101141800D01*
X71576077Y-101545824D01*
X72103309Y-101764750D01*
X72674187Y-101765248D01*
X73201800Y-101547243D01*
X73584710Y-101165000D01*
X73735917Y-101165000D01*
X74116077Y-101545824D01*
X74643309Y-101764750D01*
X75184354Y-101765222D01*
X78149566Y-104730434D01*
X78420460Y-104911440D01*
X78740000Y-104975000D01*
X90170000Y-104975000D01*
X90489541Y-104911439D01*
X90760434Y-104730434D01*
X92030434Y-103460434D01*
X92211439Y-103189541D01*
X92275000Y-102870000D01*
X92275000Y-101754058D01*
X92364943Y-101716894D01*
X92825278Y-101257363D01*
X93074716Y-100656648D01*
X93075284Y-100006205D01*
X93037093Y-99913775D01*
X93563868Y-99387000D01*
X95150386Y-99387000D01*
X95134722Y-99402637D01*
X94885284Y-100003352D01*
X94884716Y-100653795D01*
X95133106Y-101254943D01*
X95592637Y-101715278D01*
X95685000Y-101753630D01*
X95685000Y-105064132D01*
X91094132Y-109655000D01*
X76083553Y-109655000D01*
X75944698Y-109447189D01*
X75479151Y-109136120D01*
X74930000Y-109026887D01*
X74380849Y-109136120D01*
X73915302Y-109447189D01*
X73660000Y-109829275D01*
X73404698Y-109447189D01*
X72939151Y-109136120D01*
X72390000Y-109026887D01*
X71840849Y-109136120D01*
X71375302Y-109447189D01*
X71064233Y-109912736D01*
X70955000Y-110461887D01*
X70955000Y-110518113D01*
X71064233Y-111067264D01*
X71375302Y-111532811D01*
X71555000Y-111652882D01*
X71555000Y-113030000D01*
X71618561Y-113349541D01*
X71762689Y-113565244D01*
X71799566Y-113620434D01*
X72914132Y-114735000D01*
X67262841Y-114735000D01*
X67119147Y-114519946D01*
X66778447Y-114292298D01*
X66921358Y-114225183D01*
X67311645Y-113796924D01*
X67481476Y-113386890D01*
X67360155Y-113157000D01*
X66167000Y-113157000D01*
X66167000Y-113177000D01*
X65913000Y-113177000D01*
X65913000Y-113157000D01*
X63627000Y-113157000D01*
X63627000Y-113177000D01*
X63373000Y-113177000D01*
X63373000Y-113157000D01*
X62173750Y-113157000D01*
X62015000Y-113315750D01*
X62015000Y-114006310D01*
X62111673Y-114239699D01*
X62290302Y-114418327D01*
X62464777Y-114490597D01*
X62420853Y-114519946D01*
X62098946Y-115001715D01*
X61985907Y-115570000D01*
X58547000Y-115570000D01*
X58547000Y-112053690D01*
X62015000Y-112053690D01*
X62015000Y-112744250D01*
X62173750Y-112903000D01*
X63373000Y-112903000D01*
X63373000Y-111703750D01*
X63627000Y-111703750D01*
X63627000Y-112903000D01*
X65913000Y-112903000D01*
X65913000Y-111709181D01*
X66167000Y-111709181D01*
X66167000Y-112903000D01*
X67360155Y-112903000D01*
X67481476Y-112673110D01*
X67311645Y-112263076D01*
X66921358Y-111834817D01*
X66396892Y-111588514D01*
X66167000Y-111709181D01*
X65913000Y-111709181D01*
X65683108Y-111588514D01*
X65158642Y-111834817D01*
X64976930Y-112034208D01*
X64888327Y-111820301D01*
X64709698Y-111641673D01*
X64476309Y-111545000D01*
X63785750Y-111545000D01*
X63627000Y-111703750D01*
X63373000Y-111703750D01*
X63214250Y-111545000D01*
X62523691Y-111545000D01*
X62290302Y-111641673D01*
X62111673Y-111820301D01*
X62015000Y-112053690D01*
X58547000Y-112053690D01*
X58547000Y-101050000D01*
X61243173Y-101050000D01*
X61405690Y-101867029D01*
X61868500Y-102559673D01*
X62561144Y-103022483D01*
X63378173Y-103185000D01*
X63461827Y-103185000D01*
X64278856Y-103022483D01*
X64971500Y-102559673D01*
X65434310Y-101867029D01*
X65596827Y-101050000D01*
X65434310Y-100232971D01*
X64971500Y-99540327D01*
X64278856Y-99077517D01*
X63461827Y-98915000D01*
X63378173Y-98915000D01*
X62561144Y-99077517D01*
X61868500Y-99540327D01*
X61405690Y-100232971D01*
X61243173Y-101050000D01*
X58547000Y-101050000D01*
X58547000Y-96177000D01*
X158293000Y-96177000D01*
X158293000Y-145923000D01*
M02*
