M48
;DRILL file {KiCad 4.0.6} date 01/22/18 09:57:12
;FORMAT={3:3/ absolute / metric / suppress leading zeros}
FMAT,2
METRIC,TZ
T1C0.600
T2C0.800
T3C0.900
T4C1.000
T5C1.800
T6C3.000
T7C3.250
%
G90
G05
M71
T1
X80026Y-64792
X80026Y-114792
X80788Y-65808
X80788Y-115808
X81550Y-66824
X81550Y-116824
X82312Y-64792
X82312Y-114792
X82566Y-67840
X82566Y-117840
X83328Y-68856
X83328Y-118856
X84090Y-69872
X84090Y-119872
X84852Y-70888
X84852Y-120888
X85360Y-65808
X85360Y-115808
X88916Y-66824
X88916Y-116824
X98822Y-67840
X98822Y-117840
X99584Y-68856
X99584Y-118856
X100346Y-69872
X100346Y-119872
X101108Y-70888
X101108Y-120888
X105172Y-64792
X105172Y-114792
X107712Y-65808
X107712Y-115808
X111014Y-66824
X111014Y-116824
X119142Y-64792
X119142Y-114792
X120666Y-67840
X120666Y-117840
X121682Y-65808
X121682Y-68856
X121682Y-115808
X121682Y-118856
X122444Y-69872
X122444Y-119872
X123206Y-70888
X123206Y-120888
X124222Y-66824
X124222Y-116824
X130318Y-70888
X130318Y-120888
X131588Y-69872
X131588Y-119872
X132350Y-67840
X132350Y-117840
X134890Y-68856
X134890Y-118856
X137430Y-69872
X137430Y-119872
X139970Y-70888
X139970Y-120888
T2
X71390Y-51330
X71390Y-61490
X71390Y-101330
X71390Y-111490
X73930Y-51330
X73930Y-61490
X73930Y-101330
X73930Y-111490
X105680Y-51330
X105680Y-56410
X105680Y-101330
X105680Y-106410
X108180Y-51330
X108180Y-56410
X108180Y-101330
X108180Y-106410
T3
X69130Y-82240
X69130Y-132240
X71420Y-82240
X71420Y-132240
X72420Y-87050
X72420Y-137050
X73440Y-88830
X73440Y-138830
X74460Y-87050
X74460Y-137050
X75480Y-88830
X75480Y-138830
X76500Y-87050
X76500Y-137050
X77520Y-88830
X77520Y-138830
X78540Y-87050
X78540Y-137050
X79560Y-88830
X79560Y-138830
X80560Y-82240
X80560Y-132240
X82850Y-82240
X82850Y-132240
X89130Y-82240
X89130Y-132240
X91420Y-82240
X91420Y-132240
X92420Y-87050
X92420Y-137050
X93440Y-88830
X93440Y-138830
X94460Y-87050
X94460Y-137050
X95480Y-88830
X95480Y-138830
X96500Y-87050
X96500Y-137050
X97520Y-88830
X97520Y-138830
X98540Y-87050
X98540Y-137050
X99560Y-88830
X99560Y-138830
X100560Y-82240
X100560Y-132240
X102850Y-82240
X102850Y-132240
X111630Y-82240
X111630Y-132240
X113920Y-82240
X113920Y-132240
X114920Y-87050
X114920Y-137050
X115940Y-88830
X115940Y-138830
X116960Y-87050
X116960Y-137050
X117980Y-88830
X117980Y-138830
X119000Y-87050
X119000Y-137050
X120020Y-88830
X120020Y-138830
X121040Y-87050
X121040Y-137050
X122060Y-88830
X122060Y-138830
X123060Y-82240
X123060Y-132240
X125350Y-82240
X125350Y-132240
X131630Y-82240
X131630Y-132240
X133920Y-82240
X133920Y-132240
X134920Y-87050
X134920Y-137050
X135940Y-88830
X135940Y-138830
X136960Y-87050
X136960Y-137050
X137980Y-88830
X137980Y-138830
X139000Y-87050
X139000Y-137050
X140020Y-88830
X140020Y-138830
X141040Y-87050
X141040Y-137050
X142060Y-88830
X142060Y-138830
X143060Y-82240
X143060Y-132240
X145350Y-82240
X145350Y-132240
T4
X62500Y-64030
X62500Y-66570
X62500Y-69110
X62500Y-71650
X62500Y-114030
X62500Y-116570
X62500Y-119110
X62500Y-121650
X65040Y-64030
X65040Y-66570
X65040Y-69110
X65040Y-71650
X65040Y-114030
X65040Y-116570
X65040Y-119110
X65040Y-121650
X80280Y-51330
X80280Y-101330
X85360Y-51330
X85360Y-101330
X90440Y-51330
X90440Y-101330
X95520Y-51330
X95520Y-101330
X120920Y-51330
X120920Y-101330
X124730Y-60220
X124730Y-62760
X124730Y-110220
X124730Y-112760
X126000Y-51330
X126000Y-101330
X127270Y-60220
X127270Y-62760
X127270Y-110220
X127270Y-112760
X129810Y-60220
X129810Y-62760
X129810Y-110220
X129810Y-112760
X131080Y-51330
X131080Y-101330
X132350Y-60220
X132350Y-62760
X132350Y-110220
X132350Y-112760
X136160Y-51330
X136160Y-101330
X148860Y-64030
X148860Y-66570
X148860Y-69110
X148860Y-71650
X148860Y-114030
X148860Y-116570
X148860Y-119110
X148860Y-121650
X151400Y-64030
X151400Y-66570
X151400Y-69110
X151400Y-71650
X151400Y-114030
X151400Y-116570
X151400Y-119110
X151400Y-121650
T5
X67860Y-87810
X67860Y-137810
X84120Y-87810
X84120Y-137810
X87860Y-87810
X87860Y-137810
X104120Y-87810
X104120Y-137810
X110360Y-87810
X110360Y-137810
X126620Y-87810
X126620Y-137810
X130360Y-87810
X130360Y-137810
X146620Y-87810
X146620Y-137810
T6
X62420Y-52050
X62420Y-92050
X62420Y-102050
X62420Y-142050
X152420Y-52050
X152420Y-92050
X152420Y-102050
X152420Y-142050
T7
X69640Y-91370
X69640Y-141370
X82340Y-91370
X82340Y-141370
X89640Y-91370
X89640Y-141370
X102340Y-91370
X102340Y-141370
X112140Y-91370
X112140Y-141370
X124840Y-91370
X124840Y-141370
X132140Y-91370
X132140Y-141370
X144840Y-91370
X144840Y-141370
T0
M30
