G04 #@! TF.FileFunction,Legend,Top*
%FSLAX46Y46*%
G04 Gerber Fmt 4.6, Leading zero omitted, Abs format (unit mm)*
G04 Created by KiCad (PCBNEW 4.0.6) date 02/07/18 20:23:48*
%MOMM*%
%LPD*%
G01*
G04 APERTURE LIST*
%ADD10C,0.100000*%
%ADD11C,0.150000*%
%ADD12C,0.200000*%
%ADD13C,0.300000*%
%ADD14C,0.120000*%
G04 APERTURE END LIST*
D10*
D11*
X155249619Y-121982858D02*
X155202000Y-121935239D01*
X155154381Y-121840001D01*
X155154381Y-121601905D01*
X155202000Y-121506667D01*
X155249619Y-121459048D01*
X155344857Y-121411429D01*
X155440095Y-121411429D01*
X155582952Y-121459048D01*
X156154381Y-122030477D01*
X156154381Y-121411429D01*
X155487714Y-118268571D02*
X156154381Y-118268571D01*
X155106762Y-118506667D02*
X155821048Y-118744762D01*
X155821048Y-118125714D01*
X155154381Y-115030475D02*
X155154381Y-115220952D01*
X155202000Y-115316190D01*
X155249619Y-115363809D01*
X155392476Y-115459047D01*
X155582952Y-115506666D01*
X155963905Y-115506666D01*
X156059143Y-115459047D01*
X156106762Y-115411428D01*
X156154381Y-115316190D01*
X156154381Y-115125713D01*
X156106762Y-115030475D01*
X156059143Y-114982856D01*
X155963905Y-114935237D01*
X155725810Y-114935237D01*
X155630571Y-114982856D01*
X155582952Y-115030475D01*
X155535333Y-115125713D01*
X155535333Y-115316190D01*
X155582952Y-115411428D01*
X155630571Y-115459047D01*
X155725810Y-115506666D01*
X155582952Y-112078094D02*
X155535333Y-112173332D01*
X155487714Y-112220951D01*
X155392476Y-112268570D01*
X155344857Y-112268570D01*
X155249619Y-112220951D01*
X155202000Y-112173332D01*
X155154381Y-112078094D01*
X155154381Y-111887617D01*
X155202000Y-111792379D01*
X155249619Y-111744760D01*
X155344857Y-111697141D01*
X155392476Y-111697141D01*
X155487714Y-111744760D01*
X155535333Y-111792379D01*
X155582952Y-111887617D01*
X155582952Y-112078094D01*
X155630571Y-112173332D01*
X155678190Y-112220951D01*
X155773429Y-112268570D01*
X155963905Y-112268570D01*
X156059143Y-112220951D01*
X156106762Y-112173332D01*
X156154381Y-112078094D01*
X156154381Y-111887617D01*
X156106762Y-111792379D01*
X156059143Y-111744760D01*
X155963905Y-111697141D01*
X155773429Y-111697141D01*
X155678190Y-111744760D01*
X155630571Y-111792379D01*
X155582952Y-111887617D01*
X61460000Y-112244761D02*
X61507619Y-112149523D01*
X61507619Y-112006666D01*
X61460000Y-111863808D01*
X61364762Y-111768570D01*
X61269524Y-111720951D01*
X61079048Y-111673332D01*
X60936190Y-111673332D01*
X60745714Y-111720951D01*
X60650476Y-111768570D01*
X60555238Y-111863808D01*
X60507619Y-112006666D01*
X60507619Y-112101904D01*
X60555238Y-112244761D01*
X60602857Y-112292380D01*
X60936190Y-112292380D01*
X60936190Y-112101904D01*
X61507619Y-114863809D02*
X60507619Y-115197142D01*
X61507619Y-115530476D01*
X60602857Y-118720953D02*
X60555238Y-118673334D01*
X60507619Y-118530477D01*
X60507619Y-118435239D01*
X60555238Y-118292381D01*
X60650476Y-118197143D01*
X60745714Y-118149524D01*
X60936190Y-118101905D01*
X61079048Y-118101905D01*
X61269524Y-118149524D01*
X61364762Y-118197143D01*
X61460000Y-118292381D01*
X61507619Y-118435239D01*
X61507619Y-118530477D01*
X61460000Y-118673334D01*
X61412381Y-118720953D01*
X60507619Y-121435239D02*
X61507619Y-121435239D01*
X61507619Y-121673334D01*
X61460000Y-121816192D01*
X61364762Y-121911430D01*
X61269524Y-121959049D01*
X61079048Y-122006668D01*
X60936190Y-122006668D01*
X60745714Y-121959049D01*
X60650476Y-121911430D01*
X60555238Y-121816192D01*
X60507619Y-121673334D01*
X60507619Y-121435239D01*
D12*
X121825716Y-106001429D02*
X121897145Y-105930000D01*
X122040002Y-105858571D01*
X122397145Y-105858571D01*
X122540002Y-105930000D01*
X122611431Y-106001429D01*
X122682859Y-106144286D01*
X122682859Y-106287143D01*
X122611431Y-106501429D01*
X121754288Y-107358571D01*
X122682859Y-107358571D01*
X127397144Y-106358571D02*
X127397144Y-107358571D01*
X127040001Y-105787143D02*
X126682858Y-106858571D01*
X127611430Y-106858571D01*
X132254286Y-105858571D02*
X131968572Y-105858571D01*
X131825715Y-105930000D01*
X131754286Y-106001429D01*
X131611429Y-106215714D01*
X131540000Y-106501429D01*
X131540000Y-107072857D01*
X131611429Y-107215714D01*
X131682857Y-107287143D01*
X131825715Y-107358571D01*
X132111429Y-107358571D01*
X132254286Y-107287143D01*
X132325715Y-107215714D01*
X132397143Y-107072857D01*
X132397143Y-106715714D01*
X132325715Y-106572857D01*
X132254286Y-106501429D01*
X132111429Y-106430000D01*
X131825715Y-106430000D01*
X131682857Y-106501429D01*
X131611429Y-106572857D01*
X131540000Y-106715714D01*
X136682857Y-106501429D02*
X136539999Y-106430000D01*
X136468571Y-106358571D01*
X136397142Y-106215714D01*
X136397142Y-106144286D01*
X136468571Y-106001429D01*
X136539999Y-105930000D01*
X136682857Y-105858571D01*
X136968571Y-105858571D01*
X137111428Y-105930000D01*
X137182857Y-106001429D01*
X137254285Y-106144286D01*
X137254285Y-106215714D01*
X137182857Y-106358571D01*
X137111428Y-106430000D01*
X136968571Y-106501429D01*
X136682857Y-106501429D01*
X136539999Y-106572857D01*
X136468571Y-106644286D01*
X136397142Y-106787143D01*
X136397142Y-107072857D01*
X136468571Y-107215714D01*
X136539999Y-107287143D01*
X136682857Y-107358571D01*
X136968571Y-107358571D01*
X137111428Y-107287143D01*
X137182857Y-107215714D01*
X137254285Y-107072857D01*
X137254285Y-106787143D01*
X137182857Y-106644286D01*
X137111428Y-106572857D01*
X136968571Y-106501429D01*
D13*
X79721429Y-106438000D02*
X79578572Y-106366571D01*
X79364286Y-106366571D01*
X79150001Y-106438000D01*
X79007143Y-106580857D01*
X78935715Y-106723714D01*
X78864286Y-107009429D01*
X78864286Y-107223714D01*
X78935715Y-107509429D01*
X79007143Y-107652286D01*
X79150001Y-107795143D01*
X79364286Y-107866571D01*
X79507143Y-107866571D01*
X79721429Y-107795143D01*
X79792858Y-107723714D01*
X79792858Y-107223714D01*
X79507143Y-107223714D01*
X80435715Y-107866571D02*
X80435715Y-106366571D01*
X81292858Y-107866571D01*
X81292858Y-106366571D01*
X82007144Y-107866571D02*
X82007144Y-106366571D01*
X82364287Y-106366571D01*
X82578572Y-106438000D01*
X82721430Y-106580857D01*
X82792858Y-106723714D01*
X82864287Y-107009429D01*
X82864287Y-107223714D01*
X82792858Y-107509429D01*
X82721430Y-107652286D01*
X82578572Y-107795143D01*
X82364287Y-107866571D01*
X82007144Y-107866571D01*
X84578572Y-107795143D02*
X84792858Y-107866571D01*
X85150001Y-107866571D01*
X85292858Y-107795143D01*
X85364287Y-107723714D01*
X85435715Y-107580857D01*
X85435715Y-107438000D01*
X85364287Y-107295143D01*
X85292858Y-107223714D01*
X85150001Y-107152286D01*
X84864287Y-107080857D01*
X84721429Y-107009429D01*
X84650001Y-106938000D01*
X84578572Y-106795143D01*
X84578572Y-106652286D01*
X84650001Y-106509429D01*
X84721429Y-106438000D01*
X84864287Y-106366571D01*
X85221429Y-106366571D01*
X85435715Y-106438000D01*
X86935715Y-107723714D02*
X86864286Y-107795143D01*
X86650000Y-107866571D01*
X86507143Y-107866571D01*
X86292858Y-107795143D01*
X86150000Y-107652286D01*
X86078572Y-107509429D01*
X86007143Y-107223714D01*
X86007143Y-107009429D01*
X86078572Y-106723714D01*
X86150000Y-106580857D01*
X86292858Y-106438000D01*
X86507143Y-106366571D01*
X86650000Y-106366571D01*
X86864286Y-106438000D01*
X86935715Y-106509429D01*
X88292858Y-107866571D02*
X87578572Y-107866571D01*
X87578572Y-106366571D01*
X89721429Y-106366571D02*
X90221429Y-107866571D01*
X90721429Y-106366571D01*
X92078572Y-107723714D02*
X92007143Y-107795143D01*
X91792857Y-107866571D01*
X91650000Y-107866571D01*
X91435715Y-107795143D01*
X91292857Y-107652286D01*
X91221429Y-107509429D01*
X91150000Y-107223714D01*
X91150000Y-107009429D01*
X91221429Y-106723714D01*
X91292857Y-106580857D01*
X91435715Y-106438000D01*
X91650000Y-106366571D01*
X91792857Y-106366571D01*
X92007143Y-106438000D01*
X92078572Y-106509429D01*
X93578572Y-107723714D02*
X93507143Y-107795143D01*
X93292857Y-107866571D01*
X93150000Y-107866571D01*
X92935715Y-107795143D01*
X92792857Y-107652286D01*
X92721429Y-107509429D01*
X92650000Y-107223714D01*
X92650000Y-107009429D01*
X92721429Y-106723714D01*
X92792857Y-106580857D01*
X92935715Y-106438000D01*
X93150000Y-106366571D01*
X93292857Y-106366571D01*
X93507143Y-106438000D01*
X93578572Y-106509429D01*
X95292857Y-107795143D02*
X95507143Y-107866571D01*
X95864286Y-107866571D01*
X96007143Y-107795143D01*
X96078572Y-107723714D01*
X96150000Y-107580857D01*
X96150000Y-107438000D01*
X96078572Y-107295143D01*
X96007143Y-107223714D01*
X95864286Y-107152286D01*
X95578572Y-107080857D01*
X95435714Y-107009429D01*
X95364286Y-106938000D01*
X95292857Y-106795143D01*
X95292857Y-106652286D01*
X95364286Y-106509429D01*
X95435714Y-106438000D01*
X95578572Y-106366571D01*
X95935714Y-106366571D01*
X96150000Y-106438000D01*
X96792857Y-107866571D02*
X96792857Y-106366571D01*
X97150000Y-106366571D01*
X97364285Y-106438000D01*
X97507143Y-106580857D01*
X97578571Y-106723714D01*
X97650000Y-107009429D01*
X97650000Y-107223714D01*
X97578571Y-107509429D01*
X97507143Y-107652286D01*
X97364285Y-107795143D01*
X97150000Y-107866571D01*
X96792857Y-107866571D01*
X98221428Y-107438000D02*
X98935714Y-107438000D01*
X98078571Y-107866571D02*
X98578571Y-106366571D01*
X99078571Y-107866571D01*
D11*
X70626000Y-145956000D02*
X70626000Y-143670000D01*
X70626000Y-143670000D02*
X71388000Y-143670000D01*
X71388000Y-143670000D02*
X83580000Y-143670000D01*
X83580000Y-143670000D02*
X83580000Y-145956000D01*
X68848000Y-145956000D02*
X85358000Y-145956000D01*
X85358000Y-145956000D02*
X85358000Y-129700000D01*
X85358000Y-129700000D02*
X68848000Y-129700000D01*
X68848000Y-129700000D02*
X68848000Y-145956000D01*
X90626000Y-145956000D02*
X90626000Y-143670000D01*
X90626000Y-143670000D02*
X91388000Y-143670000D01*
X91388000Y-143670000D02*
X103580000Y-143670000D01*
X103580000Y-143670000D02*
X103580000Y-145956000D01*
X88848000Y-145956000D02*
X105358000Y-145956000D01*
X105358000Y-145956000D02*
X105358000Y-129700000D01*
X105358000Y-129700000D02*
X88848000Y-129700000D01*
X88848000Y-129700000D02*
X88848000Y-145956000D01*
X113126000Y-145956000D02*
X113126000Y-143670000D01*
X113126000Y-143670000D02*
X113888000Y-143670000D01*
X113888000Y-143670000D02*
X126080000Y-143670000D01*
X126080000Y-143670000D02*
X126080000Y-145956000D01*
X111348000Y-145956000D02*
X127858000Y-145956000D01*
X127858000Y-145956000D02*
X127858000Y-129700000D01*
X127858000Y-129700000D02*
X111348000Y-129700000D01*
X111348000Y-129700000D02*
X111348000Y-145956000D01*
X133126000Y-145956000D02*
X133126000Y-143670000D01*
X133126000Y-143670000D02*
X133888000Y-143670000D01*
X133888000Y-143670000D02*
X146080000Y-143670000D01*
X146080000Y-143670000D02*
X146080000Y-145956000D01*
X131348000Y-145956000D02*
X147858000Y-145956000D01*
X147858000Y-145956000D02*
X147858000Y-129700000D01*
X147858000Y-129700000D02*
X131348000Y-129700000D01*
X131348000Y-129700000D02*
X131348000Y-145956000D01*
D14*
X127000000Y-113090000D02*
X134680000Y-113090000D01*
X134680000Y-113090000D02*
X134680000Y-107890000D01*
X134680000Y-107890000D02*
X124400000Y-107890000D01*
X124400000Y-107890000D02*
X124400000Y-110490000D01*
X124400000Y-110490000D02*
X127000000Y-110490000D01*
X127000000Y-110490000D02*
X127000000Y-113090000D01*
X125730000Y-113090000D02*
X124400000Y-113090000D01*
X124400000Y-113090000D02*
X124400000Y-111760000D01*
X73700000Y-102200000D02*
X71080000Y-102200000D01*
X71080000Y-102200000D02*
X71080000Y-108620000D01*
X71080000Y-108620000D02*
X73700000Y-108620000D01*
X73700000Y-108620000D02*
X73700000Y-102200000D01*
X72390000Y-101310000D02*
X72390000Y-102200000D01*
X72390000Y-109510000D02*
X72390000Y-108620000D01*
X76240000Y-102200000D02*
X73620000Y-102200000D01*
X73620000Y-102200000D02*
X73620000Y-108620000D01*
X73620000Y-108620000D02*
X76240000Y-108620000D01*
X76240000Y-108620000D02*
X76240000Y-102200000D01*
X74930000Y-101310000D02*
X74930000Y-102200000D01*
X74930000Y-109510000D02*
X74930000Y-108620000D01*
D11*
X86360000Y-101600000D02*
X86360000Y-104140000D01*
X85090000Y-102870000D02*
X87630000Y-102870000D01*
X81280000Y-101600000D02*
X81280000Y-104140000D01*
X80010000Y-102870000D02*
X82550000Y-102870000D01*
X87630000Y-102870000D02*
G75*
G03X87630000Y-102870000I-1270000J0D01*
G01*
X82550000Y-102870000D02*
G75*
G03X82550000Y-102870000I-1270000J0D01*
G01*
X78740000Y-97790000D02*
X88900000Y-97790000D01*
X78740000Y-100330000D02*
X78740000Y-96520000D01*
X78740000Y-96520000D02*
X88900000Y-96520000D01*
X88900000Y-96520000D02*
X88900000Y-105410000D01*
X88900000Y-105410000D02*
X78740000Y-105410000D01*
X78740000Y-105410000D02*
X78740000Y-100330000D01*
X96520000Y-101600000D02*
X96520000Y-104140000D01*
X95250000Y-102870000D02*
X97790000Y-102870000D01*
X91440000Y-101600000D02*
X91440000Y-104140000D01*
X90170000Y-102870000D02*
X92710000Y-102870000D01*
X97790000Y-102870000D02*
G75*
G03X97790000Y-102870000I-1270000J0D01*
G01*
X92710000Y-102870000D02*
G75*
G03X92710000Y-102870000I-1270000J0D01*
G01*
X88900000Y-97790000D02*
X99060000Y-97790000D01*
X88900000Y-100330000D02*
X88900000Y-96520000D01*
X88900000Y-96520000D02*
X99060000Y-96520000D01*
X99060000Y-96520000D02*
X99060000Y-105410000D01*
X99060000Y-105410000D02*
X88900000Y-105410000D01*
X88900000Y-105410000D02*
X88900000Y-100330000D01*
X127000000Y-101600000D02*
X127000000Y-104140000D01*
X125730000Y-102870000D02*
X128270000Y-102870000D01*
X121920000Y-101600000D02*
X121920000Y-104140000D01*
X120650000Y-102870000D02*
X123190000Y-102870000D01*
X128270000Y-102870000D02*
G75*
G03X128270000Y-102870000I-1270000J0D01*
G01*
X123190000Y-102870000D02*
G75*
G03X123190000Y-102870000I-1270000J0D01*
G01*
X119380000Y-97790000D02*
X129540000Y-97790000D01*
X119380000Y-100330000D02*
X119380000Y-96520000D01*
X119380000Y-96520000D02*
X129540000Y-96520000D01*
X129540000Y-96520000D02*
X129540000Y-105410000D01*
X129540000Y-105410000D02*
X119380000Y-105410000D01*
X119380000Y-105410000D02*
X119380000Y-100330000D01*
X137160000Y-101600000D02*
X137160000Y-104140000D01*
X135890000Y-102870000D02*
X138430000Y-102870000D01*
X132080000Y-101600000D02*
X132080000Y-104140000D01*
X130810000Y-102870000D02*
X133350000Y-102870000D01*
X138430000Y-102870000D02*
G75*
G03X138430000Y-102870000I-1270000J0D01*
G01*
X133350000Y-102870000D02*
G75*
G03X133350000Y-102870000I-1270000J0D01*
G01*
X129540000Y-97790000D02*
X139700000Y-97790000D01*
X129540000Y-100330000D02*
X129540000Y-96520000D01*
X129540000Y-96520000D02*
X139700000Y-96520000D01*
X139700000Y-96520000D02*
X139700000Y-105410000D01*
X139700000Y-105410000D02*
X129540000Y-105410000D01*
X129540000Y-105410000D02*
X129540000Y-100330000D01*
D14*
X62170000Y-114300000D02*
X62170000Y-121980000D01*
X62170000Y-121980000D02*
X67370000Y-121980000D01*
X67370000Y-121980000D02*
X67370000Y-111700000D01*
X67370000Y-111700000D02*
X64770000Y-111700000D01*
X64770000Y-111700000D02*
X64770000Y-114300000D01*
X64770000Y-114300000D02*
X62170000Y-114300000D01*
X62170000Y-113030000D02*
X62170000Y-111700000D01*
X62170000Y-111700000D02*
X63500000Y-111700000D01*
X107930000Y-97130000D02*
X107930000Y-103530000D01*
X107970000Y-97130000D02*
X107970000Y-103530000D01*
X108010000Y-97130000D02*
X108010000Y-103530000D01*
X108050000Y-97132000D02*
X108050000Y-103528000D01*
X108090000Y-97133000D02*
X108090000Y-103527000D01*
X108130000Y-97136000D02*
X108130000Y-103524000D01*
X108170000Y-97138000D02*
X108170000Y-103522000D01*
X108210000Y-97142000D02*
X108210000Y-99350000D01*
X108210000Y-101310000D02*
X108210000Y-103518000D01*
X108250000Y-97145000D02*
X108250000Y-99350000D01*
X108250000Y-101310000D02*
X108250000Y-103515000D01*
X108290000Y-97150000D02*
X108290000Y-99350000D01*
X108290000Y-101310000D02*
X108290000Y-103510000D01*
X108330000Y-97154000D02*
X108330000Y-99350000D01*
X108330000Y-101310000D02*
X108330000Y-103506000D01*
X108370000Y-97160000D02*
X108370000Y-99350000D01*
X108370000Y-101310000D02*
X108370000Y-103500000D01*
X108410000Y-97165000D02*
X108410000Y-99350000D01*
X108410000Y-101310000D02*
X108410000Y-103495000D01*
X108450000Y-97172000D02*
X108450000Y-99350000D01*
X108450000Y-101310000D02*
X108450000Y-103488000D01*
X108490000Y-97178000D02*
X108490000Y-99350000D01*
X108490000Y-101310000D02*
X108490000Y-103482000D01*
X108530000Y-97186000D02*
X108530000Y-99350000D01*
X108530000Y-101310000D02*
X108530000Y-103474000D01*
X108570000Y-97193000D02*
X108570000Y-99350000D01*
X108570000Y-101310000D02*
X108570000Y-103467000D01*
X108610000Y-97202000D02*
X108610000Y-99350000D01*
X108610000Y-101310000D02*
X108610000Y-103458000D01*
X108651000Y-97211000D02*
X108651000Y-99350000D01*
X108651000Y-101310000D02*
X108651000Y-103449000D01*
X108691000Y-97220000D02*
X108691000Y-99350000D01*
X108691000Y-101310000D02*
X108691000Y-103440000D01*
X108731000Y-97230000D02*
X108731000Y-99350000D01*
X108731000Y-101310000D02*
X108731000Y-103430000D01*
X108771000Y-97240000D02*
X108771000Y-99350000D01*
X108771000Y-101310000D02*
X108771000Y-103420000D01*
X108811000Y-97251000D02*
X108811000Y-99350000D01*
X108811000Y-101310000D02*
X108811000Y-103409000D01*
X108851000Y-97263000D02*
X108851000Y-99350000D01*
X108851000Y-101310000D02*
X108851000Y-103397000D01*
X108891000Y-97275000D02*
X108891000Y-99350000D01*
X108891000Y-101310000D02*
X108891000Y-103385000D01*
X108931000Y-97288000D02*
X108931000Y-99350000D01*
X108931000Y-101310000D02*
X108931000Y-103372000D01*
X108971000Y-97301000D02*
X108971000Y-99350000D01*
X108971000Y-101310000D02*
X108971000Y-103359000D01*
X109011000Y-97315000D02*
X109011000Y-99350000D01*
X109011000Y-101310000D02*
X109011000Y-103345000D01*
X109051000Y-97329000D02*
X109051000Y-99350000D01*
X109051000Y-101310000D02*
X109051000Y-103331000D01*
X109091000Y-97344000D02*
X109091000Y-99350000D01*
X109091000Y-101310000D02*
X109091000Y-103316000D01*
X109131000Y-97360000D02*
X109131000Y-99350000D01*
X109131000Y-101310000D02*
X109131000Y-103300000D01*
X109171000Y-97376000D02*
X109171000Y-99350000D01*
X109171000Y-101310000D02*
X109171000Y-103284000D01*
X109211000Y-97393000D02*
X109211000Y-99350000D01*
X109211000Y-101310000D02*
X109211000Y-103267000D01*
X109251000Y-97411000D02*
X109251000Y-99350000D01*
X109251000Y-101310000D02*
X109251000Y-103249000D01*
X109291000Y-97429000D02*
X109291000Y-99350000D01*
X109291000Y-101310000D02*
X109291000Y-103231000D01*
X109331000Y-97448000D02*
X109331000Y-99350000D01*
X109331000Y-101310000D02*
X109331000Y-103212000D01*
X109371000Y-97467000D02*
X109371000Y-99350000D01*
X109371000Y-101310000D02*
X109371000Y-103193000D01*
X109411000Y-97487000D02*
X109411000Y-99350000D01*
X109411000Y-101310000D02*
X109411000Y-103173000D01*
X109451000Y-97508000D02*
X109451000Y-99350000D01*
X109451000Y-101310000D02*
X109451000Y-103152000D01*
X109491000Y-97530000D02*
X109491000Y-99350000D01*
X109491000Y-101310000D02*
X109491000Y-103130000D01*
X109531000Y-97552000D02*
X109531000Y-99350000D01*
X109531000Y-101310000D02*
X109531000Y-103108000D01*
X109571000Y-97575000D02*
X109571000Y-99350000D01*
X109571000Y-101310000D02*
X109571000Y-103085000D01*
X109611000Y-97599000D02*
X109611000Y-99350000D01*
X109611000Y-101310000D02*
X109611000Y-103061000D01*
X109651000Y-97624000D02*
X109651000Y-99350000D01*
X109651000Y-101310000D02*
X109651000Y-103036000D01*
X109691000Y-97649000D02*
X109691000Y-99350000D01*
X109691000Y-101310000D02*
X109691000Y-103011000D01*
X109731000Y-97676000D02*
X109731000Y-99350000D01*
X109731000Y-101310000D02*
X109731000Y-102984000D01*
X109771000Y-97703000D02*
X109771000Y-99350000D01*
X109771000Y-101310000D02*
X109771000Y-102957000D01*
X109811000Y-97731000D02*
X109811000Y-99350000D01*
X109811000Y-101310000D02*
X109811000Y-102929000D01*
X109851000Y-97760000D02*
X109851000Y-99350000D01*
X109851000Y-101310000D02*
X109851000Y-102900000D01*
X109891000Y-97790000D02*
X109891000Y-99350000D01*
X109891000Y-101310000D02*
X109891000Y-102870000D01*
X109931000Y-97820000D02*
X109931000Y-99350000D01*
X109931000Y-101310000D02*
X109931000Y-102840000D01*
X109971000Y-97852000D02*
X109971000Y-99350000D01*
X109971000Y-101310000D02*
X109971000Y-102808000D01*
X110011000Y-97885000D02*
X110011000Y-99350000D01*
X110011000Y-101310000D02*
X110011000Y-102775000D01*
X110051000Y-97919000D02*
X110051000Y-99350000D01*
X110051000Y-101310000D02*
X110051000Y-102741000D01*
X110091000Y-97955000D02*
X110091000Y-99350000D01*
X110091000Y-101310000D02*
X110091000Y-102705000D01*
X110131000Y-97991000D02*
X110131000Y-99350000D01*
X110131000Y-101310000D02*
X110131000Y-102669000D01*
X110171000Y-98029000D02*
X110171000Y-102631000D01*
X110211000Y-98068000D02*
X110211000Y-102592000D01*
X110251000Y-98108000D02*
X110251000Y-102552000D01*
X110291000Y-98150000D02*
X110291000Y-102510000D01*
X110331000Y-98193000D02*
X110331000Y-102467000D01*
X110371000Y-98238000D02*
X110371000Y-102422000D01*
X110411000Y-98285000D02*
X110411000Y-102375000D01*
X110451000Y-98333000D02*
X110451000Y-102327000D01*
X110491000Y-98384000D02*
X110491000Y-102276000D01*
X110531000Y-98436000D02*
X110531000Y-102224000D01*
X110571000Y-98491000D02*
X110571000Y-102169000D01*
X110611000Y-98549000D02*
X110611000Y-102111000D01*
X110651000Y-98609000D02*
X110651000Y-102051000D01*
X110691000Y-98672000D02*
X110691000Y-101988000D01*
X110731000Y-98739000D02*
X110731000Y-101921000D01*
X110771000Y-98810000D02*
X110771000Y-101850000D01*
X110811000Y-98885000D02*
X110811000Y-101775000D01*
X110851000Y-98966000D02*
X110851000Y-101694000D01*
X110891000Y-99052000D02*
X110891000Y-101608000D01*
X110931000Y-99146000D02*
X110931000Y-101514000D01*
X110971000Y-99249000D02*
X110971000Y-101411000D01*
X111011000Y-99364000D02*
X111011000Y-101296000D01*
X111051000Y-99496000D02*
X111051000Y-101164000D01*
X111091000Y-99654000D02*
X111091000Y-101006000D01*
X111131000Y-99862000D02*
X111131000Y-100798000D01*
X104480000Y-100330000D02*
X105680000Y-100330000D01*
X105080000Y-99680000D02*
X105080000Y-100980000D01*
X111018440Y-99350643D02*
G75*
G03X104841764Y-99350000I-3088440J-979357D01*
G01*
X111018440Y-101309357D02*
G75*
G02X104841764Y-101310000I-3088440J979357D01*
G01*
X111018440Y-101309357D02*
G75*
G03X111018236Y-99350000I-3088440J979357D01*
G01*
X107343000Y-104549000D02*
X108517000Y-104549000D01*
X107343000Y-106271000D02*
X108517000Y-106271000D01*
X153730000Y-119380000D02*
X153730000Y-111700000D01*
X153730000Y-111700000D02*
X148530000Y-111700000D01*
X148530000Y-111700000D02*
X148530000Y-121980000D01*
X148530000Y-121980000D02*
X151130000Y-121980000D01*
X151130000Y-121980000D02*
X151130000Y-119380000D01*
X151130000Y-119380000D02*
X153730000Y-119380000D01*
X153730000Y-120650000D02*
X153730000Y-121980000D01*
X153730000Y-121980000D02*
X152400000Y-121980000D01*
D11*
X76576000Y-130566857D02*
X76576000Y-131424000D01*
X76518858Y-131595429D01*
X76404572Y-131709714D01*
X76233143Y-131766857D01*
X76118858Y-131766857D01*
X77776001Y-131766857D02*
X77090286Y-131766857D01*
X77433144Y-131766857D02*
X77433144Y-130566857D01*
X77318858Y-130738286D01*
X77204572Y-130852571D01*
X77090286Y-130909714D01*
X96576000Y-130566857D02*
X96576000Y-131424000D01*
X96518858Y-131595429D01*
X96404572Y-131709714D01*
X96233143Y-131766857D01*
X96118858Y-131766857D01*
X97090286Y-130681143D02*
X97147429Y-130624000D01*
X97261715Y-130566857D01*
X97547429Y-130566857D01*
X97661715Y-130624000D01*
X97718858Y-130681143D01*
X97776001Y-130795429D01*
X97776001Y-130909714D01*
X97718858Y-131081143D01*
X97033144Y-131766857D01*
X97776001Y-131766857D01*
X119076000Y-130566857D02*
X119076000Y-131424000D01*
X119018858Y-131595429D01*
X118904572Y-131709714D01*
X118733143Y-131766857D01*
X118618858Y-131766857D01*
X119533144Y-130566857D02*
X120276001Y-130566857D01*
X119876001Y-131024000D01*
X120047429Y-131024000D01*
X120161715Y-131081143D01*
X120218858Y-131138286D01*
X120276001Y-131252571D01*
X120276001Y-131538286D01*
X120218858Y-131652571D01*
X120161715Y-131709714D01*
X120047429Y-131766857D01*
X119704572Y-131766857D01*
X119590286Y-131709714D01*
X119533144Y-131652571D01*
X139076000Y-130566857D02*
X139076000Y-131424000D01*
X139018858Y-131595429D01*
X138904572Y-131709714D01*
X138733143Y-131766857D01*
X138618858Y-131766857D01*
X140161715Y-130966857D02*
X140161715Y-131766857D01*
X139876001Y-130509714D02*
X139590286Y-131366857D01*
X140333144Y-131366857D01*
X60505715Y-137692857D02*
X60905715Y-138892857D01*
X61305715Y-137692857D01*
X61705714Y-138892857D02*
X61705714Y-137692857D01*
X62220000Y-138550000D02*
X62791429Y-138550000D01*
X62105715Y-138892857D02*
X62505715Y-137692857D01*
X62905715Y-138892857D01*
X63020000Y-139007143D02*
X63934286Y-139007143D01*
X64220000Y-138892857D02*
X64220000Y-137692857D01*
X64620000Y-138550000D01*
X65020000Y-137692857D01*
X65020000Y-138892857D01*
X65477144Y-137692857D02*
X66220001Y-137692857D01*
X65820001Y-138150000D01*
X65991429Y-138150000D01*
X66105715Y-138207143D01*
X66162858Y-138264286D01*
X66220001Y-138378571D01*
X66220001Y-138664286D01*
X66162858Y-138778571D01*
X66105715Y-138835714D01*
X65991429Y-138892857D01*
X65648572Y-138892857D01*
X65534286Y-138835714D01*
X65477144Y-138778571D01*
X150505715Y-137692857D02*
X150905715Y-138892857D01*
X151305715Y-137692857D01*
X151705714Y-138892857D02*
X151705714Y-137692857D01*
X152220000Y-138550000D02*
X152791429Y-138550000D01*
X152105715Y-138892857D02*
X152505715Y-137692857D01*
X152905715Y-138892857D01*
X153020000Y-139007143D02*
X153934286Y-139007143D01*
X154220000Y-138892857D02*
X154220000Y-137692857D01*
X154620000Y-138550000D01*
X155020000Y-137692857D01*
X155020000Y-138892857D01*
X155477144Y-137692857D02*
X156220001Y-137692857D01*
X155820001Y-138150000D01*
X155991429Y-138150000D01*
X156105715Y-138207143D01*
X156162858Y-138264286D01*
X156220001Y-138378571D01*
X156220001Y-138664286D01*
X156162858Y-138778571D01*
X156105715Y-138835714D01*
X155991429Y-138892857D01*
X155648572Y-138892857D01*
X155534286Y-138835714D01*
X155477144Y-138778571D01*
X150505715Y-97692857D02*
X150905715Y-98892857D01*
X151305715Y-97692857D01*
X151705714Y-98892857D02*
X151705714Y-97692857D01*
X152220000Y-98550000D02*
X152791429Y-98550000D01*
X152105715Y-98892857D02*
X152505715Y-97692857D01*
X152905715Y-98892857D01*
X153020000Y-99007143D02*
X153934286Y-99007143D01*
X154220000Y-98892857D02*
X154220000Y-97692857D01*
X154620000Y-98550000D01*
X155020000Y-97692857D01*
X155020000Y-98892857D01*
X155477144Y-97692857D02*
X156220001Y-97692857D01*
X155820001Y-98150000D01*
X155991429Y-98150000D01*
X156105715Y-98207143D01*
X156162858Y-98264286D01*
X156220001Y-98378571D01*
X156220001Y-98664286D01*
X156162858Y-98778571D01*
X156105715Y-98835714D01*
X155991429Y-98892857D01*
X155648572Y-98892857D01*
X155534286Y-98835714D01*
X155477144Y-98778571D01*
X60505715Y-97692857D02*
X60905715Y-98892857D01*
X61305715Y-97692857D01*
X61705714Y-98892857D02*
X61705714Y-97692857D01*
X62220000Y-98550000D02*
X62791429Y-98550000D01*
X62105715Y-98892857D02*
X62505715Y-97692857D01*
X62905715Y-98892857D01*
X63020000Y-99007143D02*
X63934286Y-99007143D01*
X64220000Y-98892857D02*
X64220000Y-97692857D01*
X64620000Y-98550000D01*
X65020000Y-97692857D01*
X65020000Y-98892857D01*
X65477144Y-97692857D02*
X66220001Y-97692857D01*
X65820001Y-98150000D01*
X65991429Y-98150000D01*
X66105715Y-98207143D01*
X66162858Y-98264286D01*
X66220001Y-98378571D01*
X66220001Y-98664286D01*
X66162858Y-98778571D01*
X66105715Y-98835714D01*
X65991429Y-98892857D01*
X65648572Y-98892857D01*
X65534286Y-98835714D01*
X65477144Y-98778571D01*
X122852381Y-110823333D02*
X123566667Y-110823333D01*
X123709524Y-110870953D01*
X123804762Y-110966191D01*
X123852381Y-111109048D01*
X123852381Y-111204286D01*
X122852381Y-109870952D02*
X122852381Y-110347143D01*
X123328571Y-110394762D01*
X123280952Y-110347143D01*
X123233333Y-110251905D01*
X123233333Y-110013809D01*
X123280952Y-109918571D01*
X123328571Y-109870952D01*
X123423810Y-109823333D01*
X123661905Y-109823333D01*
X123757143Y-109870952D01*
X123804762Y-109918571D01*
X123852381Y-110013809D01*
X123852381Y-110251905D01*
X123804762Y-110347143D01*
X123757143Y-110394762D01*
X72842381Y-97956666D02*
X72366190Y-98290000D01*
X72842381Y-98528095D02*
X71842381Y-98528095D01*
X71842381Y-98147142D01*
X71890000Y-98051904D01*
X71937619Y-98004285D01*
X72032857Y-97956666D01*
X72175714Y-97956666D01*
X72270952Y-98004285D01*
X72318571Y-98051904D01*
X72366190Y-98147142D01*
X72366190Y-98528095D01*
X72842381Y-97004285D02*
X72842381Y-97575714D01*
X72842381Y-97290000D02*
X71842381Y-97290000D01*
X71985238Y-97385238D01*
X72080476Y-97480476D01*
X72128095Y-97575714D01*
X75382381Y-97956666D02*
X74906190Y-98290000D01*
X75382381Y-98528095D02*
X74382381Y-98528095D01*
X74382381Y-98147142D01*
X74430000Y-98051904D01*
X74477619Y-98004285D01*
X74572857Y-97956666D01*
X74715714Y-97956666D01*
X74810952Y-98004285D01*
X74858571Y-98051904D01*
X74906190Y-98147142D01*
X74906190Y-98528095D01*
X74477619Y-97575714D02*
X74430000Y-97528095D01*
X74382381Y-97432857D01*
X74382381Y-97194761D01*
X74430000Y-97099523D01*
X74477619Y-97051904D01*
X74572857Y-97004285D01*
X74668095Y-97004285D01*
X74810952Y-97051904D01*
X75382381Y-97623333D01*
X75382381Y-97004285D01*
X83420000Y-103482857D02*
X83420000Y-104340000D01*
X83362858Y-104511429D01*
X83248572Y-104625714D01*
X83077143Y-104682857D01*
X82962858Y-104682857D01*
X84505715Y-103482857D02*
X84277144Y-103482857D01*
X84162858Y-103540000D01*
X84105715Y-103597143D01*
X83991429Y-103768571D01*
X83934286Y-103997143D01*
X83934286Y-104454286D01*
X83991429Y-104568571D01*
X84048572Y-104625714D01*
X84162858Y-104682857D01*
X84391429Y-104682857D01*
X84505715Y-104625714D01*
X84562858Y-104568571D01*
X84620001Y-104454286D01*
X84620001Y-104168571D01*
X84562858Y-104054286D01*
X84505715Y-103997143D01*
X84391429Y-103940000D01*
X84162858Y-103940000D01*
X84048572Y-103997143D01*
X83991429Y-104054286D01*
X83934286Y-104168571D01*
X93580000Y-103482857D02*
X93580000Y-104340000D01*
X93522858Y-104511429D01*
X93408572Y-104625714D01*
X93237143Y-104682857D01*
X93122858Y-104682857D01*
X94037144Y-103482857D02*
X94837144Y-103482857D01*
X94322858Y-104682857D01*
X124060000Y-103736857D02*
X124060000Y-104594000D01*
X124002858Y-104765429D01*
X123888572Y-104879714D01*
X123717143Y-104936857D01*
X123602858Y-104936857D01*
X124802858Y-104251143D02*
X124688572Y-104194000D01*
X124631429Y-104136857D01*
X124574286Y-104022571D01*
X124574286Y-103965429D01*
X124631429Y-103851143D01*
X124688572Y-103794000D01*
X124802858Y-103736857D01*
X125031429Y-103736857D01*
X125145715Y-103794000D01*
X125202858Y-103851143D01*
X125260001Y-103965429D01*
X125260001Y-104022571D01*
X125202858Y-104136857D01*
X125145715Y-104194000D01*
X125031429Y-104251143D01*
X124802858Y-104251143D01*
X124688572Y-104308286D01*
X124631429Y-104365429D01*
X124574286Y-104479714D01*
X124574286Y-104708286D01*
X124631429Y-104822571D01*
X124688572Y-104879714D01*
X124802858Y-104936857D01*
X125031429Y-104936857D01*
X125145715Y-104879714D01*
X125202858Y-104822571D01*
X125260001Y-104708286D01*
X125260001Y-104479714D01*
X125202858Y-104365429D01*
X125145715Y-104308286D01*
X125031429Y-104251143D01*
X134220000Y-103736857D02*
X134220000Y-104594000D01*
X134162858Y-104765429D01*
X134048572Y-104879714D01*
X133877143Y-104936857D01*
X133762858Y-104936857D01*
X134848572Y-104936857D02*
X135077144Y-104936857D01*
X135191429Y-104879714D01*
X135248572Y-104822571D01*
X135362858Y-104651143D01*
X135420001Y-104422571D01*
X135420001Y-103965429D01*
X135362858Y-103851143D01*
X135305715Y-103794000D01*
X135191429Y-103736857D01*
X134962858Y-103736857D01*
X134848572Y-103794000D01*
X134791429Y-103851143D01*
X134734286Y-103965429D01*
X134734286Y-104251143D01*
X134791429Y-104365429D01*
X134848572Y-104422571D01*
X134962858Y-104479714D01*
X135191429Y-104479714D01*
X135305715Y-104422571D01*
X135362858Y-104365429D01*
X135420001Y-104251143D01*
X63960477Y-110152381D02*
X63960477Y-110866667D01*
X63912857Y-111009524D01*
X63817619Y-111104762D01*
X63674762Y-111152381D01*
X63579524Y-111152381D01*
X64960477Y-111152381D02*
X64389048Y-111152381D01*
X64674762Y-111152381D02*
X64674762Y-110152381D01*
X64579524Y-110295238D01*
X64484286Y-110390476D01*
X64389048Y-110438095D01*
X65579524Y-110152381D02*
X65674763Y-110152381D01*
X65770001Y-110200000D01*
X65817620Y-110247619D01*
X65865239Y-110342857D01*
X65912858Y-110533333D01*
X65912858Y-110771429D01*
X65865239Y-110961905D01*
X65817620Y-111057143D01*
X65770001Y-111104762D01*
X65674763Y-111152381D01*
X65579524Y-111152381D01*
X65484286Y-111104762D01*
X65436667Y-111057143D01*
X65389048Y-110961905D01*
X65341429Y-110771429D01*
X65341429Y-110533333D01*
X65389048Y-110342857D01*
X65436667Y-110247619D01*
X65484286Y-110200000D01*
X65579524Y-110152381D01*
X103973334Y-103227143D02*
X103925715Y-103274762D01*
X103782858Y-103322381D01*
X103687620Y-103322381D01*
X103544762Y-103274762D01*
X103449524Y-103179524D01*
X103401905Y-103084286D01*
X103354286Y-102893810D01*
X103354286Y-102750952D01*
X103401905Y-102560476D01*
X103449524Y-102465238D01*
X103544762Y-102370000D01*
X103687620Y-102322381D01*
X103782858Y-102322381D01*
X103925715Y-102370000D01*
X103973334Y-102417619D01*
X104925715Y-103322381D02*
X104354286Y-103322381D01*
X104640000Y-103322381D02*
X104640000Y-102322381D01*
X104544762Y-102465238D01*
X104449524Y-102560476D01*
X104354286Y-102608095D01*
X103973334Y-105767143D02*
X103925715Y-105814762D01*
X103782858Y-105862381D01*
X103687620Y-105862381D01*
X103544762Y-105814762D01*
X103449524Y-105719524D01*
X103401905Y-105624286D01*
X103354286Y-105433810D01*
X103354286Y-105290952D01*
X103401905Y-105100476D01*
X103449524Y-105005238D01*
X103544762Y-104910000D01*
X103687620Y-104862381D01*
X103782858Y-104862381D01*
X103925715Y-104910000D01*
X103973334Y-104957619D01*
X104354286Y-104957619D02*
X104401905Y-104910000D01*
X104497143Y-104862381D01*
X104735239Y-104862381D01*
X104830477Y-104910000D01*
X104878096Y-104957619D01*
X104925715Y-105052857D01*
X104925715Y-105148095D01*
X104878096Y-105290952D01*
X104306667Y-105862381D01*
X104925715Y-105862381D01*
X150320477Y-122432381D02*
X150320477Y-123146667D01*
X150272857Y-123289524D01*
X150177619Y-123384762D01*
X150034762Y-123432381D01*
X149939524Y-123432381D01*
X151320477Y-123432381D02*
X150749048Y-123432381D01*
X151034762Y-123432381D02*
X151034762Y-122432381D01*
X150939524Y-122575238D01*
X150844286Y-122670476D01*
X150749048Y-122718095D01*
X152272858Y-123432381D02*
X151701429Y-123432381D01*
X151987143Y-123432381D02*
X151987143Y-122432381D01*
X151891905Y-122575238D01*
X151796667Y-122670476D01*
X151701429Y-122718095D01*
M02*
