M48
;DRILL file {KiCad 4.0.6} date 01/18/18 09:08:42
;FORMAT={-:-/ absolute / metric / decimal}
FMAT,2
METRIC,TZ
T1C0.600
T2C0.900
T3C1.000
T4C1.800
T5C3.000
T6C3.250
%
G90
G05
M71
T1
X69.85Y-137.16
X71.12Y-139.7
X72.39Y-142.24
X76.2Y-113.03
X77.47Y-115.57
X78.74Y-118.11
X90.17Y-137.16
X91.44Y-139.7
X92.71Y-142.24
X97.155Y-113.03
X98.425Y-115.57
X99.695Y-118.11
X110.49Y-137.16
X111.76Y-139.7
X113.03Y-142.24
X117.475Y-113.03
X118.745Y-115.57
X120.015Y-118.11
X130.81Y-137.16
X131.445Y-113.03
X132.08Y-139.7
X133.35Y-142.24
X133.985Y-111.76
X136.525Y-110.49
T2
X67.83Y-122.19
X70.12Y-122.19
X71.12Y-127.
X72.14Y-128.78
X73.16Y-127.
X74.18Y-128.78
X75.2Y-127.
X76.22Y-128.78
X77.24Y-127.
X78.26Y-128.78
X79.26Y-122.19
X81.55Y-122.19
X88.15Y-122.19
X90.44Y-122.19
X91.44Y-127.
X92.46Y-128.78
X93.48Y-127.
X94.5Y-128.78
X95.52Y-127.
X96.54Y-128.78
X97.56Y-127.
X98.58Y-128.78
X99.58Y-122.19
X101.87Y-122.19
X108.47Y-122.19
X110.76Y-122.19
X111.76Y-127.
X112.78Y-128.78
X113.8Y-127.
X114.82Y-128.78
X115.84Y-127.
X116.86Y-128.78
X117.88Y-127.
X118.9Y-128.78
X119.9Y-122.19
X122.19Y-122.19
X128.79Y-122.19
X131.08Y-122.19
X132.08Y-127.
X133.1Y-128.78
X134.12Y-127.
X135.14Y-128.78
X136.16Y-127.
X137.18Y-128.78
X138.2Y-127.
X139.22Y-128.78
X140.22Y-122.19
X142.51Y-122.19
T3
X73.66Y-105.41
X78.74Y-105.41
X83.82Y-105.41
X88.9Y-105.41
X114.3Y-105.41
X119.38Y-105.41
X124.46Y-105.41
X129.54Y-105.41
T4
X66.56Y-127.76
X82.82Y-127.76
X86.88Y-127.76
X103.14Y-127.76
X107.2Y-127.76
X123.46Y-127.76
X127.52Y-127.76
X143.78Y-127.76
T5
X61.42Y-105.05
X61.42Y-143.05
X145.42Y-105.05
X145.42Y-143.05
T6
X68.34Y-131.32
X81.04Y-131.32
X88.66Y-131.32
X101.36Y-131.32
X108.98Y-131.32
X121.68Y-131.32
X129.3Y-131.32
X142.Y-131.32
T0
M30
